G04 #@! TF.GenerationSoftware,KiCad,Pcbnew,9.0.1*
G04 #@! TF.CreationDate,2025-06-11T13:57:41-04:00*
G04 #@! TF.ProjectId,hackpad,6861636b-7061-4642-9e6b-696361645f70,rev?*
G04 #@! TF.SameCoordinates,Original*
G04 #@! TF.FileFunction,Legend,Bot*
G04 #@! TF.FilePolarity,Positive*
%FSLAX46Y46*%
G04 Gerber Fmt 4.6, Leading zero omitted, Abs format (unit mm)*
G04 Created by KiCad (PCBNEW 9.0.1) date 2025-06-11 13:57:41*
%MOMM*%
%LPD*%
G01*
G04 APERTURE LIST*
%ADD10C,0.150000*%
%ADD11C,0.120000*%
%ADD12O,1.600000X1.600000*%
%ADD13R,1.600000X1.600000*%
%ADD14C,2.200000*%
%ADD15C,1.700000*%
%ADD16C,4.000000*%
%ADD17C,1.524000*%
%ADD18R,2.000000X2.000000*%
%ADD19C,2.000000*%
%ADD20R,3.200000X2.000000*%
G04 APERTURE END LIST*
D10*
X202599819Y-72128155D02*
X201599819Y-72128155D01*
X201599819Y-72128155D02*
X201599819Y-72366250D01*
X201599819Y-72366250D02*
X201647438Y-72509107D01*
X201647438Y-72509107D02*
X201742676Y-72604345D01*
X201742676Y-72604345D02*
X201837914Y-72651964D01*
X201837914Y-72651964D02*
X202028390Y-72699583D01*
X202028390Y-72699583D02*
X202171247Y-72699583D01*
X202171247Y-72699583D02*
X202361723Y-72651964D01*
X202361723Y-72651964D02*
X202456961Y-72604345D01*
X202456961Y-72604345D02*
X202552200Y-72509107D01*
X202552200Y-72509107D02*
X202599819Y-72366250D01*
X202599819Y-72366250D02*
X202599819Y-72128155D01*
X201599819Y-73604345D02*
X201599819Y-73128155D01*
X201599819Y-73128155D02*
X202076009Y-73080536D01*
X202076009Y-73080536D02*
X202028390Y-73128155D01*
X202028390Y-73128155D02*
X201980771Y-73223393D01*
X201980771Y-73223393D02*
X201980771Y-73461488D01*
X201980771Y-73461488D02*
X202028390Y-73556726D01*
X202028390Y-73556726D02*
X202076009Y-73604345D01*
X202076009Y-73604345D02*
X202171247Y-73651964D01*
X202171247Y-73651964D02*
X202409342Y-73651964D01*
X202409342Y-73651964D02*
X202504580Y-73604345D01*
X202504580Y-73604345D02*
X202552200Y-73556726D01*
X202552200Y-73556726D02*
X202599819Y-73461488D01*
X202599819Y-73461488D02*
X202599819Y-73223393D01*
X202599819Y-73223393D02*
X202552200Y-73128155D01*
X202552200Y-73128155D02*
X202504580Y-73080536D01*
X202279819Y-76414345D02*
X201279819Y-76414345D01*
X202279819Y-76985773D02*
X201708390Y-76557202D01*
X201279819Y-76985773D02*
X201851247Y-76414345D01*
X126399819Y-72128155D02*
X125399819Y-72128155D01*
X125399819Y-72128155D02*
X125399819Y-72366250D01*
X125399819Y-72366250D02*
X125447438Y-72509107D01*
X125447438Y-72509107D02*
X125542676Y-72604345D01*
X125542676Y-72604345D02*
X125637914Y-72651964D01*
X125637914Y-72651964D02*
X125828390Y-72699583D01*
X125828390Y-72699583D02*
X125971247Y-72699583D01*
X125971247Y-72699583D02*
X126161723Y-72651964D01*
X126161723Y-72651964D02*
X126256961Y-72604345D01*
X126256961Y-72604345D02*
X126352200Y-72509107D01*
X126352200Y-72509107D02*
X126399819Y-72366250D01*
X126399819Y-72366250D02*
X126399819Y-72128155D01*
X126399819Y-73651964D02*
X126399819Y-73080536D01*
X126399819Y-73366250D02*
X125399819Y-73366250D01*
X125399819Y-73366250D02*
X125542676Y-73271012D01*
X125542676Y-73271012D02*
X125637914Y-73175774D01*
X125637914Y-73175774D02*
X125685533Y-73080536D01*
X126079819Y-76414345D02*
X125079819Y-76414345D01*
X126079819Y-76985773D02*
X125508390Y-76557202D01*
X125079819Y-76985773D02*
X125651247Y-76414345D01*
X202599819Y-88320714D02*
X201599819Y-88320714D01*
X201599819Y-88320714D02*
X201599819Y-88558809D01*
X201599819Y-88558809D02*
X201647438Y-88701666D01*
X201647438Y-88701666D02*
X201742676Y-88796904D01*
X201742676Y-88796904D02*
X201837914Y-88844523D01*
X201837914Y-88844523D02*
X202028390Y-88892142D01*
X202028390Y-88892142D02*
X202171247Y-88892142D01*
X202171247Y-88892142D02*
X202361723Y-88844523D01*
X202361723Y-88844523D02*
X202456961Y-88796904D01*
X202456961Y-88796904D02*
X202552200Y-88701666D01*
X202552200Y-88701666D02*
X202599819Y-88558809D01*
X202599819Y-88558809D02*
X202599819Y-88320714D01*
X202599819Y-89844523D02*
X202599819Y-89273095D01*
X202599819Y-89558809D02*
X201599819Y-89558809D01*
X201599819Y-89558809D02*
X201742676Y-89463571D01*
X201742676Y-89463571D02*
X201837914Y-89368333D01*
X201837914Y-89368333D02*
X201885533Y-89273095D01*
X201599819Y-90463571D02*
X201599819Y-90558809D01*
X201599819Y-90558809D02*
X201647438Y-90654047D01*
X201647438Y-90654047D02*
X201695057Y-90701666D01*
X201695057Y-90701666D02*
X201790295Y-90749285D01*
X201790295Y-90749285D02*
X201980771Y-90796904D01*
X201980771Y-90796904D02*
X202218866Y-90796904D01*
X202218866Y-90796904D02*
X202409342Y-90749285D01*
X202409342Y-90749285D02*
X202504580Y-90701666D01*
X202504580Y-90701666D02*
X202552200Y-90654047D01*
X202552200Y-90654047D02*
X202599819Y-90558809D01*
X202599819Y-90558809D02*
X202599819Y-90463571D01*
X202599819Y-90463571D02*
X202552200Y-90368333D01*
X202552200Y-90368333D02*
X202504580Y-90320714D01*
X202504580Y-90320714D02*
X202409342Y-90273095D01*
X202409342Y-90273095D02*
X202218866Y-90225476D01*
X202218866Y-90225476D02*
X201980771Y-90225476D01*
X201980771Y-90225476D02*
X201790295Y-90273095D01*
X201790295Y-90273095D02*
X201695057Y-90320714D01*
X201695057Y-90320714D02*
X201647438Y-90368333D01*
X201647438Y-90368333D02*
X201599819Y-90463571D01*
X202279819Y-93083095D02*
X201279819Y-93083095D01*
X202279819Y-93654523D02*
X201708390Y-93225952D01*
X201279819Y-93654523D02*
X201851247Y-93083095D01*
X183549819Y-88796905D02*
X182549819Y-88796905D01*
X182549819Y-88796905D02*
X182549819Y-89035000D01*
X182549819Y-89035000D02*
X182597438Y-89177857D01*
X182597438Y-89177857D02*
X182692676Y-89273095D01*
X182692676Y-89273095D02*
X182787914Y-89320714D01*
X182787914Y-89320714D02*
X182978390Y-89368333D01*
X182978390Y-89368333D02*
X183121247Y-89368333D01*
X183121247Y-89368333D02*
X183311723Y-89320714D01*
X183311723Y-89320714D02*
X183406961Y-89273095D01*
X183406961Y-89273095D02*
X183502200Y-89177857D01*
X183502200Y-89177857D02*
X183549819Y-89035000D01*
X183549819Y-89035000D02*
X183549819Y-88796905D01*
X183549819Y-89844524D02*
X183549819Y-90035000D01*
X183549819Y-90035000D02*
X183502200Y-90130238D01*
X183502200Y-90130238D02*
X183454580Y-90177857D01*
X183454580Y-90177857D02*
X183311723Y-90273095D01*
X183311723Y-90273095D02*
X183121247Y-90320714D01*
X183121247Y-90320714D02*
X182740295Y-90320714D01*
X182740295Y-90320714D02*
X182645057Y-90273095D01*
X182645057Y-90273095D02*
X182597438Y-90225476D01*
X182597438Y-90225476D02*
X182549819Y-90130238D01*
X182549819Y-90130238D02*
X182549819Y-89939762D01*
X182549819Y-89939762D02*
X182597438Y-89844524D01*
X182597438Y-89844524D02*
X182645057Y-89796905D01*
X182645057Y-89796905D02*
X182740295Y-89749286D01*
X182740295Y-89749286D02*
X182978390Y-89749286D01*
X182978390Y-89749286D02*
X183073628Y-89796905D01*
X183073628Y-89796905D02*
X183121247Y-89844524D01*
X183121247Y-89844524D02*
X183168866Y-89939762D01*
X183168866Y-89939762D02*
X183168866Y-90130238D01*
X183168866Y-90130238D02*
X183121247Y-90225476D01*
X183121247Y-90225476D02*
X183073628Y-90273095D01*
X183073628Y-90273095D02*
X182978390Y-90320714D01*
X183229819Y-93083095D02*
X182229819Y-93083095D01*
X183229819Y-93654523D02*
X182658390Y-93225952D01*
X182229819Y-93654523D02*
X182801247Y-93083095D01*
X164499819Y-88796905D02*
X163499819Y-88796905D01*
X163499819Y-88796905D02*
X163499819Y-89035000D01*
X163499819Y-89035000D02*
X163547438Y-89177857D01*
X163547438Y-89177857D02*
X163642676Y-89273095D01*
X163642676Y-89273095D02*
X163737914Y-89320714D01*
X163737914Y-89320714D02*
X163928390Y-89368333D01*
X163928390Y-89368333D02*
X164071247Y-89368333D01*
X164071247Y-89368333D02*
X164261723Y-89320714D01*
X164261723Y-89320714D02*
X164356961Y-89273095D01*
X164356961Y-89273095D02*
X164452200Y-89177857D01*
X164452200Y-89177857D02*
X164499819Y-89035000D01*
X164499819Y-89035000D02*
X164499819Y-88796905D01*
X163928390Y-89939762D02*
X163880771Y-89844524D01*
X163880771Y-89844524D02*
X163833152Y-89796905D01*
X163833152Y-89796905D02*
X163737914Y-89749286D01*
X163737914Y-89749286D02*
X163690295Y-89749286D01*
X163690295Y-89749286D02*
X163595057Y-89796905D01*
X163595057Y-89796905D02*
X163547438Y-89844524D01*
X163547438Y-89844524D02*
X163499819Y-89939762D01*
X163499819Y-89939762D02*
X163499819Y-90130238D01*
X163499819Y-90130238D02*
X163547438Y-90225476D01*
X163547438Y-90225476D02*
X163595057Y-90273095D01*
X163595057Y-90273095D02*
X163690295Y-90320714D01*
X163690295Y-90320714D02*
X163737914Y-90320714D01*
X163737914Y-90320714D02*
X163833152Y-90273095D01*
X163833152Y-90273095D02*
X163880771Y-90225476D01*
X163880771Y-90225476D02*
X163928390Y-90130238D01*
X163928390Y-90130238D02*
X163928390Y-89939762D01*
X163928390Y-89939762D02*
X163976009Y-89844524D01*
X163976009Y-89844524D02*
X164023628Y-89796905D01*
X164023628Y-89796905D02*
X164118866Y-89749286D01*
X164118866Y-89749286D02*
X164309342Y-89749286D01*
X164309342Y-89749286D02*
X164404580Y-89796905D01*
X164404580Y-89796905D02*
X164452200Y-89844524D01*
X164452200Y-89844524D02*
X164499819Y-89939762D01*
X164499819Y-89939762D02*
X164499819Y-90130238D01*
X164499819Y-90130238D02*
X164452200Y-90225476D01*
X164452200Y-90225476D02*
X164404580Y-90273095D01*
X164404580Y-90273095D02*
X164309342Y-90320714D01*
X164309342Y-90320714D02*
X164118866Y-90320714D01*
X164118866Y-90320714D02*
X164023628Y-90273095D01*
X164023628Y-90273095D02*
X163976009Y-90225476D01*
X163976009Y-90225476D02*
X163928390Y-90130238D01*
X164179819Y-93083095D02*
X163179819Y-93083095D01*
X164179819Y-93654523D02*
X163608390Y-93225952D01*
X163179819Y-93654523D02*
X163751247Y-93083095D01*
X145449819Y-88796905D02*
X144449819Y-88796905D01*
X144449819Y-88796905D02*
X144449819Y-89035000D01*
X144449819Y-89035000D02*
X144497438Y-89177857D01*
X144497438Y-89177857D02*
X144592676Y-89273095D01*
X144592676Y-89273095D02*
X144687914Y-89320714D01*
X144687914Y-89320714D02*
X144878390Y-89368333D01*
X144878390Y-89368333D02*
X145021247Y-89368333D01*
X145021247Y-89368333D02*
X145211723Y-89320714D01*
X145211723Y-89320714D02*
X145306961Y-89273095D01*
X145306961Y-89273095D02*
X145402200Y-89177857D01*
X145402200Y-89177857D02*
X145449819Y-89035000D01*
X145449819Y-89035000D02*
X145449819Y-88796905D01*
X144449819Y-89701667D02*
X144449819Y-90368333D01*
X144449819Y-90368333D02*
X145449819Y-89939762D01*
X145129819Y-93083095D02*
X144129819Y-93083095D01*
X145129819Y-93654523D02*
X144558390Y-93225952D01*
X144129819Y-93654523D02*
X144701247Y-93083095D01*
X126399819Y-88796905D02*
X125399819Y-88796905D01*
X125399819Y-88796905D02*
X125399819Y-89035000D01*
X125399819Y-89035000D02*
X125447438Y-89177857D01*
X125447438Y-89177857D02*
X125542676Y-89273095D01*
X125542676Y-89273095D02*
X125637914Y-89320714D01*
X125637914Y-89320714D02*
X125828390Y-89368333D01*
X125828390Y-89368333D02*
X125971247Y-89368333D01*
X125971247Y-89368333D02*
X126161723Y-89320714D01*
X126161723Y-89320714D02*
X126256961Y-89273095D01*
X126256961Y-89273095D02*
X126352200Y-89177857D01*
X126352200Y-89177857D02*
X126399819Y-89035000D01*
X126399819Y-89035000D02*
X126399819Y-88796905D01*
X125399819Y-90225476D02*
X125399819Y-90035000D01*
X125399819Y-90035000D02*
X125447438Y-89939762D01*
X125447438Y-89939762D02*
X125495057Y-89892143D01*
X125495057Y-89892143D02*
X125637914Y-89796905D01*
X125637914Y-89796905D02*
X125828390Y-89749286D01*
X125828390Y-89749286D02*
X126209342Y-89749286D01*
X126209342Y-89749286D02*
X126304580Y-89796905D01*
X126304580Y-89796905D02*
X126352200Y-89844524D01*
X126352200Y-89844524D02*
X126399819Y-89939762D01*
X126399819Y-89939762D02*
X126399819Y-90130238D01*
X126399819Y-90130238D02*
X126352200Y-90225476D01*
X126352200Y-90225476D02*
X126304580Y-90273095D01*
X126304580Y-90273095D02*
X126209342Y-90320714D01*
X126209342Y-90320714D02*
X125971247Y-90320714D01*
X125971247Y-90320714D02*
X125876009Y-90273095D01*
X125876009Y-90273095D02*
X125828390Y-90225476D01*
X125828390Y-90225476D02*
X125780771Y-90130238D01*
X125780771Y-90130238D02*
X125780771Y-89939762D01*
X125780771Y-89939762D02*
X125828390Y-89844524D01*
X125828390Y-89844524D02*
X125876009Y-89796905D01*
X125876009Y-89796905D02*
X125971247Y-89749286D01*
X126079819Y-93083095D02*
X125079819Y-93083095D01*
X126079819Y-93654523D02*
X125508390Y-93225952D01*
X125079819Y-93654523D02*
X125651247Y-93083095D01*
X183549819Y-72128155D02*
X182549819Y-72128155D01*
X182549819Y-72128155D02*
X182549819Y-72366250D01*
X182549819Y-72366250D02*
X182597438Y-72509107D01*
X182597438Y-72509107D02*
X182692676Y-72604345D01*
X182692676Y-72604345D02*
X182787914Y-72651964D01*
X182787914Y-72651964D02*
X182978390Y-72699583D01*
X182978390Y-72699583D02*
X183121247Y-72699583D01*
X183121247Y-72699583D02*
X183311723Y-72651964D01*
X183311723Y-72651964D02*
X183406961Y-72604345D01*
X183406961Y-72604345D02*
X183502200Y-72509107D01*
X183502200Y-72509107D02*
X183549819Y-72366250D01*
X183549819Y-72366250D02*
X183549819Y-72128155D01*
X182883152Y-73556726D02*
X183549819Y-73556726D01*
X182502200Y-73318631D02*
X183216485Y-73080536D01*
X183216485Y-73080536D02*
X183216485Y-73699583D01*
X183229819Y-76414345D02*
X182229819Y-76414345D01*
X183229819Y-76985773D02*
X182658390Y-76557202D01*
X182229819Y-76985773D02*
X182801247Y-76414345D01*
X164499819Y-72128155D02*
X163499819Y-72128155D01*
X163499819Y-72128155D02*
X163499819Y-72366250D01*
X163499819Y-72366250D02*
X163547438Y-72509107D01*
X163547438Y-72509107D02*
X163642676Y-72604345D01*
X163642676Y-72604345D02*
X163737914Y-72651964D01*
X163737914Y-72651964D02*
X163928390Y-72699583D01*
X163928390Y-72699583D02*
X164071247Y-72699583D01*
X164071247Y-72699583D02*
X164261723Y-72651964D01*
X164261723Y-72651964D02*
X164356961Y-72604345D01*
X164356961Y-72604345D02*
X164452200Y-72509107D01*
X164452200Y-72509107D02*
X164499819Y-72366250D01*
X164499819Y-72366250D02*
X164499819Y-72128155D01*
X163499819Y-73032917D02*
X163499819Y-73651964D01*
X163499819Y-73651964D02*
X163880771Y-73318631D01*
X163880771Y-73318631D02*
X163880771Y-73461488D01*
X163880771Y-73461488D02*
X163928390Y-73556726D01*
X163928390Y-73556726D02*
X163976009Y-73604345D01*
X163976009Y-73604345D02*
X164071247Y-73651964D01*
X164071247Y-73651964D02*
X164309342Y-73651964D01*
X164309342Y-73651964D02*
X164404580Y-73604345D01*
X164404580Y-73604345D02*
X164452200Y-73556726D01*
X164452200Y-73556726D02*
X164499819Y-73461488D01*
X164499819Y-73461488D02*
X164499819Y-73175774D01*
X164499819Y-73175774D02*
X164452200Y-73080536D01*
X164452200Y-73080536D02*
X164404580Y-73032917D01*
X164179819Y-76414345D02*
X163179819Y-76414345D01*
X164179819Y-76985773D02*
X163608390Y-76557202D01*
X163179819Y-76985773D02*
X163751247Y-76414345D01*
X145449819Y-72128155D02*
X144449819Y-72128155D01*
X144449819Y-72128155D02*
X144449819Y-72366250D01*
X144449819Y-72366250D02*
X144497438Y-72509107D01*
X144497438Y-72509107D02*
X144592676Y-72604345D01*
X144592676Y-72604345D02*
X144687914Y-72651964D01*
X144687914Y-72651964D02*
X144878390Y-72699583D01*
X144878390Y-72699583D02*
X145021247Y-72699583D01*
X145021247Y-72699583D02*
X145211723Y-72651964D01*
X145211723Y-72651964D02*
X145306961Y-72604345D01*
X145306961Y-72604345D02*
X145402200Y-72509107D01*
X145402200Y-72509107D02*
X145449819Y-72366250D01*
X145449819Y-72366250D02*
X145449819Y-72128155D01*
X144545057Y-73080536D02*
X144497438Y-73128155D01*
X144497438Y-73128155D02*
X144449819Y-73223393D01*
X144449819Y-73223393D02*
X144449819Y-73461488D01*
X144449819Y-73461488D02*
X144497438Y-73556726D01*
X144497438Y-73556726D02*
X144545057Y-73604345D01*
X144545057Y-73604345D02*
X144640295Y-73651964D01*
X144640295Y-73651964D02*
X144735533Y-73651964D01*
X144735533Y-73651964D02*
X144878390Y-73604345D01*
X144878390Y-73604345D02*
X145449819Y-73032917D01*
X145449819Y-73032917D02*
X145449819Y-73651964D01*
X145129819Y-76414345D02*
X144129819Y-76414345D01*
X145129819Y-76985773D02*
X144558390Y-76557202D01*
X144129819Y-76985773D02*
X144701247Y-76414345D01*
D11*
G04 #@! TO.C,D5*
X200025000Y-70096250D02*
X200025000Y-70746250D01*
X198905000Y-70746250D02*
X201145000Y-70746250D01*
X201145000Y-70746250D02*
X201145000Y-74986250D01*
X201145000Y-74146250D02*
X198905000Y-74146250D01*
X201145000Y-74266250D02*
X198905000Y-74266250D01*
X201145000Y-74386250D02*
X198905000Y-74386250D01*
X198905000Y-74986250D02*
X198905000Y-70746250D01*
X201145000Y-74986250D02*
X198905000Y-74986250D01*
X200025000Y-75636250D02*
X200025000Y-74986250D01*
G04 #@! TO.C,D1*
X123825000Y-70096250D02*
X123825000Y-70746250D01*
X122705000Y-70746250D02*
X124945000Y-70746250D01*
X124945000Y-70746250D02*
X124945000Y-74986250D01*
X124945000Y-74146250D02*
X122705000Y-74146250D01*
X124945000Y-74266250D02*
X122705000Y-74266250D01*
X124945000Y-74386250D02*
X122705000Y-74386250D01*
X122705000Y-74986250D02*
X122705000Y-70746250D01*
X124945000Y-74986250D02*
X122705000Y-74986250D01*
X123825000Y-75636250D02*
X123825000Y-74986250D01*
G04 #@! TO.C,D10*
X200025000Y-92305000D02*
X200025000Y-91655000D01*
X201145000Y-91655000D02*
X198905000Y-91655000D01*
X198905000Y-91655000D02*
X198905000Y-87415000D01*
X201145000Y-91055000D02*
X198905000Y-91055000D01*
X201145000Y-90935000D02*
X198905000Y-90935000D01*
X201145000Y-90815000D02*
X198905000Y-90815000D01*
X201145000Y-87415000D02*
X201145000Y-91655000D01*
X198905000Y-87415000D02*
X201145000Y-87415000D01*
X200025000Y-86765000D02*
X200025000Y-87415000D01*
G04 #@! TO.C,D9*
X180975000Y-92305000D02*
X180975000Y-91655000D01*
X182095000Y-91655000D02*
X179855000Y-91655000D01*
X179855000Y-91655000D02*
X179855000Y-87415000D01*
X182095000Y-91055000D02*
X179855000Y-91055000D01*
X182095000Y-90935000D02*
X179855000Y-90935000D01*
X182095000Y-90815000D02*
X179855000Y-90815000D01*
X182095000Y-87415000D02*
X182095000Y-91655000D01*
X179855000Y-87415000D02*
X182095000Y-87415000D01*
X180975000Y-86765000D02*
X180975000Y-87415000D01*
G04 #@! TO.C,D8*
X161925000Y-92305000D02*
X161925000Y-91655000D01*
X163045000Y-91655000D02*
X160805000Y-91655000D01*
X160805000Y-91655000D02*
X160805000Y-87415000D01*
X163045000Y-91055000D02*
X160805000Y-91055000D01*
X163045000Y-90935000D02*
X160805000Y-90935000D01*
X163045000Y-90815000D02*
X160805000Y-90815000D01*
X163045000Y-87415000D02*
X163045000Y-91655000D01*
X160805000Y-87415000D02*
X163045000Y-87415000D01*
X161925000Y-86765000D02*
X161925000Y-87415000D01*
G04 #@! TO.C,D7*
X142875000Y-92305000D02*
X142875000Y-91655000D01*
X143995000Y-91655000D02*
X141755000Y-91655000D01*
X141755000Y-91655000D02*
X141755000Y-87415000D01*
X143995000Y-91055000D02*
X141755000Y-91055000D01*
X143995000Y-90935000D02*
X141755000Y-90935000D01*
X143995000Y-90815000D02*
X141755000Y-90815000D01*
X143995000Y-87415000D02*
X143995000Y-91655000D01*
X141755000Y-87415000D02*
X143995000Y-87415000D01*
X142875000Y-86765000D02*
X142875000Y-87415000D01*
G04 #@! TO.C,D6*
X123825000Y-92305000D02*
X123825000Y-91655000D01*
X124945000Y-91655000D02*
X122705000Y-91655000D01*
X122705000Y-91655000D02*
X122705000Y-87415000D01*
X124945000Y-91055000D02*
X122705000Y-91055000D01*
X124945000Y-90935000D02*
X122705000Y-90935000D01*
X124945000Y-90815000D02*
X122705000Y-90815000D01*
X124945000Y-87415000D02*
X124945000Y-91655000D01*
X122705000Y-87415000D02*
X124945000Y-87415000D01*
X123825000Y-86765000D02*
X123825000Y-87415000D01*
G04 #@! TO.C,D4*
X180975000Y-75636250D02*
X180975000Y-74986250D01*
X182095000Y-74986250D02*
X179855000Y-74986250D01*
X179855000Y-74986250D02*
X179855000Y-70746250D01*
X182095000Y-74386250D02*
X179855000Y-74386250D01*
X182095000Y-74266250D02*
X179855000Y-74266250D01*
X182095000Y-74146250D02*
X179855000Y-74146250D01*
X182095000Y-70746250D02*
X182095000Y-74986250D01*
X179855000Y-70746250D02*
X182095000Y-70746250D01*
X180975000Y-70096250D02*
X180975000Y-70746250D01*
G04 #@! TO.C,D3*
X161925000Y-75636250D02*
X161925000Y-74986250D01*
X163045000Y-74986250D02*
X160805000Y-74986250D01*
X160805000Y-74986250D02*
X160805000Y-70746250D01*
X163045000Y-74386250D02*
X160805000Y-74386250D01*
X163045000Y-74266250D02*
X160805000Y-74266250D01*
X163045000Y-74146250D02*
X160805000Y-74146250D01*
X163045000Y-70746250D02*
X163045000Y-74986250D01*
X160805000Y-70746250D02*
X163045000Y-70746250D01*
X161925000Y-70096250D02*
X161925000Y-70746250D01*
G04 #@! TO.C,D2*
X142875000Y-75636250D02*
X142875000Y-74986250D01*
X143995000Y-74986250D02*
X141755000Y-74986250D01*
X141755000Y-74986250D02*
X141755000Y-70746250D01*
X143995000Y-74386250D02*
X141755000Y-74386250D01*
X143995000Y-74266250D02*
X141755000Y-74266250D01*
X143995000Y-74146250D02*
X141755000Y-74146250D01*
X143995000Y-70746250D02*
X143995000Y-74986250D01*
X141755000Y-70746250D02*
X143995000Y-70746250D01*
X142875000Y-70096250D02*
X142875000Y-70746250D01*
G04 #@! TD*
%LPC*%
D12*
G04 #@! TO.C,D5*
X200025000Y-69056250D03*
D13*
X200025000Y-76676250D03*
G04 #@! TD*
D14*
G04 #@! TO.C,SW1*
X110331250Y-64135000D03*
X116681250Y-61595000D03*
D15*
X119221250Y-66675000D03*
D16*
X114141250Y-66675000D03*
D15*
X109061250Y-66675000D03*
G04 #@! TD*
D14*
G04 #@! TO.C,SW3*
X148590000Y-64135000D03*
X154940000Y-61595000D03*
D15*
X157480000Y-66675000D03*
D16*
X152400000Y-66675000D03*
D15*
X147320000Y-66675000D03*
G04 #@! TD*
D14*
G04 #@! TO.C,SW2*
X129540000Y-64135000D03*
X135890000Y-61595000D03*
D15*
X138430000Y-66675000D03*
D16*
X133350000Y-66675000D03*
D15*
X128270000Y-66675000D03*
G04 #@! TD*
D14*
G04 #@! TO.C,SW5*
X186690000Y-64135000D03*
X193040000Y-61595000D03*
D15*
X195580000Y-66675000D03*
D16*
X190500000Y-66675000D03*
D15*
X185420000Y-66675000D03*
G04 #@! TD*
D14*
G04 #@! TO.C,SW4*
X167640000Y-64135000D03*
X173990000Y-61595000D03*
D15*
X176530000Y-66675000D03*
D16*
X171450000Y-66675000D03*
D15*
X166370000Y-66675000D03*
G04 #@! TD*
D14*
G04 #@! TO.C,SW10*
X186690000Y-83185000D03*
X193040000Y-80645000D03*
D15*
X195580000Y-85725000D03*
D16*
X190500000Y-85725000D03*
D15*
X185420000Y-85725000D03*
G04 #@! TD*
D12*
G04 #@! TO.C,D1*
X123825000Y-69056250D03*
D13*
X123825000Y-76676250D03*
G04 #@! TD*
D17*
G04 #@! TO.C,U1*
X224313750Y-78105000D03*
X221773750Y-78105000D03*
X219233750Y-78105000D03*
X216693750Y-78105000D03*
X214153750Y-78105000D03*
X211613750Y-78105000D03*
X209073750Y-78105000D03*
X209073750Y-93345000D03*
X211613750Y-93345000D03*
X214153750Y-93345000D03*
X216693750Y-93345000D03*
X219233750Y-93345000D03*
X221773750Y-93345000D03*
X224313750Y-93345000D03*
G04 #@! TD*
D18*
G04 #@! TO.C,SW11*
X209193750Y-61793750D03*
D19*
X209193750Y-64293750D03*
X209193750Y-66793750D03*
D20*
X216693750Y-58693750D03*
X216693750Y-69893750D03*
D19*
X223693750Y-61793750D03*
X223693750Y-66793750D03*
G04 #@! TD*
D15*
G04 #@! TO.C,SW9*
X166370000Y-85725000D03*
D16*
X171450000Y-85725000D03*
D15*
X176530000Y-85725000D03*
D14*
X173990000Y-80645000D03*
X167640000Y-83185000D03*
G04 #@! TD*
D15*
G04 #@! TO.C,SW8*
X147320000Y-85725000D03*
D16*
X152400000Y-85725000D03*
D15*
X157480000Y-85725000D03*
D14*
X154940000Y-80645000D03*
X148590000Y-83185000D03*
G04 #@! TD*
D15*
G04 #@! TO.C,SW7*
X128270000Y-85725000D03*
D16*
X133350000Y-85725000D03*
D15*
X138430000Y-85725000D03*
D14*
X135890000Y-80645000D03*
X129540000Y-83185000D03*
G04 #@! TD*
D15*
G04 #@! TO.C,SW6*
X109220000Y-85725000D03*
D16*
X114300000Y-85725000D03*
D15*
X119380000Y-85725000D03*
D14*
X116840000Y-80645000D03*
X110490000Y-83185000D03*
G04 #@! TD*
D13*
G04 #@! TO.C,D10*
X200025000Y-93345000D03*
D12*
X200025000Y-85725000D03*
G04 #@! TD*
D13*
G04 #@! TO.C,D9*
X180975000Y-93345000D03*
D12*
X180975000Y-85725000D03*
G04 #@! TD*
D13*
G04 #@! TO.C,D8*
X161925000Y-93345000D03*
D12*
X161925000Y-85725000D03*
G04 #@! TD*
D13*
G04 #@! TO.C,D7*
X142875000Y-93345000D03*
D12*
X142875000Y-85725000D03*
G04 #@! TD*
D13*
G04 #@! TO.C,D6*
X123825000Y-93345000D03*
D12*
X123825000Y-85725000D03*
G04 #@! TD*
D13*
G04 #@! TO.C,D4*
X180975000Y-76676250D03*
D12*
X180975000Y-69056250D03*
G04 #@! TD*
D13*
G04 #@! TO.C,D3*
X161925000Y-76676250D03*
D12*
X161925000Y-69056250D03*
G04 #@! TD*
D13*
G04 #@! TO.C,D2*
X142875000Y-76676250D03*
D12*
X142875000Y-69056250D03*
G04 #@! TD*
%LPD*%
M02*
