G04 #@! TF.GenerationSoftware,KiCad,Pcbnew,9.0.1*
G04 #@! TF.CreationDate,2025-06-11T13:57:41-04:00*
G04 #@! TF.ProjectId,hackpad,6861636b-7061-4642-9e6b-696361645f70,rev?*
G04 #@! TF.SameCoordinates,Original*
G04 #@! TF.FileFunction,Soldermask,Bot*
G04 #@! TF.FilePolarity,Negative*
%FSLAX46Y46*%
G04 Gerber Fmt 4.6, Leading zero omitted, Abs format (unit mm)*
G04 Created by KiCad (PCBNEW 9.0.1) date 2025-06-11 13:57:41*
%MOMM*%
%LPD*%
G01*
G04 APERTURE LIST*
%ADD10O,1.600000X1.600000*%
%ADD11R,1.600000X1.600000*%
%ADD12C,2.200000*%
%ADD13C,1.700000*%
%ADD14C,4.000000*%
%ADD15C,1.524000*%
%ADD16R,2.000000X2.000000*%
%ADD17C,2.000000*%
%ADD18R,3.200000X2.000000*%
G04 APERTURE END LIST*
D10*
G04 #@! TO.C,D5*
X200025000Y-69056250D03*
D11*
X200025000Y-76676250D03*
G04 #@! TD*
D12*
G04 #@! TO.C,SW1*
X110331250Y-64135000D03*
X116681250Y-61595000D03*
D13*
X119221250Y-66675000D03*
D14*
X114141250Y-66675000D03*
D13*
X109061250Y-66675000D03*
G04 #@! TD*
D12*
G04 #@! TO.C,SW3*
X148590000Y-64135000D03*
X154940000Y-61595000D03*
D13*
X157480000Y-66675000D03*
D14*
X152400000Y-66675000D03*
D13*
X147320000Y-66675000D03*
G04 #@! TD*
D12*
G04 #@! TO.C,SW2*
X129540000Y-64135000D03*
X135890000Y-61595000D03*
D13*
X138430000Y-66675000D03*
D14*
X133350000Y-66675000D03*
D13*
X128270000Y-66675000D03*
G04 #@! TD*
D12*
G04 #@! TO.C,SW5*
X186690000Y-64135000D03*
X193040000Y-61595000D03*
D13*
X195580000Y-66675000D03*
D14*
X190500000Y-66675000D03*
D13*
X185420000Y-66675000D03*
G04 #@! TD*
D12*
G04 #@! TO.C,SW4*
X167640000Y-64135000D03*
X173990000Y-61595000D03*
D13*
X176530000Y-66675000D03*
D14*
X171450000Y-66675000D03*
D13*
X166370000Y-66675000D03*
G04 #@! TD*
D12*
G04 #@! TO.C,SW10*
X186690000Y-83185000D03*
X193040000Y-80645000D03*
D13*
X195580000Y-85725000D03*
D14*
X190500000Y-85725000D03*
D13*
X185420000Y-85725000D03*
G04 #@! TD*
D10*
G04 #@! TO.C,D1*
X123825000Y-69056250D03*
D11*
X123825000Y-76676250D03*
G04 #@! TD*
D15*
G04 #@! TO.C,U1*
X224313750Y-78105000D03*
X221773750Y-78105000D03*
X219233750Y-78105000D03*
X216693750Y-78105000D03*
X214153750Y-78105000D03*
X211613750Y-78105000D03*
X209073750Y-78105000D03*
X209073750Y-93345000D03*
X211613750Y-93345000D03*
X214153750Y-93345000D03*
X216693750Y-93345000D03*
X219233750Y-93345000D03*
X221773750Y-93345000D03*
X224313750Y-93345000D03*
G04 #@! TD*
D16*
G04 #@! TO.C,SW11*
X209193750Y-61793750D03*
D17*
X209193750Y-64293750D03*
X209193750Y-66793750D03*
D18*
X216693750Y-58693750D03*
X216693750Y-69893750D03*
D17*
X223693750Y-61793750D03*
X223693750Y-66793750D03*
G04 #@! TD*
D13*
G04 #@! TO.C,SW9*
X166370000Y-85725000D03*
D14*
X171450000Y-85725000D03*
D13*
X176530000Y-85725000D03*
D12*
X173990000Y-80645000D03*
X167640000Y-83185000D03*
G04 #@! TD*
D13*
G04 #@! TO.C,SW8*
X147320000Y-85725000D03*
D14*
X152400000Y-85725000D03*
D13*
X157480000Y-85725000D03*
D12*
X154940000Y-80645000D03*
X148590000Y-83185000D03*
G04 #@! TD*
D13*
G04 #@! TO.C,SW7*
X128270000Y-85725000D03*
D14*
X133350000Y-85725000D03*
D13*
X138430000Y-85725000D03*
D12*
X135890000Y-80645000D03*
X129540000Y-83185000D03*
G04 #@! TD*
D13*
G04 #@! TO.C,SW6*
X109220000Y-85725000D03*
D14*
X114300000Y-85725000D03*
D13*
X119380000Y-85725000D03*
D12*
X116840000Y-80645000D03*
X110490000Y-83185000D03*
G04 #@! TD*
D11*
G04 #@! TO.C,D10*
X200025000Y-93345000D03*
D10*
X200025000Y-85725000D03*
G04 #@! TD*
D11*
G04 #@! TO.C,D9*
X180975000Y-93345000D03*
D10*
X180975000Y-85725000D03*
G04 #@! TD*
D11*
G04 #@! TO.C,D8*
X161925000Y-93345000D03*
D10*
X161925000Y-85725000D03*
G04 #@! TD*
D11*
G04 #@! TO.C,D7*
X142875000Y-93345000D03*
D10*
X142875000Y-85725000D03*
G04 #@! TD*
D11*
G04 #@! TO.C,D6*
X123825000Y-93345000D03*
D10*
X123825000Y-85725000D03*
G04 #@! TD*
D11*
G04 #@! TO.C,D4*
X180975000Y-76676250D03*
D10*
X180975000Y-69056250D03*
G04 #@! TD*
D11*
G04 #@! TO.C,D3*
X161925000Y-76676250D03*
D10*
X161925000Y-69056250D03*
G04 #@! TD*
D11*
G04 #@! TO.C,D2*
X142875000Y-76676250D03*
D10*
X142875000Y-69056250D03*
G04 #@! TD*
M02*
