G04 #@! TF.GenerationSoftware,KiCad,Pcbnew,9.0.1*
G04 #@! TF.CreationDate,2025-06-11T13:57:41-04:00*
G04 #@! TF.ProjectId,hackpad,6861636b-7061-4642-9e6b-696361645f70,rev?*
G04 #@! TF.SameCoordinates,Original*
G04 #@! TF.FileFunction,Legend,Top*
G04 #@! TF.FilePolarity,Positive*
%FSLAX46Y46*%
G04 Gerber Fmt 4.6, Leading zero omitted, Abs format (unit mm)*
G04 Created by KiCad (PCBNEW 9.0.1) date 2025-06-11 13:57:41*
%MOMM*%
%LPD*%
G01*
G04 APERTURE LIST*
G04 Aperture macros list*
%AMRoundRect*
0 Rectangle with rounded corners*
0 $1 Rounding radius*
0 $2 $3 $4 $5 $6 $7 $8 $9 X,Y pos of 4 corners*
0 Add a 4 corners polygon primitive as box body*
4,1,4,$2,$3,$4,$5,$6,$7,$8,$9,$2,$3,0*
0 Add four circle primitives for the rounded corners*
1,1,$1+$1,$2,$3*
1,1,$1+$1,$4,$5*
1,1,$1+$1,$6,$7*
1,1,$1+$1,$8,$9*
0 Add four rect primitives between the rounded corners*
20,1,$1+$1,$2,$3,$4,$5,0*
20,1,$1+$1,$4,$5,$6,$7,0*
20,1,$1+$1,$6,$7,$8,$9,0*
20,1,$1+$1,$8,$9,$2,$3,0*%
G04 Aperture macros list end*
%ADD10C,0.150000*%
%ADD11C,0.101600*%
%ADD12C,0.120000*%
%ADD13C,0.127000*%
%ADD14C,0.100000*%
%ADD15C,0.504000*%
%ADD16O,1.600000X1.600000*%
%ADD17R,1.600000X1.600000*%
%ADD18C,2.200000*%
%ADD19C,1.700000*%
%ADD20C,4.000000*%
%ADD21RoundRect,0.152400X0.609600X-1.063600X0.609600X1.063600X-0.609600X1.063600X-0.609600X-1.063600X0*%
%ADD22C,1.524000*%
%ADD23RoundRect,0.152400X-0.609600X1.063600X-0.609600X-1.063600X0.609600X-1.063600X0.609600X1.063600X0*%
%ADD24R,2.000000X2.000000*%
%ADD25C,2.000000*%
%ADD26R,3.200000X2.000000*%
G04 APERTURE END LIST*
D10*
X112807917Y-59208200D02*
X112950774Y-59255819D01*
X112950774Y-59255819D02*
X113188869Y-59255819D01*
X113188869Y-59255819D02*
X113284107Y-59208200D01*
X113284107Y-59208200D02*
X113331726Y-59160580D01*
X113331726Y-59160580D02*
X113379345Y-59065342D01*
X113379345Y-59065342D02*
X113379345Y-58970104D01*
X113379345Y-58970104D02*
X113331726Y-58874866D01*
X113331726Y-58874866D02*
X113284107Y-58827247D01*
X113284107Y-58827247D02*
X113188869Y-58779628D01*
X113188869Y-58779628D02*
X112998393Y-58732009D01*
X112998393Y-58732009D02*
X112903155Y-58684390D01*
X112903155Y-58684390D02*
X112855536Y-58636771D01*
X112855536Y-58636771D02*
X112807917Y-58541533D01*
X112807917Y-58541533D02*
X112807917Y-58446295D01*
X112807917Y-58446295D02*
X112855536Y-58351057D01*
X112855536Y-58351057D02*
X112903155Y-58303438D01*
X112903155Y-58303438D02*
X112998393Y-58255819D01*
X112998393Y-58255819D02*
X113236488Y-58255819D01*
X113236488Y-58255819D02*
X113379345Y-58303438D01*
X113712679Y-58255819D02*
X113950774Y-59255819D01*
X113950774Y-59255819D02*
X114141250Y-58541533D01*
X114141250Y-58541533D02*
X114331726Y-59255819D01*
X114331726Y-59255819D02*
X114569822Y-58255819D01*
X115474583Y-59255819D02*
X114903155Y-59255819D01*
X115188869Y-59255819D02*
X115188869Y-58255819D01*
X115188869Y-58255819D02*
X115093631Y-58398676D01*
X115093631Y-58398676D02*
X114998393Y-58493914D01*
X114998393Y-58493914D02*
X114903155Y-58541533D01*
X151066667Y-59208200D02*
X151209524Y-59255819D01*
X151209524Y-59255819D02*
X151447619Y-59255819D01*
X151447619Y-59255819D02*
X151542857Y-59208200D01*
X151542857Y-59208200D02*
X151590476Y-59160580D01*
X151590476Y-59160580D02*
X151638095Y-59065342D01*
X151638095Y-59065342D02*
X151638095Y-58970104D01*
X151638095Y-58970104D02*
X151590476Y-58874866D01*
X151590476Y-58874866D02*
X151542857Y-58827247D01*
X151542857Y-58827247D02*
X151447619Y-58779628D01*
X151447619Y-58779628D02*
X151257143Y-58732009D01*
X151257143Y-58732009D02*
X151161905Y-58684390D01*
X151161905Y-58684390D02*
X151114286Y-58636771D01*
X151114286Y-58636771D02*
X151066667Y-58541533D01*
X151066667Y-58541533D02*
X151066667Y-58446295D01*
X151066667Y-58446295D02*
X151114286Y-58351057D01*
X151114286Y-58351057D02*
X151161905Y-58303438D01*
X151161905Y-58303438D02*
X151257143Y-58255819D01*
X151257143Y-58255819D02*
X151495238Y-58255819D01*
X151495238Y-58255819D02*
X151638095Y-58303438D01*
X151971429Y-58255819D02*
X152209524Y-59255819D01*
X152209524Y-59255819D02*
X152400000Y-58541533D01*
X152400000Y-58541533D02*
X152590476Y-59255819D01*
X152590476Y-59255819D02*
X152828572Y-58255819D01*
X153114286Y-58255819D02*
X153733333Y-58255819D01*
X153733333Y-58255819D02*
X153400000Y-58636771D01*
X153400000Y-58636771D02*
X153542857Y-58636771D01*
X153542857Y-58636771D02*
X153638095Y-58684390D01*
X153638095Y-58684390D02*
X153685714Y-58732009D01*
X153685714Y-58732009D02*
X153733333Y-58827247D01*
X153733333Y-58827247D02*
X153733333Y-59065342D01*
X153733333Y-59065342D02*
X153685714Y-59160580D01*
X153685714Y-59160580D02*
X153638095Y-59208200D01*
X153638095Y-59208200D02*
X153542857Y-59255819D01*
X153542857Y-59255819D02*
X153257143Y-59255819D01*
X153257143Y-59255819D02*
X153161905Y-59208200D01*
X153161905Y-59208200D02*
X153114286Y-59160580D01*
X132016667Y-59208200D02*
X132159524Y-59255819D01*
X132159524Y-59255819D02*
X132397619Y-59255819D01*
X132397619Y-59255819D02*
X132492857Y-59208200D01*
X132492857Y-59208200D02*
X132540476Y-59160580D01*
X132540476Y-59160580D02*
X132588095Y-59065342D01*
X132588095Y-59065342D02*
X132588095Y-58970104D01*
X132588095Y-58970104D02*
X132540476Y-58874866D01*
X132540476Y-58874866D02*
X132492857Y-58827247D01*
X132492857Y-58827247D02*
X132397619Y-58779628D01*
X132397619Y-58779628D02*
X132207143Y-58732009D01*
X132207143Y-58732009D02*
X132111905Y-58684390D01*
X132111905Y-58684390D02*
X132064286Y-58636771D01*
X132064286Y-58636771D02*
X132016667Y-58541533D01*
X132016667Y-58541533D02*
X132016667Y-58446295D01*
X132016667Y-58446295D02*
X132064286Y-58351057D01*
X132064286Y-58351057D02*
X132111905Y-58303438D01*
X132111905Y-58303438D02*
X132207143Y-58255819D01*
X132207143Y-58255819D02*
X132445238Y-58255819D01*
X132445238Y-58255819D02*
X132588095Y-58303438D01*
X132921429Y-58255819D02*
X133159524Y-59255819D01*
X133159524Y-59255819D02*
X133350000Y-58541533D01*
X133350000Y-58541533D02*
X133540476Y-59255819D01*
X133540476Y-59255819D02*
X133778572Y-58255819D01*
X134111905Y-58351057D02*
X134159524Y-58303438D01*
X134159524Y-58303438D02*
X134254762Y-58255819D01*
X134254762Y-58255819D02*
X134492857Y-58255819D01*
X134492857Y-58255819D02*
X134588095Y-58303438D01*
X134588095Y-58303438D02*
X134635714Y-58351057D01*
X134635714Y-58351057D02*
X134683333Y-58446295D01*
X134683333Y-58446295D02*
X134683333Y-58541533D01*
X134683333Y-58541533D02*
X134635714Y-58684390D01*
X134635714Y-58684390D02*
X134064286Y-59255819D01*
X134064286Y-59255819D02*
X134683333Y-59255819D01*
X189166667Y-59208200D02*
X189309524Y-59255819D01*
X189309524Y-59255819D02*
X189547619Y-59255819D01*
X189547619Y-59255819D02*
X189642857Y-59208200D01*
X189642857Y-59208200D02*
X189690476Y-59160580D01*
X189690476Y-59160580D02*
X189738095Y-59065342D01*
X189738095Y-59065342D02*
X189738095Y-58970104D01*
X189738095Y-58970104D02*
X189690476Y-58874866D01*
X189690476Y-58874866D02*
X189642857Y-58827247D01*
X189642857Y-58827247D02*
X189547619Y-58779628D01*
X189547619Y-58779628D02*
X189357143Y-58732009D01*
X189357143Y-58732009D02*
X189261905Y-58684390D01*
X189261905Y-58684390D02*
X189214286Y-58636771D01*
X189214286Y-58636771D02*
X189166667Y-58541533D01*
X189166667Y-58541533D02*
X189166667Y-58446295D01*
X189166667Y-58446295D02*
X189214286Y-58351057D01*
X189214286Y-58351057D02*
X189261905Y-58303438D01*
X189261905Y-58303438D02*
X189357143Y-58255819D01*
X189357143Y-58255819D02*
X189595238Y-58255819D01*
X189595238Y-58255819D02*
X189738095Y-58303438D01*
X190071429Y-58255819D02*
X190309524Y-59255819D01*
X190309524Y-59255819D02*
X190500000Y-58541533D01*
X190500000Y-58541533D02*
X190690476Y-59255819D01*
X190690476Y-59255819D02*
X190928572Y-58255819D01*
X191785714Y-58255819D02*
X191309524Y-58255819D01*
X191309524Y-58255819D02*
X191261905Y-58732009D01*
X191261905Y-58732009D02*
X191309524Y-58684390D01*
X191309524Y-58684390D02*
X191404762Y-58636771D01*
X191404762Y-58636771D02*
X191642857Y-58636771D01*
X191642857Y-58636771D02*
X191738095Y-58684390D01*
X191738095Y-58684390D02*
X191785714Y-58732009D01*
X191785714Y-58732009D02*
X191833333Y-58827247D01*
X191833333Y-58827247D02*
X191833333Y-59065342D01*
X191833333Y-59065342D02*
X191785714Y-59160580D01*
X191785714Y-59160580D02*
X191738095Y-59208200D01*
X191738095Y-59208200D02*
X191642857Y-59255819D01*
X191642857Y-59255819D02*
X191404762Y-59255819D01*
X191404762Y-59255819D02*
X191309524Y-59208200D01*
X191309524Y-59208200D02*
X191261905Y-59160580D01*
X170116667Y-59208200D02*
X170259524Y-59255819D01*
X170259524Y-59255819D02*
X170497619Y-59255819D01*
X170497619Y-59255819D02*
X170592857Y-59208200D01*
X170592857Y-59208200D02*
X170640476Y-59160580D01*
X170640476Y-59160580D02*
X170688095Y-59065342D01*
X170688095Y-59065342D02*
X170688095Y-58970104D01*
X170688095Y-58970104D02*
X170640476Y-58874866D01*
X170640476Y-58874866D02*
X170592857Y-58827247D01*
X170592857Y-58827247D02*
X170497619Y-58779628D01*
X170497619Y-58779628D02*
X170307143Y-58732009D01*
X170307143Y-58732009D02*
X170211905Y-58684390D01*
X170211905Y-58684390D02*
X170164286Y-58636771D01*
X170164286Y-58636771D02*
X170116667Y-58541533D01*
X170116667Y-58541533D02*
X170116667Y-58446295D01*
X170116667Y-58446295D02*
X170164286Y-58351057D01*
X170164286Y-58351057D02*
X170211905Y-58303438D01*
X170211905Y-58303438D02*
X170307143Y-58255819D01*
X170307143Y-58255819D02*
X170545238Y-58255819D01*
X170545238Y-58255819D02*
X170688095Y-58303438D01*
X171021429Y-58255819D02*
X171259524Y-59255819D01*
X171259524Y-59255819D02*
X171450000Y-58541533D01*
X171450000Y-58541533D02*
X171640476Y-59255819D01*
X171640476Y-59255819D02*
X171878572Y-58255819D01*
X172688095Y-58589152D02*
X172688095Y-59255819D01*
X172450000Y-58208200D02*
X172211905Y-58922485D01*
X172211905Y-58922485D02*
X172830952Y-58922485D01*
X188690476Y-78258200D02*
X188833333Y-78305819D01*
X188833333Y-78305819D02*
X189071428Y-78305819D01*
X189071428Y-78305819D02*
X189166666Y-78258200D01*
X189166666Y-78258200D02*
X189214285Y-78210580D01*
X189214285Y-78210580D02*
X189261904Y-78115342D01*
X189261904Y-78115342D02*
X189261904Y-78020104D01*
X189261904Y-78020104D02*
X189214285Y-77924866D01*
X189214285Y-77924866D02*
X189166666Y-77877247D01*
X189166666Y-77877247D02*
X189071428Y-77829628D01*
X189071428Y-77829628D02*
X188880952Y-77782009D01*
X188880952Y-77782009D02*
X188785714Y-77734390D01*
X188785714Y-77734390D02*
X188738095Y-77686771D01*
X188738095Y-77686771D02*
X188690476Y-77591533D01*
X188690476Y-77591533D02*
X188690476Y-77496295D01*
X188690476Y-77496295D02*
X188738095Y-77401057D01*
X188738095Y-77401057D02*
X188785714Y-77353438D01*
X188785714Y-77353438D02*
X188880952Y-77305819D01*
X188880952Y-77305819D02*
X189119047Y-77305819D01*
X189119047Y-77305819D02*
X189261904Y-77353438D01*
X189595238Y-77305819D02*
X189833333Y-78305819D01*
X189833333Y-78305819D02*
X190023809Y-77591533D01*
X190023809Y-77591533D02*
X190214285Y-78305819D01*
X190214285Y-78305819D02*
X190452381Y-77305819D01*
X191357142Y-78305819D02*
X190785714Y-78305819D01*
X191071428Y-78305819D02*
X191071428Y-77305819D01*
X191071428Y-77305819D02*
X190976190Y-77448676D01*
X190976190Y-77448676D02*
X190880952Y-77543914D01*
X190880952Y-77543914D02*
X190785714Y-77591533D01*
X191976190Y-77305819D02*
X192071428Y-77305819D01*
X192071428Y-77305819D02*
X192166666Y-77353438D01*
X192166666Y-77353438D02*
X192214285Y-77401057D01*
X192214285Y-77401057D02*
X192261904Y-77496295D01*
X192261904Y-77496295D02*
X192309523Y-77686771D01*
X192309523Y-77686771D02*
X192309523Y-77924866D01*
X192309523Y-77924866D02*
X192261904Y-78115342D01*
X192261904Y-78115342D02*
X192214285Y-78210580D01*
X192214285Y-78210580D02*
X192166666Y-78258200D01*
X192166666Y-78258200D02*
X192071428Y-78305819D01*
X192071428Y-78305819D02*
X191976190Y-78305819D01*
X191976190Y-78305819D02*
X191880952Y-78258200D01*
X191880952Y-78258200D02*
X191833333Y-78210580D01*
X191833333Y-78210580D02*
X191785714Y-78115342D01*
X191785714Y-78115342D02*
X191738095Y-77924866D01*
X191738095Y-77924866D02*
X191738095Y-77686771D01*
X191738095Y-77686771D02*
X191785714Y-77496295D01*
X191785714Y-77496295D02*
X191833333Y-77401057D01*
X191833333Y-77401057D02*
X191880952Y-77353438D01*
X191880952Y-77353438D02*
X191976190Y-77305819D01*
D11*
X214659020Y-85241190D02*
X214144973Y-85241190D01*
X214144973Y-85241190D02*
X214084497Y-85271428D01*
X214084497Y-85271428D02*
X214054259Y-85301666D01*
X214054259Y-85301666D02*
X214024020Y-85362142D01*
X214024020Y-85362142D02*
X214024020Y-85483095D01*
X214024020Y-85483095D02*
X214054259Y-85543571D01*
X214054259Y-85543571D02*
X214084497Y-85573809D01*
X214084497Y-85573809D02*
X214144973Y-85604047D01*
X214144973Y-85604047D02*
X214659020Y-85604047D01*
X214024020Y-86239047D02*
X214024020Y-85876190D01*
X214024020Y-86057618D02*
X214659020Y-86057618D01*
X214659020Y-86057618D02*
X214568306Y-85997142D01*
X214568306Y-85997142D02*
X214507830Y-85936666D01*
X214507830Y-85936666D02*
X214477592Y-85876190D01*
D10*
X174465476Y-76550950D02*
X174608333Y-76598569D01*
X174608333Y-76598569D02*
X174846428Y-76598569D01*
X174846428Y-76598569D02*
X174941666Y-76550950D01*
X174941666Y-76550950D02*
X174989285Y-76503330D01*
X174989285Y-76503330D02*
X175036904Y-76408092D01*
X175036904Y-76408092D02*
X175036904Y-76312854D01*
X175036904Y-76312854D02*
X174989285Y-76217616D01*
X174989285Y-76217616D02*
X174941666Y-76169997D01*
X174941666Y-76169997D02*
X174846428Y-76122378D01*
X174846428Y-76122378D02*
X174655952Y-76074759D01*
X174655952Y-76074759D02*
X174560714Y-76027140D01*
X174560714Y-76027140D02*
X174513095Y-75979521D01*
X174513095Y-75979521D02*
X174465476Y-75884283D01*
X174465476Y-75884283D02*
X174465476Y-75789045D01*
X174465476Y-75789045D02*
X174513095Y-75693807D01*
X174513095Y-75693807D02*
X174560714Y-75646188D01*
X174560714Y-75646188D02*
X174655952Y-75598569D01*
X174655952Y-75598569D02*
X174894047Y-75598569D01*
X174894047Y-75598569D02*
X175036904Y-75646188D01*
X175370238Y-75598569D02*
X175608333Y-76598569D01*
X175608333Y-76598569D02*
X175798809Y-75884283D01*
X175798809Y-75884283D02*
X175989285Y-76598569D01*
X175989285Y-76598569D02*
X176227381Y-75598569D01*
X177132142Y-76598569D02*
X176560714Y-76598569D01*
X176846428Y-76598569D02*
X176846428Y-75598569D01*
X176846428Y-75598569D02*
X176751190Y-75741426D01*
X176751190Y-75741426D02*
X176655952Y-75836664D01*
X176655952Y-75836664D02*
X176560714Y-75884283D01*
X178084523Y-76598569D02*
X177513095Y-76598569D01*
X177798809Y-76598569D02*
X177798809Y-75598569D01*
X177798809Y-75598569D02*
X177703571Y-75741426D01*
X177703571Y-75741426D02*
X177608333Y-75836664D01*
X177608333Y-75836664D02*
X177513095Y-75884283D01*
X170116667Y-78258200D02*
X170259524Y-78305819D01*
X170259524Y-78305819D02*
X170497619Y-78305819D01*
X170497619Y-78305819D02*
X170592857Y-78258200D01*
X170592857Y-78258200D02*
X170640476Y-78210580D01*
X170640476Y-78210580D02*
X170688095Y-78115342D01*
X170688095Y-78115342D02*
X170688095Y-78020104D01*
X170688095Y-78020104D02*
X170640476Y-77924866D01*
X170640476Y-77924866D02*
X170592857Y-77877247D01*
X170592857Y-77877247D02*
X170497619Y-77829628D01*
X170497619Y-77829628D02*
X170307143Y-77782009D01*
X170307143Y-77782009D02*
X170211905Y-77734390D01*
X170211905Y-77734390D02*
X170164286Y-77686771D01*
X170164286Y-77686771D02*
X170116667Y-77591533D01*
X170116667Y-77591533D02*
X170116667Y-77496295D01*
X170116667Y-77496295D02*
X170164286Y-77401057D01*
X170164286Y-77401057D02*
X170211905Y-77353438D01*
X170211905Y-77353438D02*
X170307143Y-77305819D01*
X170307143Y-77305819D02*
X170545238Y-77305819D01*
X170545238Y-77305819D02*
X170688095Y-77353438D01*
X171021429Y-77305819D02*
X171259524Y-78305819D01*
X171259524Y-78305819D02*
X171450000Y-77591533D01*
X171450000Y-77591533D02*
X171640476Y-78305819D01*
X171640476Y-78305819D02*
X171878572Y-77305819D01*
X172307143Y-78305819D02*
X172497619Y-78305819D01*
X172497619Y-78305819D02*
X172592857Y-78258200D01*
X172592857Y-78258200D02*
X172640476Y-78210580D01*
X172640476Y-78210580D02*
X172735714Y-78067723D01*
X172735714Y-78067723D02*
X172783333Y-77877247D01*
X172783333Y-77877247D02*
X172783333Y-77496295D01*
X172783333Y-77496295D02*
X172735714Y-77401057D01*
X172735714Y-77401057D02*
X172688095Y-77353438D01*
X172688095Y-77353438D02*
X172592857Y-77305819D01*
X172592857Y-77305819D02*
X172402381Y-77305819D01*
X172402381Y-77305819D02*
X172307143Y-77353438D01*
X172307143Y-77353438D02*
X172259524Y-77401057D01*
X172259524Y-77401057D02*
X172211905Y-77496295D01*
X172211905Y-77496295D02*
X172211905Y-77734390D01*
X172211905Y-77734390D02*
X172259524Y-77829628D01*
X172259524Y-77829628D02*
X172307143Y-77877247D01*
X172307143Y-77877247D02*
X172402381Y-77924866D01*
X172402381Y-77924866D02*
X172592857Y-77924866D01*
X172592857Y-77924866D02*
X172688095Y-77877247D01*
X172688095Y-77877247D02*
X172735714Y-77829628D01*
X172735714Y-77829628D02*
X172783333Y-77734390D01*
X151066667Y-78258200D02*
X151209524Y-78305819D01*
X151209524Y-78305819D02*
X151447619Y-78305819D01*
X151447619Y-78305819D02*
X151542857Y-78258200D01*
X151542857Y-78258200D02*
X151590476Y-78210580D01*
X151590476Y-78210580D02*
X151638095Y-78115342D01*
X151638095Y-78115342D02*
X151638095Y-78020104D01*
X151638095Y-78020104D02*
X151590476Y-77924866D01*
X151590476Y-77924866D02*
X151542857Y-77877247D01*
X151542857Y-77877247D02*
X151447619Y-77829628D01*
X151447619Y-77829628D02*
X151257143Y-77782009D01*
X151257143Y-77782009D02*
X151161905Y-77734390D01*
X151161905Y-77734390D02*
X151114286Y-77686771D01*
X151114286Y-77686771D02*
X151066667Y-77591533D01*
X151066667Y-77591533D02*
X151066667Y-77496295D01*
X151066667Y-77496295D02*
X151114286Y-77401057D01*
X151114286Y-77401057D02*
X151161905Y-77353438D01*
X151161905Y-77353438D02*
X151257143Y-77305819D01*
X151257143Y-77305819D02*
X151495238Y-77305819D01*
X151495238Y-77305819D02*
X151638095Y-77353438D01*
X151971429Y-77305819D02*
X152209524Y-78305819D01*
X152209524Y-78305819D02*
X152400000Y-77591533D01*
X152400000Y-77591533D02*
X152590476Y-78305819D01*
X152590476Y-78305819D02*
X152828572Y-77305819D01*
X153352381Y-77734390D02*
X153257143Y-77686771D01*
X153257143Y-77686771D02*
X153209524Y-77639152D01*
X153209524Y-77639152D02*
X153161905Y-77543914D01*
X153161905Y-77543914D02*
X153161905Y-77496295D01*
X153161905Y-77496295D02*
X153209524Y-77401057D01*
X153209524Y-77401057D02*
X153257143Y-77353438D01*
X153257143Y-77353438D02*
X153352381Y-77305819D01*
X153352381Y-77305819D02*
X153542857Y-77305819D01*
X153542857Y-77305819D02*
X153638095Y-77353438D01*
X153638095Y-77353438D02*
X153685714Y-77401057D01*
X153685714Y-77401057D02*
X153733333Y-77496295D01*
X153733333Y-77496295D02*
X153733333Y-77543914D01*
X153733333Y-77543914D02*
X153685714Y-77639152D01*
X153685714Y-77639152D02*
X153638095Y-77686771D01*
X153638095Y-77686771D02*
X153542857Y-77734390D01*
X153542857Y-77734390D02*
X153352381Y-77734390D01*
X153352381Y-77734390D02*
X153257143Y-77782009D01*
X153257143Y-77782009D02*
X153209524Y-77829628D01*
X153209524Y-77829628D02*
X153161905Y-77924866D01*
X153161905Y-77924866D02*
X153161905Y-78115342D01*
X153161905Y-78115342D02*
X153209524Y-78210580D01*
X153209524Y-78210580D02*
X153257143Y-78258200D01*
X153257143Y-78258200D02*
X153352381Y-78305819D01*
X153352381Y-78305819D02*
X153542857Y-78305819D01*
X153542857Y-78305819D02*
X153638095Y-78258200D01*
X153638095Y-78258200D02*
X153685714Y-78210580D01*
X153685714Y-78210580D02*
X153733333Y-78115342D01*
X153733333Y-78115342D02*
X153733333Y-77924866D01*
X153733333Y-77924866D02*
X153685714Y-77829628D01*
X153685714Y-77829628D02*
X153638095Y-77782009D01*
X153638095Y-77782009D02*
X153542857Y-77734390D01*
X132016667Y-78258200D02*
X132159524Y-78305819D01*
X132159524Y-78305819D02*
X132397619Y-78305819D01*
X132397619Y-78305819D02*
X132492857Y-78258200D01*
X132492857Y-78258200D02*
X132540476Y-78210580D01*
X132540476Y-78210580D02*
X132588095Y-78115342D01*
X132588095Y-78115342D02*
X132588095Y-78020104D01*
X132588095Y-78020104D02*
X132540476Y-77924866D01*
X132540476Y-77924866D02*
X132492857Y-77877247D01*
X132492857Y-77877247D02*
X132397619Y-77829628D01*
X132397619Y-77829628D02*
X132207143Y-77782009D01*
X132207143Y-77782009D02*
X132111905Y-77734390D01*
X132111905Y-77734390D02*
X132064286Y-77686771D01*
X132064286Y-77686771D02*
X132016667Y-77591533D01*
X132016667Y-77591533D02*
X132016667Y-77496295D01*
X132016667Y-77496295D02*
X132064286Y-77401057D01*
X132064286Y-77401057D02*
X132111905Y-77353438D01*
X132111905Y-77353438D02*
X132207143Y-77305819D01*
X132207143Y-77305819D02*
X132445238Y-77305819D01*
X132445238Y-77305819D02*
X132588095Y-77353438D01*
X132921429Y-77305819D02*
X133159524Y-78305819D01*
X133159524Y-78305819D02*
X133350000Y-77591533D01*
X133350000Y-77591533D02*
X133540476Y-78305819D01*
X133540476Y-78305819D02*
X133778572Y-77305819D01*
X134064286Y-77305819D02*
X134730952Y-77305819D01*
X134730952Y-77305819D02*
X134302381Y-78305819D01*
X112966667Y-78258200D02*
X113109524Y-78305819D01*
X113109524Y-78305819D02*
X113347619Y-78305819D01*
X113347619Y-78305819D02*
X113442857Y-78258200D01*
X113442857Y-78258200D02*
X113490476Y-78210580D01*
X113490476Y-78210580D02*
X113538095Y-78115342D01*
X113538095Y-78115342D02*
X113538095Y-78020104D01*
X113538095Y-78020104D02*
X113490476Y-77924866D01*
X113490476Y-77924866D02*
X113442857Y-77877247D01*
X113442857Y-77877247D02*
X113347619Y-77829628D01*
X113347619Y-77829628D02*
X113157143Y-77782009D01*
X113157143Y-77782009D02*
X113061905Y-77734390D01*
X113061905Y-77734390D02*
X113014286Y-77686771D01*
X113014286Y-77686771D02*
X112966667Y-77591533D01*
X112966667Y-77591533D02*
X112966667Y-77496295D01*
X112966667Y-77496295D02*
X113014286Y-77401057D01*
X113014286Y-77401057D02*
X113061905Y-77353438D01*
X113061905Y-77353438D02*
X113157143Y-77305819D01*
X113157143Y-77305819D02*
X113395238Y-77305819D01*
X113395238Y-77305819D02*
X113538095Y-77353438D01*
X113871429Y-77305819D02*
X114109524Y-78305819D01*
X114109524Y-78305819D02*
X114300000Y-77591533D01*
X114300000Y-77591533D02*
X114490476Y-78305819D01*
X114490476Y-78305819D02*
X114728572Y-77305819D01*
X115538095Y-77305819D02*
X115347619Y-77305819D01*
X115347619Y-77305819D02*
X115252381Y-77353438D01*
X115252381Y-77353438D02*
X115204762Y-77401057D01*
X115204762Y-77401057D02*
X115109524Y-77543914D01*
X115109524Y-77543914D02*
X115061905Y-77734390D01*
X115061905Y-77734390D02*
X115061905Y-78115342D01*
X115061905Y-78115342D02*
X115109524Y-78210580D01*
X115109524Y-78210580D02*
X115157143Y-78258200D01*
X115157143Y-78258200D02*
X115252381Y-78305819D01*
X115252381Y-78305819D02*
X115442857Y-78305819D01*
X115442857Y-78305819D02*
X115538095Y-78258200D01*
X115538095Y-78258200D02*
X115585714Y-78210580D01*
X115585714Y-78210580D02*
X115633333Y-78115342D01*
X115633333Y-78115342D02*
X115633333Y-77877247D01*
X115633333Y-77877247D02*
X115585714Y-77782009D01*
X115585714Y-77782009D02*
X115538095Y-77734390D01*
X115538095Y-77734390D02*
X115442857Y-77686771D01*
X115442857Y-77686771D02*
X115252381Y-77686771D01*
X115252381Y-77686771D02*
X115157143Y-77734390D01*
X115157143Y-77734390D02*
X115109524Y-77782009D01*
X115109524Y-77782009D02*
X115061905Y-77877247D01*
D12*
G04 #@! TO.C,SW1*
X121126250Y-73660000D02*
X107156250Y-73660000D01*
X121126250Y-59690000D02*
X121126250Y-73660000D01*
X107156250Y-73660000D02*
X107156250Y-59690000D01*
X107156250Y-59690000D02*
X121126250Y-59690000D01*
G04 #@! TO.C,SW3*
X159385000Y-73660000D02*
X145415000Y-73660000D01*
X159385000Y-59690000D02*
X159385000Y-73660000D01*
X145415000Y-73660000D02*
X145415000Y-59690000D01*
X145415000Y-59690000D02*
X159385000Y-59690000D01*
G04 #@! TO.C,SW2*
X140335000Y-73660000D02*
X126365000Y-73660000D01*
X140335000Y-59690000D02*
X140335000Y-73660000D01*
X126365000Y-73660000D02*
X126365000Y-59690000D01*
X126365000Y-59690000D02*
X140335000Y-59690000D01*
G04 #@! TO.C,SW5*
X197485000Y-73660000D02*
X183515000Y-73660000D01*
X197485000Y-59690000D02*
X197485000Y-73660000D01*
X183515000Y-73660000D02*
X183515000Y-59690000D01*
X183515000Y-59690000D02*
X197485000Y-59690000D01*
G04 #@! TO.C,SW4*
X178435000Y-73660000D02*
X164465000Y-73660000D01*
X178435000Y-59690000D02*
X178435000Y-73660000D01*
X164465000Y-73660000D02*
X164465000Y-59690000D01*
X164465000Y-59690000D02*
X178435000Y-59690000D01*
G04 #@! TO.C,SW10*
X197485000Y-92710000D02*
X183515000Y-92710000D01*
X197485000Y-78740000D02*
X197485000Y-92710000D01*
X183515000Y-92710000D02*
X183515000Y-78740000D01*
X183515000Y-78740000D02*
X197485000Y-78740000D01*
D13*
G04 #@! TO.C,U1*
X208184750Y-76835000D02*
X225329750Y-76835000D01*
X206279750Y-78740000D02*
X206279750Y-92710000D01*
X227234750Y-81230000D02*
X228145022Y-81233728D01*
X228644750Y-81733728D02*
X228644750Y-89729000D01*
X228144750Y-90229000D02*
X227234750Y-90229000D01*
D14*
X227234750Y-92710000D02*
X227234750Y-78740000D01*
D13*
X227234750Y-92710000D02*
X227234750Y-78740000D01*
X208184750Y-94615000D02*
X225329750Y-94615000D01*
X225329750Y-76835000D02*
G75*
G02*
X227234750Y-78740000I-1J-1905001D01*
G01*
X206279750Y-78740000D02*
G75*
G02*
X208184750Y-76835000I1905001J-1D01*
G01*
X228145022Y-81233728D02*
G75*
G02*
X228644749Y-81733728I-291J-500018D01*
G01*
X228644750Y-89729000D02*
G75*
G02*
X228144750Y-90229000I-500000J0D01*
G01*
X227234750Y-92710000D02*
G75*
G02*
X225329750Y-94615000I-1905000J0D01*
G01*
X208184750Y-94615000D02*
G75*
G02*
X206279750Y-92710000I0J1905000D01*
G01*
D15*
X227245750Y-76775000D02*
G75*
G02*
X226741750Y-76775000I-252000J0D01*
G01*
X226741750Y-76775000D02*
G75*
G02*
X227245750Y-76775000I252000J0D01*
G01*
X226365750Y-77918000D02*
G75*
G02*
X225861750Y-77918000I-252000J0D01*
G01*
X225861750Y-77918000D02*
G75*
G02*
X226365750Y-77918000I252000J0D01*
G01*
D12*
G04 #@! TO.C,SW11*
X219693750Y-64293750D02*
G75*
G02*
X213693750Y-64293750I-3000000J0D01*
G01*
X213693750Y-64293750D02*
G75*
G02*
X219693750Y-64293750I3000000J0D01*
G01*
X218693750Y-58393750D02*
X222793750Y-58393750D01*
X222793750Y-70193750D02*
X218693750Y-70193750D01*
X214693750Y-70193750D02*
X210593750Y-70193750D01*
X214693750Y-58393750D02*
X210593750Y-58393750D01*
X210593750Y-58393750D02*
X210593750Y-70193750D01*
X209193750Y-60493750D02*
X208893750Y-60193750D01*
X208893750Y-60193750D02*
X209493750Y-60193750D01*
X209493750Y-60193750D02*
X209193750Y-60493750D01*
X222793750Y-58393750D02*
X222793750Y-60793750D01*
X222793750Y-62993750D02*
X222793750Y-65593750D01*
X222793750Y-67793750D02*
X222793750Y-70193750D01*
X216693750Y-63793750D02*
X216693750Y-64793750D01*
X216193750Y-64293750D02*
X217193750Y-64293750D01*
G04 #@! TO.C,SW9*
X164465000Y-78740000D02*
X178435000Y-78740000D01*
X164465000Y-92710000D02*
X164465000Y-78740000D01*
X178435000Y-78740000D02*
X178435000Y-92710000D01*
X178435000Y-92710000D02*
X164465000Y-92710000D01*
G04 #@! TO.C,SW8*
X145415000Y-78740000D02*
X159385000Y-78740000D01*
X145415000Y-92710000D02*
X145415000Y-78740000D01*
X159385000Y-78740000D02*
X159385000Y-92710000D01*
X159385000Y-92710000D02*
X145415000Y-92710000D01*
G04 #@! TO.C,SW7*
X126365000Y-78740000D02*
X140335000Y-78740000D01*
X126365000Y-92710000D02*
X126365000Y-78740000D01*
X140335000Y-78740000D02*
X140335000Y-92710000D01*
X140335000Y-92710000D02*
X126365000Y-92710000D01*
G04 #@! TO.C,SW6*
X107315000Y-78740000D02*
X121285000Y-78740000D01*
X107315000Y-92710000D02*
X107315000Y-78740000D01*
X121285000Y-78740000D02*
X121285000Y-92710000D01*
X121285000Y-92710000D02*
X107315000Y-92710000D01*
G04 #@! TD*
%LPC*%
D16*
G04 #@! TO.C,D5*
X200025000Y-69056250D03*
D17*
X200025000Y-76676250D03*
G04 #@! TD*
D18*
G04 #@! TO.C,SW1*
X110331250Y-64135000D03*
X116681250Y-61595000D03*
D19*
X119221250Y-66675000D03*
D20*
X114141250Y-66675000D03*
D19*
X109061250Y-66675000D03*
G04 #@! TD*
D18*
G04 #@! TO.C,SW3*
X148590000Y-64135000D03*
X154940000Y-61595000D03*
D19*
X157480000Y-66675000D03*
D20*
X152400000Y-66675000D03*
D19*
X147320000Y-66675000D03*
G04 #@! TD*
D18*
G04 #@! TO.C,SW2*
X129540000Y-64135000D03*
X135890000Y-61595000D03*
D19*
X138430000Y-66675000D03*
D20*
X133350000Y-66675000D03*
D19*
X128270000Y-66675000D03*
G04 #@! TD*
D18*
G04 #@! TO.C,SW5*
X186690000Y-64135000D03*
X193040000Y-61595000D03*
D19*
X195580000Y-66675000D03*
D20*
X190500000Y-66675000D03*
D19*
X185420000Y-66675000D03*
G04 #@! TD*
D18*
G04 #@! TO.C,SW4*
X167640000Y-64135000D03*
X173990000Y-61595000D03*
D19*
X176530000Y-66675000D03*
D20*
X171450000Y-66675000D03*
D19*
X166370000Y-66675000D03*
G04 #@! TD*
D18*
G04 #@! TO.C,SW10*
X186690000Y-83185000D03*
X193040000Y-80645000D03*
D19*
X195580000Y-85725000D03*
D20*
X190500000Y-85725000D03*
D19*
X185420000Y-85725000D03*
G04 #@! TD*
D16*
G04 #@! TO.C,D1*
X123825000Y-69056250D03*
D17*
X123825000Y-76676250D03*
G04 #@! TD*
D21*
G04 #@! TO.C,U1*
X224313750Y-77270000D03*
D22*
X224313750Y-78105000D03*
D21*
X221773750Y-77270000D03*
D22*
X221773750Y-78105000D03*
D21*
X219233750Y-77270000D03*
D22*
X219233750Y-78105000D03*
D21*
X216693750Y-77270000D03*
D22*
X216693750Y-78105000D03*
D21*
X214153750Y-77270000D03*
D22*
X214153750Y-78105000D03*
D21*
X211613750Y-77270000D03*
D22*
X211613750Y-78105000D03*
D21*
X209073750Y-77270000D03*
D22*
X209073750Y-78105000D03*
X209073750Y-93345000D03*
D23*
X209073750Y-94180000D03*
D22*
X211613750Y-93345000D03*
D23*
X211613750Y-94180000D03*
D22*
X214153750Y-93345000D03*
D23*
X214153750Y-94180000D03*
D22*
X216693750Y-93345000D03*
D23*
X216693750Y-94180000D03*
D22*
X219233750Y-93345000D03*
D23*
X219233750Y-94180000D03*
D22*
X221773750Y-93345000D03*
D23*
X221773750Y-94180000D03*
D22*
X224313750Y-93345000D03*
D23*
X224313750Y-94180000D03*
G04 #@! TD*
D24*
G04 #@! TO.C,SW11*
X209193750Y-61793750D03*
D25*
X209193750Y-64293750D03*
X209193750Y-66793750D03*
D26*
X216693750Y-58693750D03*
X216693750Y-69893750D03*
D25*
X223693750Y-61793750D03*
X223693750Y-66793750D03*
G04 #@! TD*
D19*
G04 #@! TO.C,SW9*
X166370000Y-85725000D03*
D20*
X171450000Y-85725000D03*
D19*
X176530000Y-85725000D03*
D18*
X173990000Y-80645000D03*
X167640000Y-83185000D03*
G04 #@! TD*
D19*
G04 #@! TO.C,SW8*
X147320000Y-85725000D03*
D20*
X152400000Y-85725000D03*
D19*
X157480000Y-85725000D03*
D18*
X154940000Y-80645000D03*
X148590000Y-83185000D03*
G04 #@! TD*
D19*
G04 #@! TO.C,SW7*
X128270000Y-85725000D03*
D20*
X133350000Y-85725000D03*
D19*
X138430000Y-85725000D03*
D18*
X135890000Y-80645000D03*
X129540000Y-83185000D03*
G04 #@! TD*
D19*
G04 #@! TO.C,SW6*
X109220000Y-85725000D03*
D20*
X114300000Y-85725000D03*
D19*
X119380000Y-85725000D03*
D18*
X116840000Y-80645000D03*
X110490000Y-83185000D03*
G04 #@! TD*
D17*
G04 #@! TO.C,D10*
X200025000Y-93345000D03*
D16*
X200025000Y-85725000D03*
G04 #@! TD*
D17*
G04 #@! TO.C,D9*
X180975000Y-93345000D03*
D16*
X180975000Y-85725000D03*
G04 #@! TD*
D17*
G04 #@! TO.C,D8*
X161925000Y-93345000D03*
D16*
X161925000Y-85725000D03*
G04 #@! TD*
D17*
G04 #@! TO.C,D7*
X142875000Y-93345000D03*
D16*
X142875000Y-85725000D03*
G04 #@! TD*
D17*
G04 #@! TO.C,D6*
X123825000Y-93345000D03*
D16*
X123825000Y-85725000D03*
G04 #@! TD*
D17*
G04 #@! TO.C,D4*
X180975000Y-76676250D03*
D16*
X180975000Y-69056250D03*
G04 #@! TD*
D17*
G04 #@! TO.C,D3*
X161925000Y-76676250D03*
D16*
X161925000Y-69056250D03*
G04 #@! TD*
D17*
G04 #@! TO.C,D2*
X142875000Y-76676250D03*
D16*
X142875000Y-69056250D03*
G04 #@! TD*
%LPD*%
M02*
