%TF.GenerationSoftware,KiCad,Pcbnew,9.0.1*%
%TF.CreationDate,2025-06-11T13:57:42-04:00*%
%TF.ProjectId,hackpad,6861636b-7061-4642-9e6b-696361645f70,rev?*%
%TF.SameCoordinates,Original*%
%TF.FileFunction,Drillmap*%
%TF.FilePolarity,Positive*%
%FSLAX45Y45*%
G04 Gerber Fmt 4.5, Leading zero omitted, Abs format (unit mm)*
G04 Created by KiCad (PCBNEW 9.0.1) date 2025-06-11 13:57:42*
%MOMM*%
%LPD*%
G01*
G04 APERTURE LIST*
%ADD10C,0.050000*%
%ADD11C,0.200000*%
%ADD12C,0.170000*%
%ADD13C,0.400000*%
G04 APERTURE END LIST*
D10*
X10239375Y-5238750D02*
X22860000Y-5238750D01*
X22860000Y-10001250D01*
X10239375Y-10001250D01*
X10239375Y-5238750D01*
D11*
D12*
X10821125Y-6582500D02*
X10991125Y-6752500D01*
X10991125Y-6582500D02*
X10821125Y-6752500D01*
X10837000Y-8487500D02*
X11007000Y-8657500D01*
X11007000Y-8487500D02*
X10837000Y-8657500D01*
X11837125Y-6582500D02*
X12007125Y-6752500D01*
X12007125Y-6582500D02*
X11837125Y-6752500D01*
X11853000Y-8487500D02*
X12023000Y-8657500D01*
X12023000Y-8487500D02*
X11853000Y-8657500D01*
X12742000Y-6582500D02*
X12912000Y-6752500D01*
X12912000Y-6582500D02*
X12742000Y-6752500D01*
X12742000Y-8487500D02*
X12912000Y-8657500D01*
X12912000Y-8487500D02*
X12742000Y-8657500D01*
X13758000Y-6582500D02*
X13928000Y-6752500D01*
X13928000Y-6582500D02*
X13758000Y-6752500D01*
X13758000Y-8487500D02*
X13928000Y-8657500D01*
X13928000Y-8487500D02*
X13758000Y-8657500D01*
X14647000Y-6582500D02*
X14817000Y-6752500D01*
X14817000Y-6582500D02*
X14647000Y-6752500D01*
X14647000Y-8487500D02*
X14817000Y-8657500D01*
X14817000Y-8487500D02*
X14647000Y-8657500D01*
X15663000Y-6582500D02*
X15833000Y-6752500D01*
X15833000Y-6582500D02*
X15663000Y-6752500D01*
X15663000Y-8487500D02*
X15833000Y-8657500D01*
X15833000Y-8487500D02*
X15663000Y-8657500D01*
X16552000Y-6582500D02*
X16722000Y-6752500D01*
X16722000Y-6582500D02*
X16552000Y-6752500D01*
X16552000Y-8487500D02*
X16722000Y-8657500D01*
X16722000Y-8487500D02*
X16552000Y-8657500D01*
X17568000Y-6582500D02*
X17738000Y-6752500D01*
X17738000Y-6582500D02*
X17568000Y-6752500D01*
X17568000Y-8487500D02*
X17738000Y-8657500D01*
X17738000Y-8487500D02*
X17568000Y-8657500D01*
X18457000Y-6582500D02*
X18627000Y-6752500D01*
X18627000Y-6582500D02*
X18457000Y-6752500D01*
X18457000Y-8487500D02*
X18627000Y-8657500D01*
X18627000Y-8487500D02*
X18457000Y-8657500D01*
X19473000Y-6582500D02*
X19643000Y-6752500D01*
X19643000Y-6582500D02*
X19473000Y-6752500D01*
X19473000Y-8487500D02*
X19643000Y-8657500D01*
X19643000Y-8487500D02*
X19473000Y-8657500D01*
D13*
X11614125Y-6667500D02*
G75*
G02*
X11214125Y-6667500I-200000J0D01*
G01*
X11214125Y-6667500D02*
G75*
G02*
X11614125Y-6667500I200000J0D01*
G01*
X11630000Y-8572500D02*
G75*
G02*
X11230000Y-8572500I-200000J0D01*
G01*
X11230000Y-8572500D02*
G75*
G02*
X11630000Y-8572500I200000J0D01*
G01*
X13535000Y-6667500D02*
G75*
G02*
X13135000Y-6667500I-200000J0D01*
G01*
X13135000Y-6667500D02*
G75*
G02*
X13535000Y-6667500I200000J0D01*
G01*
X13535000Y-8572500D02*
G75*
G02*
X13135000Y-8572500I-200000J0D01*
G01*
X13135000Y-8572500D02*
G75*
G02*
X13535000Y-8572500I200000J0D01*
G01*
X15440000Y-6667500D02*
G75*
G02*
X15040000Y-6667500I-200000J0D01*
G01*
X15040000Y-6667500D02*
G75*
G02*
X15440000Y-6667500I200000J0D01*
G01*
X15440000Y-8572500D02*
G75*
G02*
X15040000Y-8572500I-200000J0D01*
G01*
X15040000Y-8572500D02*
G75*
G02*
X15440000Y-8572500I200000J0D01*
G01*
X17345000Y-6667500D02*
G75*
G02*
X16945000Y-6667500I-200000J0D01*
G01*
X16945000Y-6667500D02*
G75*
G02*
X17345000Y-6667500I200000J0D01*
G01*
X17345000Y-8572500D02*
G75*
G02*
X16945000Y-8572500I-200000J0D01*
G01*
X16945000Y-8572500D02*
G75*
G02*
X17345000Y-8572500I200000J0D01*
G01*
X19250000Y-6667500D02*
G75*
G02*
X18850000Y-6667500I-200000J0D01*
G01*
X18850000Y-6667500D02*
G75*
G02*
X19250000Y-6667500I200000J0D01*
G01*
X19250000Y-8572500D02*
G75*
G02*
X18850000Y-8572500I-200000J0D01*
G01*
X18850000Y-8572500D02*
G75*
G02*
X19250000Y-8572500I200000J0D01*
G01*
D11*
X10497652Y-10315234D02*
X10497652Y-10115234D01*
X10497652Y-10115234D02*
X10545271Y-10115234D01*
X10545271Y-10115234D02*
X10573842Y-10124758D01*
X10573842Y-10124758D02*
X10592890Y-10143805D01*
X10592890Y-10143805D02*
X10602414Y-10162853D01*
X10602414Y-10162853D02*
X10611938Y-10200948D01*
X10611938Y-10200948D02*
X10611938Y-10229520D01*
X10611938Y-10229520D02*
X10602414Y-10267615D01*
X10602414Y-10267615D02*
X10592890Y-10286662D01*
X10592890Y-10286662D02*
X10573842Y-10305710D01*
X10573842Y-10305710D02*
X10545271Y-10315234D01*
X10545271Y-10315234D02*
X10497652Y-10315234D01*
X10697652Y-10315234D02*
X10697652Y-10181900D01*
X10697652Y-10219996D02*
X10707176Y-10200948D01*
X10707176Y-10200948D02*
X10716699Y-10191424D01*
X10716699Y-10191424D02*
X10735747Y-10181900D01*
X10735747Y-10181900D02*
X10754795Y-10181900D01*
X10821461Y-10315234D02*
X10821461Y-10181900D01*
X10821461Y-10115234D02*
X10811938Y-10124758D01*
X10811938Y-10124758D02*
X10821461Y-10134281D01*
X10821461Y-10134281D02*
X10830985Y-10124758D01*
X10830985Y-10124758D02*
X10821461Y-10115234D01*
X10821461Y-10115234D02*
X10821461Y-10134281D01*
X10945271Y-10315234D02*
X10926223Y-10305710D01*
X10926223Y-10305710D02*
X10916699Y-10286662D01*
X10916699Y-10286662D02*
X10916699Y-10115234D01*
X11050033Y-10315234D02*
X11030985Y-10305710D01*
X11030985Y-10305710D02*
X11021461Y-10286662D01*
X11021461Y-10286662D02*
X11021461Y-10115234D01*
X11278604Y-10315234D02*
X11278604Y-10115234D01*
X11278604Y-10115234D02*
X11345271Y-10258091D01*
X11345271Y-10258091D02*
X11411937Y-10115234D01*
X11411937Y-10115234D02*
X11411937Y-10315234D01*
X11592890Y-10315234D02*
X11592890Y-10210472D01*
X11592890Y-10210472D02*
X11583366Y-10191424D01*
X11583366Y-10191424D02*
X11564318Y-10181900D01*
X11564318Y-10181900D02*
X11526223Y-10181900D01*
X11526223Y-10181900D02*
X11507176Y-10191424D01*
X11592890Y-10305710D02*
X11573842Y-10315234D01*
X11573842Y-10315234D02*
X11526223Y-10315234D01*
X11526223Y-10315234D02*
X11507176Y-10305710D01*
X11507176Y-10305710D02*
X11497652Y-10286662D01*
X11497652Y-10286662D02*
X11497652Y-10267615D01*
X11497652Y-10267615D02*
X11507176Y-10248567D01*
X11507176Y-10248567D02*
X11526223Y-10239043D01*
X11526223Y-10239043D02*
X11573842Y-10239043D01*
X11573842Y-10239043D02*
X11592890Y-10229520D01*
X11688128Y-10181900D02*
X11688128Y-10381900D01*
X11688128Y-10191424D02*
X11707176Y-10181900D01*
X11707176Y-10181900D02*
X11745271Y-10181900D01*
X11745271Y-10181900D02*
X11764318Y-10191424D01*
X11764318Y-10191424D02*
X11773842Y-10200948D01*
X11773842Y-10200948D02*
X11783366Y-10219996D01*
X11783366Y-10219996D02*
X11783366Y-10277139D01*
X11783366Y-10277139D02*
X11773842Y-10296186D01*
X11773842Y-10296186D02*
X11764318Y-10305710D01*
X11764318Y-10305710D02*
X11745271Y-10315234D01*
X11745271Y-10315234D02*
X11707176Y-10315234D01*
X11707176Y-10315234D02*
X11688128Y-10305710D01*
X11869080Y-10296186D02*
X11878604Y-10305710D01*
X11878604Y-10305710D02*
X11869080Y-10315234D01*
X11869080Y-10315234D02*
X11859557Y-10305710D01*
X11859557Y-10305710D02*
X11869080Y-10296186D01*
X11869080Y-10296186D02*
X11869080Y-10315234D01*
X11869080Y-10191424D02*
X11878604Y-10200948D01*
X11878604Y-10200948D02*
X11869080Y-10210472D01*
X11869080Y-10210472D02*
X11859557Y-10200948D01*
X11859557Y-10200948D02*
X11869080Y-10191424D01*
X11869080Y-10191424D02*
X11869080Y-10210472D01*
D12*
X10066875Y-10558750D02*
X10236875Y-10728750D01*
X10236875Y-10558750D02*
X10066875Y-10728750D01*
D11*
X10602414Y-10735234D02*
X10488128Y-10735234D01*
X10545271Y-10735234D02*
X10545271Y-10535234D01*
X10545271Y-10535234D02*
X10526223Y-10563805D01*
X10526223Y-10563805D02*
X10507176Y-10582853D01*
X10507176Y-10582853D02*
X10488128Y-10592377D01*
X10688128Y-10716186D02*
X10697652Y-10725710D01*
X10697652Y-10725710D02*
X10688128Y-10735234D01*
X10688128Y-10735234D02*
X10678604Y-10725710D01*
X10678604Y-10725710D02*
X10688128Y-10716186D01*
X10688128Y-10716186D02*
X10688128Y-10735234D01*
X10764319Y-10535234D02*
X10897652Y-10535234D01*
X10897652Y-10535234D02*
X10811938Y-10735234D01*
X11011938Y-10535234D02*
X11030985Y-10535234D01*
X11030985Y-10535234D02*
X11050033Y-10544758D01*
X11050033Y-10544758D02*
X11059557Y-10554281D01*
X11059557Y-10554281D02*
X11069080Y-10573329D01*
X11069080Y-10573329D02*
X11078604Y-10611424D01*
X11078604Y-10611424D02*
X11078604Y-10659043D01*
X11078604Y-10659043D02*
X11069080Y-10697139D01*
X11069080Y-10697139D02*
X11059557Y-10716186D01*
X11059557Y-10716186D02*
X11050033Y-10725710D01*
X11050033Y-10725710D02*
X11030985Y-10735234D01*
X11030985Y-10735234D02*
X11011938Y-10735234D01*
X11011938Y-10735234D02*
X10992890Y-10725710D01*
X10992890Y-10725710D02*
X10983366Y-10716186D01*
X10983366Y-10716186D02*
X10973842Y-10697139D01*
X10973842Y-10697139D02*
X10964319Y-10659043D01*
X10964319Y-10659043D02*
X10964319Y-10611424D01*
X10964319Y-10611424D02*
X10973842Y-10573329D01*
X10973842Y-10573329D02*
X10983366Y-10554281D01*
X10983366Y-10554281D02*
X10992890Y-10544758D01*
X10992890Y-10544758D02*
X11011938Y-10535234D01*
X11202414Y-10535234D02*
X11221461Y-10535234D01*
X11221461Y-10535234D02*
X11240509Y-10544758D01*
X11240509Y-10544758D02*
X11250033Y-10554281D01*
X11250033Y-10554281D02*
X11259557Y-10573329D01*
X11259557Y-10573329D02*
X11269080Y-10611424D01*
X11269080Y-10611424D02*
X11269080Y-10659043D01*
X11269080Y-10659043D02*
X11259557Y-10697139D01*
X11259557Y-10697139D02*
X11250033Y-10716186D01*
X11250033Y-10716186D02*
X11240509Y-10725710D01*
X11240509Y-10725710D02*
X11221461Y-10735234D01*
X11221461Y-10735234D02*
X11202414Y-10735234D01*
X11202414Y-10735234D02*
X11183366Y-10725710D01*
X11183366Y-10725710D02*
X11173842Y-10716186D01*
X11173842Y-10716186D02*
X11164319Y-10697139D01*
X11164319Y-10697139D02*
X11154795Y-10659043D01*
X11154795Y-10659043D02*
X11154795Y-10611424D01*
X11154795Y-10611424D02*
X11164319Y-10573329D01*
X11164319Y-10573329D02*
X11173842Y-10554281D01*
X11173842Y-10554281D02*
X11183366Y-10544758D01*
X11183366Y-10544758D02*
X11202414Y-10535234D01*
X11354795Y-10735234D02*
X11354795Y-10601900D01*
X11354795Y-10620948D02*
X11364318Y-10611424D01*
X11364318Y-10611424D02*
X11383366Y-10601900D01*
X11383366Y-10601900D02*
X11411938Y-10601900D01*
X11411938Y-10601900D02*
X11430985Y-10611424D01*
X11430985Y-10611424D02*
X11440509Y-10630472D01*
X11440509Y-10630472D02*
X11440509Y-10735234D01*
X11440509Y-10630472D02*
X11450033Y-10611424D01*
X11450033Y-10611424D02*
X11469080Y-10601900D01*
X11469080Y-10601900D02*
X11497652Y-10601900D01*
X11497652Y-10601900D02*
X11516699Y-10611424D01*
X11516699Y-10611424D02*
X11526223Y-10630472D01*
X11526223Y-10630472D02*
X11526223Y-10735234D01*
X11621461Y-10735234D02*
X11621461Y-10601900D01*
X11621461Y-10620948D02*
X11630985Y-10611424D01*
X11630985Y-10611424D02*
X11650033Y-10601900D01*
X11650033Y-10601900D02*
X11678604Y-10601900D01*
X11678604Y-10601900D02*
X11697652Y-10611424D01*
X11697652Y-10611424D02*
X11707176Y-10630472D01*
X11707176Y-10630472D02*
X11707176Y-10735234D01*
X11707176Y-10630472D02*
X11716699Y-10611424D01*
X11716699Y-10611424D02*
X11735747Y-10601900D01*
X11735747Y-10601900D02*
X11764318Y-10601900D01*
X11764318Y-10601900D02*
X11783366Y-10611424D01*
X11783366Y-10611424D02*
X11792890Y-10630472D01*
X11792890Y-10630472D02*
X11792890Y-10735234D01*
X12183366Y-10525710D02*
X12011938Y-10782853D01*
X12440509Y-10535234D02*
X12459557Y-10535234D01*
X12459557Y-10535234D02*
X12478604Y-10544758D01*
X12478604Y-10544758D02*
X12488128Y-10554281D01*
X12488128Y-10554281D02*
X12497652Y-10573329D01*
X12497652Y-10573329D02*
X12507176Y-10611424D01*
X12507176Y-10611424D02*
X12507176Y-10659043D01*
X12507176Y-10659043D02*
X12497652Y-10697139D01*
X12497652Y-10697139D02*
X12488128Y-10716186D01*
X12488128Y-10716186D02*
X12478604Y-10725710D01*
X12478604Y-10725710D02*
X12459557Y-10735234D01*
X12459557Y-10735234D02*
X12440509Y-10735234D01*
X12440509Y-10735234D02*
X12421461Y-10725710D01*
X12421461Y-10725710D02*
X12411938Y-10716186D01*
X12411938Y-10716186D02*
X12402414Y-10697139D01*
X12402414Y-10697139D02*
X12392890Y-10659043D01*
X12392890Y-10659043D02*
X12392890Y-10611424D01*
X12392890Y-10611424D02*
X12402414Y-10573329D01*
X12402414Y-10573329D02*
X12411938Y-10554281D01*
X12411938Y-10554281D02*
X12421461Y-10544758D01*
X12421461Y-10544758D02*
X12440509Y-10535234D01*
X12592890Y-10716186D02*
X12602414Y-10725710D01*
X12602414Y-10725710D02*
X12592890Y-10735234D01*
X12592890Y-10735234D02*
X12583366Y-10725710D01*
X12583366Y-10725710D02*
X12592890Y-10716186D01*
X12592890Y-10716186D02*
X12592890Y-10735234D01*
X12726223Y-10535234D02*
X12745271Y-10535234D01*
X12745271Y-10535234D02*
X12764319Y-10544758D01*
X12764319Y-10544758D02*
X12773842Y-10554281D01*
X12773842Y-10554281D02*
X12783366Y-10573329D01*
X12783366Y-10573329D02*
X12792890Y-10611424D01*
X12792890Y-10611424D02*
X12792890Y-10659043D01*
X12792890Y-10659043D02*
X12783366Y-10697139D01*
X12783366Y-10697139D02*
X12773842Y-10716186D01*
X12773842Y-10716186D02*
X12764319Y-10725710D01*
X12764319Y-10725710D02*
X12745271Y-10735234D01*
X12745271Y-10735234D02*
X12726223Y-10735234D01*
X12726223Y-10735234D02*
X12707176Y-10725710D01*
X12707176Y-10725710D02*
X12697652Y-10716186D01*
X12697652Y-10716186D02*
X12688128Y-10697139D01*
X12688128Y-10697139D02*
X12678604Y-10659043D01*
X12678604Y-10659043D02*
X12678604Y-10611424D01*
X12678604Y-10611424D02*
X12688128Y-10573329D01*
X12688128Y-10573329D02*
X12697652Y-10554281D01*
X12697652Y-10554281D02*
X12707176Y-10544758D01*
X12707176Y-10544758D02*
X12726223Y-10535234D01*
X12964319Y-10535234D02*
X12926223Y-10535234D01*
X12926223Y-10535234D02*
X12907176Y-10544758D01*
X12907176Y-10544758D02*
X12897652Y-10554281D01*
X12897652Y-10554281D02*
X12878604Y-10582853D01*
X12878604Y-10582853D02*
X12869081Y-10620948D01*
X12869081Y-10620948D02*
X12869081Y-10697139D01*
X12869081Y-10697139D02*
X12878604Y-10716186D01*
X12878604Y-10716186D02*
X12888128Y-10725710D01*
X12888128Y-10725710D02*
X12907176Y-10735234D01*
X12907176Y-10735234D02*
X12945271Y-10735234D01*
X12945271Y-10735234D02*
X12964319Y-10725710D01*
X12964319Y-10725710D02*
X12973842Y-10716186D01*
X12973842Y-10716186D02*
X12983366Y-10697139D01*
X12983366Y-10697139D02*
X12983366Y-10649520D01*
X12983366Y-10649520D02*
X12973842Y-10630472D01*
X12973842Y-10630472D02*
X12964319Y-10620948D01*
X12964319Y-10620948D02*
X12945271Y-10611424D01*
X12945271Y-10611424D02*
X12907176Y-10611424D01*
X12907176Y-10611424D02*
X12888128Y-10620948D01*
X12888128Y-10620948D02*
X12878604Y-10630472D01*
X12878604Y-10630472D02*
X12869081Y-10649520D01*
X13154795Y-10535234D02*
X13116700Y-10535234D01*
X13116700Y-10535234D02*
X13097652Y-10544758D01*
X13097652Y-10544758D02*
X13088128Y-10554281D01*
X13088128Y-10554281D02*
X13069081Y-10582853D01*
X13069081Y-10582853D02*
X13059557Y-10620948D01*
X13059557Y-10620948D02*
X13059557Y-10697139D01*
X13059557Y-10697139D02*
X13069081Y-10716186D01*
X13069081Y-10716186D02*
X13078604Y-10725710D01*
X13078604Y-10725710D02*
X13097652Y-10735234D01*
X13097652Y-10735234D02*
X13135747Y-10735234D01*
X13135747Y-10735234D02*
X13154795Y-10725710D01*
X13154795Y-10725710D02*
X13164319Y-10716186D01*
X13164319Y-10716186D02*
X13173842Y-10697139D01*
X13173842Y-10697139D02*
X13173842Y-10649520D01*
X13173842Y-10649520D02*
X13164319Y-10630472D01*
X13164319Y-10630472D02*
X13154795Y-10620948D01*
X13154795Y-10620948D02*
X13135747Y-10611424D01*
X13135747Y-10611424D02*
X13097652Y-10611424D01*
X13097652Y-10611424D02*
X13078604Y-10620948D01*
X13078604Y-10620948D02*
X13069081Y-10630472D01*
X13069081Y-10630472D02*
X13059557Y-10649520D01*
X13269081Y-10735234D02*
X13307176Y-10735234D01*
X13307176Y-10735234D02*
X13326223Y-10725710D01*
X13326223Y-10725710D02*
X13335747Y-10716186D01*
X13335747Y-10716186D02*
X13354795Y-10687615D01*
X13354795Y-10687615D02*
X13364319Y-10649520D01*
X13364319Y-10649520D02*
X13364319Y-10573329D01*
X13364319Y-10573329D02*
X13354795Y-10554281D01*
X13354795Y-10554281D02*
X13345271Y-10544758D01*
X13345271Y-10544758D02*
X13326223Y-10535234D01*
X13326223Y-10535234D02*
X13288128Y-10535234D01*
X13288128Y-10535234D02*
X13269081Y-10544758D01*
X13269081Y-10544758D02*
X13259557Y-10554281D01*
X13259557Y-10554281D02*
X13250033Y-10573329D01*
X13250033Y-10573329D02*
X13250033Y-10620948D01*
X13250033Y-10620948D02*
X13259557Y-10639996D01*
X13259557Y-10639996D02*
X13269081Y-10649520D01*
X13269081Y-10649520D02*
X13288128Y-10659043D01*
X13288128Y-10659043D02*
X13326223Y-10659043D01*
X13326223Y-10659043D02*
X13345271Y-10649520D01*
X13345271Y-10649520D02*
X13354795Y-10639996D01*
X13354795Y-10639996D02*
X13364319Y-10620948D01*
X13440509Y-10535234D02*
X13440509Y-10573329D01*
X13516700Y-10535234D02*
X13516700Y-10573329D01*
X13811938Y-10811424D02*
X13802414Y-10801900D01*
X13802414Y-10801900D02*
X13783366Y-10773329D01*
X13783366Y-10773329D02*
X13773843Y-10754281D01*
X13773843Y-10754281D02*
X13764319Y-10725710D01*
X13764319Y-10725710D02*
X13754795Y-10678091D01*
X13754795Y-10678091D02*
X13754795Y-10639996D01*
X13754795Y-10639996D02*
X13764319Y-10592377D01*
X13764319Y-10592377D02*
X13773843Y-10563805D01*
X13773843Y-10563805D02*
X13783366Y-10544758D01*
X13783366Y-10544758D02*
X13802414Y-10516186D01*
X13802414Y-10516186D02*
X13811938Y-10506662D01*
X13878604Y-10554281D02*
X13888128Y-10544758D01*
X13888128Y-10544758D02*
X13907176Y-10535234D01*
X13907176Y-10535234D02*
X13954795Y-10535234D01*
X13954795Y-10535234D02*
X13973843Y-10544758D01*
X13973843Y-10544758D02*
X13983366Y-10554281D01*
X13983366Y-10554281D02*
X13992890Y-10573329D01*
X13992890Y-10573329D02*
X13992890Y-10592377D01*
X13992890Y-10592377D02*
X13983366Y-10620948D01*
X13983366Y-10620948D02*
X13869081Y-10735234D01*
X13869081Y-10735234D02*
X13992890Y-10735234D01*
X14116700Y-10535234D02*
X14135747Y-10535234D01*
X14135747Y-10535234D02*
X14154795Y-10544758D01*
X14154795Y-10544758D02*
X14164319Y-10554281D01*
X14164319Y-10554281D02*
X14173843Y-10573329D01*
X14173843Y-10573329D02*
X14183366Y-10611424D01*
X14183366Y-10611424D02*
X14183366Y-10659043D01*
X14183366Y-10659043D02*
X14173843Y-10697139D01*
X14173843Y-10697139D02*
X14164319Y-10716186D01*
X14164319Y-10716186D02*
X14154795Y-10725710D01*
X14154795Y-10725710D02*
X14135747Y-10735234D01*
X14135747Y-10735234D02*
X14116700Y-10735234D01*
X14116700Y-10735234D02*
X14097652Y-10725710D01*
X14097652Y-10725710D02*
X14088128Y-10716186D01*
X14088128Y-10716186D02*
X14078604Y-10697139D01*
X14078604Y-10697139D02*
X14069081Y-10659043D01*
X14069081Y-10659043D02*
X14069081Y-10611424D01*
X14069081Y-10611424D02*
X14078604Y-10573329D01*
X14078604Y-10573329D02*
X14088128Y-10554281D01*
X14088128Y-10554281D02*
X14097652Y-10544758D01*
X14097652Y-10544758D02*
X14116700Y-10535234D01*
X14421462Y-10735234D02*
X14421462Y-10535234D01*
X14507176Y-10735234D02*
X14507176Y-10630472D01*
X14507176Y-10630472D02*
X14497652Y-10611424D01*
X14497652Y-10611424D02*
X14478605Y-10601900D01*
X14478605Y-10601900D02*
X14450033Y-10601900D01*
X14450033Y-10601900D02*
X14430985Y-10611424D01*
X14430985Y-10611424D02*
X14421462Y-10620948D01*
X14630985Y-10735234D02*
X14611938Y-10725710D01*
X14611938Y-10725710D02*
X14602414Y-10716186D01*
X14602414Y-10716186D02*
X14592890Y-10697139D01*
X14592890Y-10697139D02*
X14592890Y-10639996D01*
X14592890Y-10639996D02*
X14602414Y-10620948D01*
X14602414Y-10620948D02*
X14611938Y-10611424D01*
X14611938Y-10611424D02*
X14630985Y-10601900D01*
X14630985Y-10601900D02*
X14659557Y-10601900D01*
X14659557Y-10601900D02*
X14678605Y-10611424D01*
X14678605Y-10611424D02*
X14688128Y-10620948D01*
X14688128Y-10620948D02*
X14697652Y-10639996D01*
X14697652Y-10639996D02*
X14697652Y-10697139D01*
X14697652Y-10697139D02*
X14688128Y-10716186D01*
X14688128Y-10716186D02*
X14678605Y-10725710D01*
X14678605Y-10725710D02*
X14659557Y-10735234D01*
X14659557Y-10735234D02*
X14630985Y-10735234D01*
X14811938Y-10735234D02*
X14792890Y-10725710D01*
X14792890Y-10725710D02*
X14783366Y-10706662D01*
X14783366Y-10706662D02*
X14783366Y-10535234D01*
X14964319Y-10725710D02*
X14945271Y-10735234D01*
X14945271Y-10735234D02*
X14907176Y-10735234D01*
X14907176Y-10735234D02*
X14888128Y-10725710D01*
X14888128Y-10725710D02*
X14878605Y-10706662D01*
X14878605Y-10706662D02*
X14878605Y-10630472D01*
X14878605Y-10630472D02*
X14888128Y-10611424D01*
X14888128Y-10611424D02*
X14907176Y-10601900D01*
X14907176Y-10601900D02*
X14945271Y-10601900D01*
X14945271Y-10601900D02*
X14964319Y-10611424D01*
X14964319Y-10611424D02*
X14973843Y-10630472D01*
X14973843Y-10630472D02*
X14973843Y-10649520D01*
X14973843Y-10649520D02*
X14878605Y-10668567D01*
X15050033Y-10725710D02*
X15069081Y-10735234D01*
X15069081Y-10735234D02*
X15107176Y-10735234D01*
X15107176Y-10735234D02*
X15126224Y-10725710D01*
X15126224Y-10725710D02*
X15135747Y-10706662D01*
X15135747Y-10706662D02*
X15135747Y-10697139D01*
X15135747Y-10697139D02*
X15126224Y-10678091D01*
X15126224Y-10678091D02*
X15107176Y-10668567D01*
X15107176Y-10668567D02*
X15078605Y-10668567D01*
X15078605Y-10668567D02*
X15059557Y-10659043D01*
X15059557Y-10659043D02*
X15050033Y-10639996D01*
X15050033Y-10639996D02*
X15050033Y-10630472D01*
X15050033Y-10630472D02*
X15059557Y-10611424D01*
X15059557Y-10611424D02*
X15078605Y-10601900D01*
X15078605Y-10601900D02*
X15107176Y-10601900D01*
X15107176Y-10601900D02*
X15126224Y-10611424D01*
X15202414Y-10811424D02*
X15211938Y-10801900D01*
X15211938Y-10801900D02*
X15230986Y-10773329D01*
X15230986Y-10773329D02*
X15240509Y-10754281D01*
X15240509Y-10754281D02*
X15250033Y-10725710D01*
X15250033Y-10725710D02*
X15259557Y-10678091D01*
X15259557Y-10678091D02*
X15259557Y-10639996D01*
X15259557Y-10639996D02*
X15250033Y-10592377D01*
X15250033Y-10592377D02*
X15240509Y-10563805D01*
X15240509Y-10563805D02*
X15230986Y-10544758D01*
X15230986Y-10544758D02*
X15211938Y-10516186D01*
X15211938Y-10516186D02*
X15202414Y-10506662D01*
X15564319Y-10811424D02*
X15554795Y-10801900D01*
X15554795Y-10801900D02*
X15535747Y-10773329D01*
X15535747Y-10773329D02*
X15526224Y-10754281D01*
X15526224Y-10754281D02*
X15516700Y-10725710D01*
X15516700Y-10725710D02*
X15507176Y-10678091D01*
X15507176Y-10678091D02*
X15507176Y-10639996D01*
X15507176Y-10639996D02*
X15516700Y-10592377D01*
X15516700Y-10592377D02*
X15526224Y-10563805D01*
X15526224Y-10563805D02*
X15535747Y-10544758D01*
X15535747Y-10544758D02*
X15554795Y-10516186D01*
X15554795Y-10516186D02*
X15564319Y-10506662D01*
X15640509Y-10601900D02*
X15640509Y-10735234D01*
X15640509Y-10620948D02*
X15650033Y-10611424D01*
X15650033Y-10611424D02*
X15669081Y-10601900D01*
X15669081Y-10601900D02*
X15697652Y-10601900D01*
X15697652Y-10601900D02*
X15716700Y-10611424D01*
X15716700Y-10611424D02*
X15726224Y-10630472D01*
X15726224Y-10630472D02*
X15726224Y-10735234D01*
X15850033Y-10735234D02*
X15830986Y-10725710D01*
X15830986Y-10725710D02*
X15821462Y-10716186D01*
X15821462Y-10716186D02*
X15811938Y-10697139D01*
X15811938Y-10697139D02*
X15811938Y-10639996D01*
X15811938Y-10639996D02*
X15821462Y-10620948D01*
X15821462Y-10620948D02*
X15830986Y-10611424D01*
X15830986Y-10611424D02*
X15850033Y-10601900D01*
X15850033Y-10601900D02*
X15878605Y-10601900D01*
X15878605Y-10601900D02*
X15897652Y-10611424D01*
X15897652Y-10611424D02*
X15907176Y-10620948D01*
X15907176Y-10620948D02*
X15916700Y-10639996D01*
X15916700Y-10639996D02*
X15916700Y-10697139D01*
X15916700Y-10697139D02*
X15907176Y-10716186D01*
X15907176Y-10716186D02*
X15897652Y-10725710D01*
X15897652Y-10725710D02*
X15878605Y-10735234D01*
X15878605Y-10735234D02*
X15850033Y-10735234D01*
X15973843Y-10601900D02*
X16050033Y-10601900D01*
X16002414Y-10535234D02*
X16002414Y-10706662D01*
X16002414Y-10706662D02*
X16011938Y-10725710D01*
X16011938Y-10725710D02*
X16030986Y-10735234D01*
X16030986Y-10735234D02*
X16050033Y-10735234D01*
X16269081Y-10601900D02*
X16269081Y-10801900D01*
X16269081Y-10611424D02*
X16288128Y-10601900D01*
X16288128Y-10601900D02*
X16326224Y-10601900D01*
X16326224Y-10601900D02*
X16345271Y-10611424D01*
X16345271Y-10611424D02*
X16354795Y-10620948D01*
X16354795Y-10620948D02*
X16364319Y-10639996D01*
X16364319Y-10639996D02*
X16364319Y-10697139D01*
X16364319Y-10697139D02*
X16354795Y-10716186D01*
X16354795Y-10716186D02*
X16345271Y-10725710D01*
X16345271Y-10725710D02*
X16326224Y-10735234D01*
X16326224Y-10735234D02*
X16288128Y-10735234D01*
X16288128Y-10735234D02*
X16269081Y-10725710D01*
X16478605Y-10735234D02*
X16459557Y-10725710D01*
X16459557Y-10725710D02*
X16450033Y-10706662D01*
X16450033Y-10706662D02*
X16450033Y-10535234D01*
X16640509Y-10735234D02*
X16640509Y-10630472D01*
X16640509Y-10630472D02*
X16630986Y-10611424D01*
X16630986Y-10611424D02*
X16611938Y-10601900D01*
X16611938Y-10601900D02*
X16573843Y-10601900D01*
X16573843Y-10601900D02*
X16554795Y-10611424D01*
X16640509Y-10725710D02*
X16621462Y-10735234D01*
X16621462Y-10735234D02*
X16573843Y-10735234D01*
X16573843Y-10735234D02*
X16554795Y-10725710D01*
X16554795Y-10725710D02*
X16545271Y-10706662D01*
X16545271Y-10706662D02*
X16545271Y-10687615D01*
X16545271Y-10687615D02*
X16554795Y-10668567D01*
X16554795Y-10668567D02*
X16573843Y-10659043D01*
X16573843Y-10659043D02*
X16621462Y-10659043D01*
X16621462Y-10659043D02*
X16640509Y-10649520D01*
X16707176Y-10601900D02*
X16783367Y-10601900D01*
X16735748Y-10535234D02*
X16735748Y-10706662D01*
X16735748Y-10706662D02*
X16745271Y-10725710D01*
X16745271Y-10725710D02*
X16764319Y-10735234D01*
X16764319Y-10735234D02*
X16783367Y-10735234D01*
X16926224Y-10725710D02*
X16907176Y-10735234D01*
X16907176Y-10735234D02*
X16869081Y-10735234D01*
X16869081Y-10735234D02*
X16850033Y-10725710D01*
X16850033Y-10725710D02*
X16840510Y-10706662D01*
X16840510Y-10706662D02*
X16840510Y-10630472D01*
X16840510Y-10630472D02*
X16850033Y-10611424D01*
X16850033Y-10611424D02*
X16869081Y-10601900D01*
X16869081Y-10601900D02*
X16907176Y-10601900D01*
X16907176Y-10601900D02*
X16926224Y-10611424D01*
X16926224Y-10611424D02*
X16935748Y-10630472D01*
X16935748Y-10630472D02*
X16935748Y-10649520D01*
X16935748Y-10649520D02*
X16840510Y-10668567D01*
X17107176Y-10735234D02*
X17107176Y-10535234D01*
X17107176Y-10725710D02*
X17088129Y-10735234D01*
X17088129Y-10735234D02*
X17050033Y-10735234D01*
X17050033Y-10735234D02*
X17030986Y-10725710D01*
X17030986Y-10725710D02*
X17021462Y-10716186D01*
X17021462Y-10716186D02*
X17011938Y-10697139D01*
X17011938Y-10697139D02*
X17011938Y-10639996D01*
X17011938Y-10639996D02*
X17021462Y-10620948D01*
X17021462Y-10620948D02*
X17030986Y-10611424D01*
X17030986Y-10611424D02*
X17050033Y-10601900D01*
X17050033Y-10601900D02*
X17088129Y-10601900D01*
X17088129Y-10601900D02*
X17107176Y-10611424D01*
X17183367Y-10811424D02*
X17192891Y-10801900D01*
X17192891Y-10801900D02*
X17211938Y-10773329D01*
X17211938Y-10773329D02*
X17221462Y-10754281D01*
X17221462Y-10754281D02*
X17230986Y-10725710D01*
X17230986Y-10725710D02*
X17240510Y-10678091D01*
X17240510Y-10678091D02*
X17240510Y-10639996D01*
X17240510Y-10639996D02*
X17230986Y-10592377D01*
X17230986Y-10592377D02*
X17221462Y-10563805D01*
X17221462Y-10563805D02*
X17211938Y-10544758D01*
X17211938Y-10544758D02*
X17192891Y-10516186D01*
X17192891Y-10516186D02*
X17183367Y-10506662D01*
X10236875Y-10933750D02*
G75*
G02*
X10036875Y-10933750I-100000J0D01*
G01*
X10036875Y-10933750D02*
G75*
G02*
X10236875Y-10933750I100000J0D01*
G01*
X10583366Y-10891900D02*
X10583366Y-11025234D01*
X10535747Y-10815710D02*
X10488128Y-10958567D01*
X10488128Y-10958567D02*
X10611938Y-10958567D01*
X10688128Y-11006186D02*
X10697652Y-11015710D01*
X10697652Y-11015710D02*
X10688128Y-11025234D01*
X10688128Y-11025234D02*
X10678604Y-11015710D01*
X10678604Y-11015710D02*
X10688128Y-11006186D01*
X10688128Y-11006186D02*
X10688128Y-11025234D01*
X10821461Y-10825234D02*
X10840509Y-10825234D01*
X10840509Y-10825234D02*
X10859557Y-10834758D01*
X10859557Y-10834758D02*
X10869080Y-10844281D01*
X10869080Y-10844281D02*
X10878604Y-10863329D01*
X10878604Y-10863329D02*
X10888128Y-10901424D01*
X10888128Y-10901424D02*
X10888128Y-10949043D01*
X10888128Y-10949043D02*
X10878604Y-10987139D01*
X10878604Y-10987139D02*
X10869080Y-11006186D01*
X10869080Y-11006186D02*
X10859557Y-11015710D01*
X10859557Y-11015710D02*
X10840509Y-11025234D01*
X10840509Y-11025234D02*
X10821461Y-11025234D01*
X10821461Y-11025234D02*
X10802414Y-11015710D01*
X10802414Y-11015710D02*
X10792890Y-11006186D01*
X10792890Y-11006186D02*
X10783366Y-10987139D01*
X10783366Y-10987139D02*
X10773842Y-10949043D01*
X10773842Y-10949043D02*
X10773842Y-10901424D01*
X10773842Y-10901424D02*
X10783366Y-10863329D01*
X10783366Y-10863329D02*
X10792890Y-10844281D01*
X10792890Y-10844281D02*
X10802414Y-10834758D01*
X10802414Y-10834758D02*
X10821461Y-10825234D01*
X11011938Y-10825234D02*
X11030985Y-10825234D01*
X11030985Y-10825234D02*
X11050033Y-10834758D01*
X11050033Y-10834758D02*
X11059557Y-10844281D01*
X11059557Y-10844281D02*
X11069080Y-10863329D01*
X11069080Y-10863329D02*
X11078604Y-10901424D01*
X11078604Y-10901424D02*
X11078604Y-10949043D01*
X11078604Y-10949043D02*
X11069080Y-10987139D01*
X11069080Y-10987139D02*
X11059557Y-11006186D01*
X11059557Y-11006186D02*
X11050033Y-11015710D01*
X11050033Y-11015710D02*
X11030985Y-11025234D01*
X11030985Y-11025234D02*
X11011938Y-11025234D01*
X11011938Y-11025234D02*
X10992890Y-11015710D01*
X10992890Y-11015710D02*
X10983366Y-11006186D01*
X10983366Y-11006186D02*
X10973842Y-10987139D01*
X10973842Y-10987139D02*
X10964319Y-10949043D01*
X10964319Y-10949043D02*
X10964319Y-10901424D01*
X10964319Y-10901424D02*
X10973842Y-10863329D01*
X10973842Y-10863329D02*
X10983366Y-10844281D01*
X10983366Y-10844281D02*
X10992890Y-10834758D01*
X10992890Y-10834758D02*
X11011938Y-10825234D01*
X11202414Y-10825234D02*
X11221461Y-10825234D01*
X11221461Y-10825234D02*
X11240509Y-10834758D01*
X11240509Y-10834758D02*
X11250033Y-10844281D01*
X11250033Y-10844281D02*
X11259557Y-10863329D01*
X11259557Y-10863329D02*
X11269080Y-10901424D01*
X11269080Y-10901424D02*
X11269080Y-10949043D01*
X11269080Y-10949043D02*
X11259557Y-10987139D01*
X11259557Y-10987139D02*
X11250033Y-11006186D01*
X11250033Y-11006186D02*
X11240509Y-11015710D01*
X11240509Y-11015710D02*
X11221461Y-11025234D01*
X11221461Y-11025234D02*
X11202414Y-11025234D01*
X11202414Y-11025234D02*
X11183366Y-11015710D01*
X11183366Y-11015710D02*
X11173842Y-11006186D01*
X11173842Y-11006186D02*
X11164319Y-10987139D01*
X11164319Y-10987139D02*
X11154795Y-10949043D01*
X11154795Y-10949043D02*
X11154795Y-10901424D01*
X11154795Y-10901424D02*
X11164319Y-10863329D01*
X11164319Y-10863329D02*
X11173842Y-10844281D01*
X11173842Y-10844281D02*
X11183366Y-10834758D01*
X11183366Y-10834758D02*
X11202414Y-10825234D01*
X11354795Y-11025234D02*
X11354795Y-10891900D01*
X11354795Y-10910948D02*
X11364318Y-10901424D01*
X11364318Y-10901424D02*
X11383366Y-10891900D01*
X11383366Y-10891900D02*
X11411938Y-10891900D01*
X11411938Y-10891900D02*
X11430985Y-10901424D01*
X11430985Y-10901424D02*
X11440509Y-10920472D01*
X11440509Y-10920472D02*
X11440509Y-11025234D01*
X11440509Y-10920472D02*
X11450033Y-10901424D01*
X11450033Y-10901424D02*
X11469080Y-10891900D01*
X11469080Y-10891900D02*
X11497652Y-10891900D01*
X11497652Y-10891900D02*
X11516699Y-10901424D01*
X11516699Y-10901424D02*
X11526223Y-10920472D01*
X11526223Y-10920472D02*
X11526223Y-11025234D01*
X11621461Y-11025234D02*
X11621461Y-10891900D01*
X11621461Y-10910948D02*
X11630985Y-10901424D01*
X11630985Y-10901424D02*
X11650033Y-10891900D01*
X11650033Y-10891900D02*
X11678604Y-10891900D01*
X11678604Y-10891900D02*
X11697652Y-10901424D01*
X11697652Y-10901424D02*
X11707176Y-10920472D01*
X11707176Y-10920472D02*
X11707176Y-11025234D01*
X11707176Y-10920472D02*
X11716699Y-10901424D01*
X11716699Y-10901424D02*
X11735747Y-10891900D01*
X11735747Y-10891900D02*
X11764318Y-10891900D01*
X11764318Y-10891900D02*
X11783366Y-10901424D01*
X11783366Y-10901424D02*
X11792890Y-10920472D01*
X11792890Y-10920472D02*
X11792890Y-11025234D01*
X12183366Y-10815710D02*
X12011938Y-11072853D01*
X12440509Y-10825234D02*
X12459557Y-10825234D01*
X12459557Y-10825234D02*
X12478604Y-10834758D01*
X12478604Y-10834758D02*
X12488128Y-10844281D01*
X12488128Y-10844281D02*
X12497652Y-10863329D01*
X12497652Y-10863329D02*
X12507176Y-10901424D01*
X12507176Y-10901424D02*
X12507176Y-10949043D01*
X12507176Y-10949043D02*
X12497652Y-10987139D01*
X12497652Y-10987139D02*
X12488128Y-11006186D01*
X12488128Y-11006186D02*
X12478604Y-11015710D01*
X12478604Y-11015710D02*
X12459557Y-11025234D01*
X12459557Y-11025234D02*
X12440509Y-11025234D01*
X12440509Y-11025234D02*
X12421461Y-11015710D01*
X12421461Y-11015710D02*
X12411938Y-11006186D01*
X12411938Y-11006186D02*
X12402414Y-10987139D01*
X12402414Y-10987139D02*
X12392890Y-10949043D01*
X12392890Y-10949043D02*
X12392890Y-10901424D01*
X12392890Y-10901424D02*
X12402414Y-10863329D01*
X12402414Y-10863329D02*
X12411938Y-10844281D01*
X12411938Y-10844281D02*
X12421461Y-10834758D01*
X12421461Y-10834758D02*
X12440509Y-10825234D01*
X12592890Y-11006186D02*
X12602414Y-11015710D01*
X12602414Y-11015710D02*
X12592890Y-11025234D01*
X12592890Y-11025234D02*
X12583366Y-11015710D01*
X12583366Y-11015710D02*
X12592890Y-11006186D01*
X12592890Y-11006186D02*
X12592890Y-11025234D01*
X12792890Y-11025234D02*
X12678604Y-11025234D01*
X12735747Y-11025234D02*
X12735747Y-10825234D01*
X12735747Y-10825234D02*
X12716700Y-10853805D01*
X12716700Y-10853805D02*
X12697652Y-10872853D01*
X12697652Y-10872853D02*
X12678604Y-10882377D01*
X12973842Y-10825234D02*
X12878604Y-10825234D01*
X12878604Y-10825234D02*
X12869081Y-10920472D01*
X12869081Y-10920472D02*
X12878604Y-10910948D01*
X12878604Y-10910948D02*
X12897652Y-10901424D01*
X12897652Y-10901424D02*
X12945271Y-10901424D01*
X12945271Y-10901424D02*
X12964319Y-10910948D01*
X12964319Y-10910948D02*
X12973842Y-10920472D01*
X12973842Y-10920472D02*
X12983366Y-10939520D01*
X12983366Y-10939520D02*
X12983366Y-10987139D01*
X12983366Y-10987139D02*
X12973842Y-11006186D01*
X12973842Y-11006186D02*
X12964319Y-11015710D01*
X12964319Y-11015710D02*
X12945271Y-11025234D01*
X12945271Y-11025234D02*
X12897652Y-11025234D01*
X12897652Y-11025234D02*
X12878604Y-11015710D01*
X12878604Y-11015710D02*
X12869081Y-11006186D01*
X13050033Y-10825234D02*
X13183366Y-10825234D01*
X13183366Y-10825234D02*
X13097652Y-11025234D01*
X13354795Y-10825234D02*
X13259557Y-10825234D01*
X13259557Y-10825234D02*
X13250033Y-10920472D01*
X13250033Y-10920472D02*
X13259557Y-10910948D01*
X13259557Y-10910948D02*
X13278604Y-10901424D01*
X13278604Y-10901424D02*
X13326223Y-10901424D01*
X13326223Y-10901424D02*
X13345271Y-10910948D01*
X13345271Y-10910948D02*
X13354795Y-10920472D01*
X13354795Y-10920472D02*
X13364319Y-10939520D01*
X13364319Y-10939520D02*
X13364319Y-10987139D01*
X13364319Y-10987139D02*
X13354795Y-11006186D01*
X13354795Y-11006186D02*
X13345271Y-11015710D01*
X13345271Y-11015710D02*
X13326223Y-11025234D01*
X13326223Y-11025234D02*
X13278604Y-11025234D01*
X13278604Y-11025234D02*
X13259557Y-11015710D01*
X13259557Y-11015710D02*
X13250033Y-11006186D01*
X13440509Y-10825234D02*
X13440509Y-10863329D01*
X13516700Y-10825234D02*
X13516700Y-10863329D01*
X13811938Y-11101424D02*
X13802414Y-11091900D01*
X13802414Y-11091900D02*
X13783366Y-11063329D01*
X13783366Y-11063329D02*
X13773843Y-11044281D01*
X13773843Y-11044281D02*
X13764319Y-11015710D01*
X13764319Y-11015710D02*
X13754795Y-10968091D01*
X13754795Y-10968091D02*
X13754795Y-10929996D01*
X13754795Y-10929996D02*
X13764319Y-10882377D01*
X13764319Y-10882377D02*
X13773843Y-10853805D01*
X13773843Y-10853805D02*
X13783366Y-10834758D01*
X13783366Y-10834758D02*
X13802414Y-10806186D01*
X13802414Y-10806186D02*
X13811938Y-10796662D01*
X13992890Y-11025234D02*
X13878604Y-11025234D01*
X13935747Y-11025234D02*
X13935747Y-10825234D01*
X13935747Y-10825234D02*
X13916700Y-10853805D01*
X13916700Y-10853805D02*
X13897652Y-10872853D01*
X13897652Y-10872853D02*
X13878604Y-10882377D01*
X14116700Y-10825234D02*
X14135747Y-10825234D01*
X14135747Y-10825234D02*
X14154795Y-10834758D01*
X14154795Y-10834758D02*
X14164319Y-10844281D01*
X14164319Y-10844281D02*
X14173843Y-10863329D01*
X14173843Y-10863329D02*
X14183366Y-10901424D01*
X14183366Y-10901424D02*
X14183366Y-10949043D01*
X14183366Y-10949043D02*
X14173843Y-10987139D01*
X14173843Y-10987139D02*
X14164319Y-11006186D01*
X14164319Y-11006186D02*
X14154795Y-11015710D01*
X14154795Y-11015710D02*
X14135747Y-11025234D01*
X14135747Y-11025234D02*
X14116700Y-11025234D01*
X14116700Y-11025234D02*
X14097652Y-11015710D01*
X14097652Y-11015710D02*
X14088128Y-11006186D01*
X14088128Y-11006186D02*
X14078604Y-10987139D01*
X14078604Y-10987139D02*
X14069081Y-10949043D01*
X14069081Y-10949043D02*
X14069081Y-10901424D01*
X14069081Y-10901424D02*
X14078604Y-10863329D01*
X14078604Y-10863329D02*
X14088128Y-10844281D01*
X14088128Y-10844281D02*
X14097652Y-10834758D01*
X14097652Y-10834758D02*
X14116700Y-10825234D01*
X14421462Y-11025234D02*
X14421462Y-10825234D01*
X14507176Y-11025234D02*
X14507176Y-10920472D01*
X14507176Y-10920472D02*
X14497652Y-10901424D01*
X14497652Y-10901424D02*
X14478605Y-10891900D01*
X14478605Y-10891900D02*
X14450033Y-10891900D01*
X14450033Y-10891900D02*
X14430985Y-10901424D01*
X14430985Y-10901424D02*
X14421462Y-10910948D01*
X14630985Y-11025234D02*
X14611938Y-11015710D01*
X14611938Y-11015710D02*
X14602414Y-11006186D01*
X14602414Y-11006186D02*
X14592890Y-10987139D01*
X14592890Y-10987139D02*
X14592890Y-10929996D01*
X14592890Y-10929996D02*
X14602414Y-10910948D01*
X14602414Y-10910948D02*
X14611938Y-10901424D01*
X14611938Y-10901424D02*
X14630985Y-10891900D01*
X14630985Y-10891900D02*
X14659557Y-10891900D01*
X14659557Y-10891900D02*
X14678605Y-10901424D01*
X14678605Y-10901424D02*
X14688128Y-10910948D01*
X14688128Y-10910948D02*
X14697652Y-10929996D01*
X14697652Y-10929996D02*
X14697652Y-10987139D01*
X14697652Y-10987139D02*
X14688128Y-11006186D01*
X14688128Y-11006186D02*
X14678605Y-11015710D01*
X14678605Y-11015710D02*
X14659557Y-11025234D01*
X14659557Y-11025234D02*
X14630985Y-11025234D01*
X14811938Y-11025234D02*
X14792890Y-11015710D01*
X14792890Y-11015710D02*
X14783366Y-10996662D01*
X14783366Y-10996662D02*
X14783366Y-10825234D01*
X14964319Y-11015710D02*
X14945271Y-11025234D01*
X14945271Y-11025234D02*
X14907176Y-11025234D01*
X14907176Y-11025234D02*
X14888128Y-11015710D01*
X14888128Y-11015710D02*
X14878605Y-10996662D01*
X14878605Y-10996662D02*
X14878605Y-10920472D01*
X14878605Y-10920472D02*
X14888128Y-10901424D01*
X14888128Y-10901424D02*
X14907176Y-10891900D01*
X14907176Y-10891900D02*
X14945271Y-10891900D01*
X14945271Y-10891900D02*
X14964319Y-10901424D01*
X14964319Y-10901424D02*
X14973843Y-10920472D01*
X14973843Y-10920472D02*
X14973843Y-10939520D01*
X14973843Y-10939520D02*
X14878605Y-10958567D01*
X15050033Y-11015710D02*
X15069081Y-11025234D01*
X15069081Y-11025234D02*
X15107176Y-11025234D01*
X15107176Y-11025234D02*
X15126224Y-11015710D01*
X15126224Y-11015710D02*
X15135747Y-10996662D01*
X15135747Y-10996662D02*
X15135747Y-10987139D01*
X15135747Y-10987139D02*
X15126224Y-10968091D01*
X15126224Y-10968091D02*
X15107176Y-10958567D01*
X15107176Y-10958567D02*
X15078605Y-10958567D01*
X15078605Y-10958567D02*
X15059557Y-10949043D01*
X15059557Y-10949043D02*
X15050033Y-10929996D01*
X15050033Y-10929996D02*
X15050033Y-10920472D01*
X15050033Y-10920472D02*
X15059557Y-10901424D01*
X15059557Y-10901424D02*
X15078605Y-10891900D01*
X15078605Y-10891900D02*
X15107176Y-10891900D01*
X15107176Y-10891900D02*
X15126224Y-10901424D01*
X15202414Y-11101424D02*
X15211938Y-11091900D01*
X15211938Y-11091900D02*
X15230986Y-11063329D01*
X15230986Y-11063329D02*
X15240509Y-11044281D01*
X15240509Y-11044281D02*
X15250033Y-11015710D01*
X15250033Y-11015710D02*
X15259557Y-10968091D01*
X15259557Y-10968091D02*
X15259557Y-10929996D01*
X15259557Y-10929996D02*
X15250033Y-10882377D01*
X15250033Y-10882377D02*
X15240509Y-10853805D01*
X15240509Y-10853805D02*
X15230986Y-10834758D01*
X15230986Y-10834758D02*
X15211938Y-10806186D01*
X15211938Y-10806186D02*
X15202414Y-10796662D01*
X15564319Y-11101424D02*
X15554795Y-11091900D01*
X15554795Y-11091900D02*
X15535747Y-11063329D01*
X15535747Y-11063329D02*
X15526224Y-11044281D01*
X15526224Y-11044281D02*
X15516700Y-11015710D01*
X15516700Y-11015710D02*
X15507176Y-10968091D01*
X15507176Y-10968091D02*
X15507176Y-10929996D01*
X15507176Y-10929996D02*
X15516700Y-10882377D01*
X15516700Y-10882377D02*
X15526224Y-10853805D01*
X15526224Y-10853805D02*
X15535747Y-10834758D01*
X15535747Y-10834758D02*
X15554795Y-10806186D01*
X15554795Y-10806186D02*
X15564319Y-10796662D01*
X15640509Y-10891900D02*
X15640509Y-11025234D01*
X15640509Y-10910948D02*
X15650033Y-10901424D01*
X15650033Y-10901424D02*
X15669081Y-10891900D01*
X15669081Y-10891900D02*
X15697652Y-10891900D01*
X15697652Y-10891900D02*
X15716700Y-10901424D01*
X15716700Y-10901424D02*
X15726224Y-10920472D01*
X15726224Y-10920472D02*
X15726224Y-11025234D01*
X15850033Y-11025234D02*
X15830986Y-11015710D01*
X15830986Y-11015710D02*
X15821462Y-11006186D01*
X15821462Y-11006186D02*
X15811938Y-10987139D01*
X15811938Y-10987139D02*
X15811938Y-10929996D01*
X15811938Y-10929996D02*
X15821462Y-10910948D01*
X15821462Y-10910948D02*
X15830986Y-10901424D01*
X15830986Y-10901424D02*
X15850033Y-10891900D01*
X15850033Y-10891900D02*
X15878605Y-10891900D01*
X15878605Y-10891900D02*
X15897652Y-10901424D01*
X15897652Y-10901424D02*
X15907176Y-10910948D01*
X15907176Y-10910948D02*
X15916700Y-10929996D01*
X15916700Y-10929996D02*
X15916700Y-10987139D01*
X15916700Y-10987139D02*
X15907176Y-11006186D01*
X15907176Y-11006186D02*
X15897652Y-11015710D01*
X15897652Y-11015710D02*
X15878605Y-11025234D01*
X15878605Y-11025234D02*
X15850033Y-11025234D01*
X15973843Y-10891900D02*
X16050033Y-10891900D01*
X16002414Y-10825234D02*
X16002414Y-10996662D01*
X16002414Y-10996662D02*
X16011938Y-11015710D01*
X16011938Y-11015710D02*
X16030986Y-11025234D01*
X16030986Y-11025234D02*
X16050033Y-11025234D01*
X16269081Y-10891900D02*
X16269081Y-11091900D01*
X16269081Y-10901424D02*
X16288128Y-10891900D01*
X16288128Y-10891900D02*
X16326224Y-10891900D01*
X16326224Y-10891900D02*
X16345271Y-10901424D01*
X16345271Y-10901424D02*
X16354795Y-10910948D01*
X16354795Y-10910948D02*
X16364319Y-10929996D01*
X16364319Y-10929996D02*
X16364319Y-10987139D01*
X16364319Y-10987139D02*
X16354795Y-11006186D01*
X16354795Y-11006186D02*
X16345271Y-11015710D01*
X16345271Y-11015710D02*
X16326224Y-11025234D01*
X16326224Y-11025234D02*
X16288128Y-11025234D01*
X16288128Y-11025234D02*
X16269081Y-11015710D01*
X16478605Y-11025234D02*
X16459557Y-11015710D01*
X16459557Y-11015710D02*
X16450033Y-10996662D01*
X16450033Y-10996662D02*
X16450033Y-10825234D01*
X16640509Y-11025234D02*
X16640509Y-10920472D01*
X16640509Y-10920472D02*
X16630986Y-10901424D01*
X16630986Y-10901424D02*
X16611938Y-10891900D01*
X16611938Y-10891900D02*
X16573843Y-10891900D01*
X16573843Y-10891900D02*
X16554795Y-10901424D01*
X16640509Y-11015710D02*
X16621462Y-11025234D01*
X16621462Y-11025234D02*
X16573843Y-11025234D01*
X16573843Y-11025234D02*
X16554795Y-11015710D01*
X16554795Y-11015710D02*
X16545271Y-10996662D01*
X16545271Y-10996662D02*
X16545271Y-10977615D01*
X16545271Y-10977615D02*
X16554795Y-10958567D01*
X16554795Y-10958567D02*
X16573843Y-10949043D01*
X16573843Y-10949043D02*
X16621462Y-10949043D01*
X16621462Y-10949043D02*
X16640509Y-10939520D01*
X16707176Y-10891900D02*
X16783367Y-10891900D01*
X16735748Y-10825234D02*
X16735748Y-10996662D01*
X16735748Y-10996662D02*
X16745271Y-11015710D01*
X16745271Y-11015710D02*
X16764319Y-11025234D01*
X16764319Y-11025234D02*
X16783367Y-11025234D01*
X16926224Y-11015710D02*
X16907176Y-11025234D01*
X16907176Y-11025234D02*
X16869081Y-11025234D01*
X16869081Y-11025234D02*
X16850033Y-11015710D01*
X16850033Y-11015710D02*
X16840510Y-10996662D01*
X16840510Y-10996662D02*
X16840510Y-10920472D01*
X16840510Y-10920472D02*
X16850033Y-10901424D01*
X16850033Y-10901424D02*
X16869081Y-10891900D01*
X16869081Y-10891900D02*
X16907176Y-10891900D01*
X16907176Y-10891900D02*
X16926224Y-10901424D01*
X16926224Y-10901424D02*
X16935748Y-10920472D01*
X16935748Y-10920472D02*
X16935748Y-10939520D01*
X16935748Y-10939520D02*
X16840510Y-10958567D01*
X17107176Y-11025234D02*
X17107176Y-10825234D01*
X17107176Y-11015710D02*
X17088129Y-11025234D01*
X17088129Y-11025234D02*
X17050033Y-11025234D01*
X17050033Y-11025234D02*
X17030986Y-11015710D01*
X17030986Y-11015710D02*
X17021462Y-11006186D01*
X17021462Y-11006186D02*
X17011938Y-10987139D01*
X17011938Y-10987139D02*
X17011938Y-10929996D01*
X17011938Y-10929996D02*
X17021462Y-10910948D01*
X17021462Y-10910948D02*
X17030986Y-10901424D01*
X17030986Y-10901424D02*
X17050033Y-10891900D01*
X17050033Y-10891900D02*
X17088129Y-10891900D01*
X17088129Y-10891900D02*
X17107176Y-10901424D01*
X17183367Y-11101424D02*
X17192891Y-11091900D01*
X17192891Y-11091900D02*
X17211938Y-11063329D01*
X17211938Y-11063329D02*
X17221462Y-11044281D01*
X17221462Y-11044281D02*
X17230986Y-11015710D01*
X17230986Y-11015710D02*
X17240510Y-10968091D01*
X17240510Y-10968091D02*
X17240510Y-10929996D01*
X17240510Y-10929996D02*
X17230986Y-10882377D01*
X17230986Y-10882377D02*
X17221462Y-10853805D01*
X17221462Y-10853805D02*
X17211938Y-10834758D01*
X17211938Y-10834758D02*
X17192891Y-10806186D01*
X17192891Y-10806186D02*
X17183367Y-10796662D01*
M02*
