G04 #@! TF.GenerationSoftware,KiCad,Pcbnew,9.0.1*
G04 #@! TF.CreationDate,2025-06-11T13:57:41-04:00*
G04 #@! TF.ProjectId,hackpad,6861636b-7061-4642-9e6b-696361645f70,rev?*
G04 #@! TF.SameCoordinates,Original*
G04 #@! TF.FileFunction,Copper,L2,Bot*
G04 #@! TF.FilePolarity,Positive*
%FSLAX46Y46*%
G04 Gerber Fmt 4.6, Leading zero omitted, Abs format (unit mm)*
G04 Created by KiCad (PCBNEW 9.0.1) date 2025-06-11 13:57:41*
%MOMM*%
%LPD*%
G01*
G04 APERTURE LIST*
G04 #@! TA.AperFunction,ComponentPad*
%ADD10O,1.600000X1.600000*%
G04 #@! TD*
G04 #@! TA.AperFunction,ComponentPad*
%ADD11R,1.600000X1.600000*%
G04 #@! TD*
G04 #@! TA.AperFunction,ComponentPad*
%ADD12C,2.200000*%
G04 #@! TD*
G04 #@! TA.AperFunction,ComponentPad*
%ADD13C,1.524000*%
G04 #@! TD*
G04 #@! TA.AperFunction,ComponentPad*
%ADD14R,2.000000X2.000000*%
G04 #@! TD*
G04 #@! TA.AperFunction,ComponentPad*
%ADD15C,2.000000*%
G04 #@! TD*
G04 #@! TA.AperFunction,ComponentPad*
%ADD16R,3.200000X2.000000*%
G04 #@! TD*
G04 #@! TA.AperFunction,ViaPad*
%ADD17C,0.600000*%
G04 #@! TD*
G04 #@! TA.AperFunction,Conductor*
%ADD18C,0.200000*%
G04 #@! TD*
G04 APERTURE END LIST*
D10*
G04 #@! TO.P,D5,2,A*
G04 #@! TO.N,Net-(D5-A)*
X200025000Y-69056250D03*
D11*
G04 #@! TO.P,D5,1,K*
G04 #@! TO.N,Row 0*
X200025000Y-76676250D03*
G04 #@! TD*
D12*
G04 #@! TO.P,SW1,2,2*
G04 #@! TO.N,Net-(D1-A)*
X110331250Y-64135000D03*
G04 #@! TO.P,SW1,1,1*
G04 #@! TO.N,Col 0*
X116681250Y-61595000D03*
G04 #@! TD*
G04 #@! TO.P,SW3,2,2*
G04 #@! TO.N,Net-(D3-A)*
X148590000Y-64135000D03*
G04 #@! TO.P,SW3,1,1*
G04 #@! TO.N,Col 2*
X154940000Y-61595000D03*
G04 #@! TD*
G04 #@! TO.P,SW2,2,2*
G04 #@! TO.N,Net-(D2-A)*
X129540000Y-64135000D03*
G04 #@! TO.P,SW2,1,1*
G04 #@! TO.N,Col 1*
X135890000Y-61595000D03*
G04 #@! TD*
G04 #@! TO.P,SW5,2,2*
G04 #@! TO.N,Net-(D5-A)*
X186690000Y-64135000D03*
G04 #@! TO.P,SW5,1,1*
G04 #@! TO.N,Col 4*
X193040000Y-61595000D03*
G04 #@! TD*
G04 #@! TO.P,SW4,2,2*
G04 #@! TO.N,Net-(D4-A)*
X167640000Y-64135000D03*
G04 #@! TO.P,SW4,1,1*
G04 #@! TO.N,Col 3*
X173990000Y-61595000D03*
G04 #@! TD*
G04 #@! TO.P,SW10,2,2*
G04 #@! TO.N,Net-(D10-A)*
X186690000Y-83185000D03*
G04 #@! TO.P,SW10,1,1*
G04 #@! TO.N,Col 4*
X193040000Y-80645000D03*
G04 #@! TD*
D10*
G04 #@! TO.P,D1,2,A*
G04 #@! TO.N,Net-(D1-A)*
X123825000Y-69056250D03*
D11*
G04 #@! TO.P,D1,1,K*
G04 #@! TO.N,Row 0*
X123825000Y-76676250D03*
G04 #@! TD*
D13*
G04 #@! TO.P,U1,1,GPIO26/ADC0/A0*
G04 #@! TO.N,ENC A*
X224313750Y-78105000D03*
G04 #@! TO.P,U1,2,GPIO27/ADC1/A1*
G04 #@! TO.N,ENC B*
X221773750Y-78105000D03*
G04 #@! TO.P,U1,3,GPIO28/ADC2/A2*
G04 #@! TO.N,ENC SW*
X219233750Y-78105000D03*
G04 #@! TO.P,U1,4,GPIO29/ADC3/A3*
G04 #@! TO.N,unconnected-(U1-GPIO29{slash}ADC3{slash}A3-Pad4)*
X216693750Y-78105000D03*
G04 #@! TO.P,U1,5,GPIO6/SDA*
G04 #@! TO.N,Row 0*
X214153750Y-78105000D03*
G04 #@! TO.P,U1,6,GPIO7/SCL*
G04 #@! TO.N,Row 1*
X211613750Y-78105000D03*
G04 #@! TO.P,U1,7,GPIO0/TX*
G04 #@! TO.N,Col 0*
X209073750Y-78105000D03*
G04 #@! TO.P,U1,8,GPIO1/RX*
G04 #@! TO.N,Col 1*
X209073750Y-93345000D03*
G04 #@! TO.P,U1,9,GPIO2/SCK*
G04 #@! TO.N,Col 2*
X211613750Y-93345000D03*
G04 #@! TO.P,U1,10,GPIO4/MISO*
G04 #@! TO.N,Col 4*
X214153750Y-93345000D03*
G04 #@! TO.P,U1,11,GPIO3/MOSI*
G04 #@! TO.N,Col 3*
X216693750Y-93345000D03*
G04 #@! TO.P,U1,12,3V3*
G04 #@! TO.N,unconnected-(U1-3V3-Pad12)*
X219233750Y-93345000D03*
G04 #@! TO.P,U1,13,GND*
G04 #@! TO.N,unconnected-(U1-GND-Pad13)*
X221773750Y-93345000D03*
G04 #@! TO.P,U1,14,VBUS*
G04 #@! TO.N,unconnected-(U1-VBUS-Pad14)*
X224313750Y-93345000D03*
G04 #@! TD*
D14*
G04 #@! TO.P,SW11,A,A*
G04 #@! TO.N,ENC A*
X209193750Y-61793750D03*
D15*
G04 #@! TO.P,SW11,C,C*
G04 #@! TO.N,GND*
X209193750Y-64293750D03*
G04 #@! TO.P,SW11,B,B*
G04 #@! TO.N,ENC B*
X209193750Y-66793750D03*
D16*
G04 #@! TO.P,SW11,MP*
G04 #@! TO.N,N/C*
X216693750Y-58693750D03*
X216693750Y-69893750D03*
D15*
G04 #@! TO.P,SW11,S2,S2*
G04 #@! TO.N,GND*
X223693750Y-61793750D03*
G04 #@! TO.P,SW11,S1,S1*
G04 #@! TO.N,ENC SW*
X223693750Y-66793750D03*
G04 #@! TD*
D12*
G04 #@! TO.P,SW9,1,1*
G04 #@! TO.N,Col 3*
X173990000Y-80645000D03*
G04 #@! TO.P,SW9,2,2*
G04 #@! TO.N,Net-(D9-A)*
X167640000Y-83185000D03*
G04 #@! TD*
G04 #@! TO.P,SW8,1,1*
G04 #@! TO.N,Col 2*
X154940000Y-80645000D03*
G04 #@! TO.P,SW8,2,2*
G04 #@! TO.N,Net-(D8-A)*
X148590000Y-83185000D03*
G04 #@! TD*
G04 #@! TO.P,SW7,1,1*
G04 #@! TO.N,Col 1*
X135890000Y-80645000D03*
G04 #@! TO.P,SW7,2,2*
G04 #@! TO.N,Net-(D7-A)*
X129540000Y-83185000D03*
G04 #@! TD*
G04 #@! TO.P,SW6,1,1*
G04 #@! TO.N,Col 0*
X116840000Y-80645000D03*
G04 #@! TO.P,SW6,2,2*
G04 #@! TO.N,Net-(D6-A)*
X110490000Y-83185000D03*
G04 #@! TD*
D11*
G04 #@! TO.P,D10,1,K*
G04 #@! TO.N,Row 1*
X200025000Y-93345000D03*
D10*
G04 #@! TO.P,D10,2,A*
G04 #@! TO.N,Net-(D10-A)*
X200025000Y-85725000D03*
G04 #@! TD*
D11*
G04 #@! TO.P,D9,1,K*
G04 #@! TO.N,Row 1*
X180975000Y-93345000D03*
D10*
G04 #@! TO.P,D9,2,A*
G04 #@! TO.N,Net-(D9-A)*
X180975000Y-85725000D03*
G04 #@! TD*
D11*
G04 #@! TO.P,D8,1,K*
G04 #@! TO.N,Row 1*
X161925000Y-93345000D03*
D10*
G04 #@! TO.P,D8,2,A*
G04 #@! TO.N,Net-(D8-A)*
X161925000Y-85725000D03*
G04 #@! TD*
D11*
G04 #@! TO.P,D7,1,K*
G04 #@! TO.N,Row 1*
X142875000Y-93345000D03*
D10*
G04 #@! TO.P,D7,2,A*
G04 #@! TO.N,Net-(D7-A)*
X142875000Y-85725000D03*
G04 #@! TD*
D11*
G04 #@! TO.P,D6,1,K*
G04 #@! TO.N,Row 1*
X123825000Y-93345000D03*
D10*
G04 #@! TO.P,D6,2,A*
G04 #@! TO.N,Net-(D6-A)*
X123825000Y-85725000D03*
G04 #@! TD*
D11*
G04 #@! TO.P,D4,1,K*
G04 #@! TO.N,Row 0*
X180975000Y-76676250D03*
D10*
G04 #@! TO.P,D4,2,A*
G04 #@! TO.N,Net-(D4-A)*
X180975000Y-69056250D03*
G04 #@! TD*
D11*
G04 #@! TO.P,D3,1,K*
G04 #@! TO.N,Row 0*
X161925000Y-76676250D03*
D10*
G04 #@! TO.P,D3,2,A*
G04 #@! TO.N,Net-(D3-A)*
X161925000Y-69056250D03*
G04 #@! TD*
D11*
G04 #@! TO.P,D2,1,K*
G04 #@! TO.N,Row 0*
X142875000Y-76676250D03*
D10*
G04 #@! TO.P,D2,2,A*
G04 #@! TO.N,Net-(D2-A)*
X142875000Y-69056250D03*
G04 #@! TD*
D17*
G04 #@! TO.N,Col 4*
X204787500Y-95250000D03*
G04 #@! TO.N,Col 3*
X202406250Y-80962500D03*
G04 #@! TD*
D18*
G04 #@! TO.N,Col 4*
X204787500Y-92392500D02*
X204787500Y-95250000D01*
X193040000Y-80645000D02*
X204787500Y-92392500D01*
G04 #@! TO.N,Col 3*
X209073750Y-85725000D02*
X216693750Y-93345000D01*
X207168750Y-85725000D02*
X209073750Y-85725000D01*
X202406250Y-80962500D02*
X207168750Y-85725000D01*
G04 #@! TO.N,Col 2*
X156341000Y-79244000D02*
X197512750Y-79244000D01*
X197512750Y-79244000D02*
X211613750Y-93345000D01*
X154940000Y-80645000D02*
X156341000Y-79244000D01*
G04 #@! TO.N,Net-(D5-A)*
X195103750Y-64135000D02*
X200025000Y-69056250D01*
X186690000Y-64135000D02*
X195103750Y-64135000D01*
G04 #@! TO.N,Net-(D4-A)*
X176053750Y-64135000D02*
X180975000Y-69056250D01*
X167640000Y-64135000D02*
X176053750Y-64135000D01*
G04 #@! TO.N,Net-(D3-A)*
X157003750Y-64135000D02*
X161925000Y-69056250D01*
X148590000Y-64135000D02*
X157003750Y-64135000D01*
G04 #@! TO.N,Net-(D2-A)*
X129540000Y-64135000D02*
X137953750Y-64135000D01*
X137953750Y-64135000D02*
X142875000Y-69056250D01*
G04 #@! TO.N,Net-(D1-A)*
X119847316Y-69056250D02*
X123825000Y-69056250D01*
X114926066Y-64135000D02*
X119847316Y-69056250D01*
X110331250Y-64135000D02*
X114926066Y-64135000D01*
G04 #@! TO.N,Row 0*
X214153750Y-76041250D02*
X214153750Y-78105000D01*
X211931250Y-73818750D02*
X214153750Y-76041250D01*
X204787500Y-73818750D02*
X211931250Y-73818750D01*
X201930000Y-76676250D02*
X204787500Y-73818750D01*
X200025000Y-76676250D02*
X201930000Y-76676250D01*
X123825000Y-76676250D02*
X200025000Y-76676250D01*
G04 #@! TO.N,ENC SW*
X219233750Y-71253750D02*
X219233750Y-78105000D01*
X223693750Y-66793750D02*
X219233750Y-71253750D01*
G04 #@! TO.N,GND*
X221193750Y-64293750D02*
X223693750Y-61793750D01*
X209193750Y-64293750D02*
X221193750Y-64293750D01*
G04 #@! TO.N,Col 1*
X135890000Y-93027500D02*
X140493750Y-97631250D01*
X135890000Y-80645000D02*
X135890000Y-93027500D01*
X140493750Y-97631250D02*
X204787500Y-97631250D01*
X204787500Y-97631250D02*
X209073750Y-93345000D01*
G04 #@! TD*
G04 #@! TA.AperFunction,NonConductor*
G36*
X228042539Y-52907685D02*
G01*
X228088294Y-52960489D01*
X228099500Y-53012000D01*
X228099500Y-99388000D01*
X228079815Y-99455039D01*
X228027011Y-99500794D01*
X227975500Y-99512000D01*
X103018250Y-99512000D01*
X102951211Y-99492315D01*
X102905456Y-99439511D01*
X102894250Y-99388000D01*
X102894250Y-92497135D01*
X122524500Y-92497135D01*
X122524500Y-94192870D01*
X122524501Y-94192876D01*
X122530908Y-94252483D01*
X122581202Y-94387328D01*
X122581206Y-94387335D01*
X122667452Y-94502544D01*
X122667455Y-94502547D01*
X122782664Y-94588793D01*
X122782671Y-94588797D01*
X122917517Y-94639091D01*
X122917516Y-94639091D01*
X122924444Y-94639835D01*
X122977127Y-94645500D01*
X124672872Y-94645499D01*
X124732483Y-94639091D01*
X124867331Y-94588796D01*
X124982546Y-94502546D01*
X125068796Y-94387331D01*
X125119091Y-94252483D01*
X125125500Y-94192873D01*
X125125499Y-92497128D01*
X125119091Y-92437517D01*
X125098392Y-92382021D01*
X125068797Y-92302671D01*
X125068793Y-92302664D01*
X124982547Y-92187455D01*
X124982544Y-92187452D01*
X124867335Y-92101206D01*
X124867328Y-92101202D01*
X124732482Y-92050908D01*
X124732483Y-92050908D01*
X124672883Y-92044501D01*
X124672881Y-92044500D01*
X124672873Y-92044500D01*
X124672864Y-92044500D01*
X122977129Y-92044500D01*
X122977123Y-92044501D01*
X122917516Y-92050908D01*
X122782671Y-92101202D01*
X122782664Y-92101206D01*
X122667455Y-92187452D01*
X122667452Y-92187455D01*
X122581206Y-92302664D01*
X122581202Y-92302671D01*
X122530908Y-92437517D01*
X122524501Y-92497116D01*
X122524501Y-92497123D01*
X122524500Y-92497135D01*
X102894250Y-92497135D01*
X102894250Y-85638389D01*
X108119500Y-85638389D01*
X108119500Y-85811611D01*
X108146598Y-85982701D01*
X108200127Y-86147445D01*
X108278768Y-86301788D01*
X108380586Y-86441928D01*
X108503072Y-86564414D01*
X108643212Y-86666232D01*
X108797555Y-86744873D01*
X108962299Y-86798402D01*
X109133389Y-86825500D01*
X109133390Y-86825500D01*
X109306610Y-86825500D01*
X109306611Y-86825500D01*
X109477701Y-86798402D01*
X109642445Y-86744873D01*
X109796788Y-86666232D01*
X109936928Y-86564414D01*
X110059414Y-86441928D01*
X110161232Y-86301788D01*
X110239873Y-86147445D01*
X110293402Y-85982701D01*
X110320500Y-85811611D01*
X110320500Y-85638389D01*
X110310854Y-85577486D01*
X112049500Y-85577486D01*
X112049500Y-85872513D01*
X112070173Y-86029534D01*
X112088007Y-86164993D01*
X112162212Y-86441930D01*
X112164361Y-86449951D01*
X112164364Y-86449961D01*
X112277254Y-86722500D01*
X112277258Y-86722510D01*
X112424761Y-86977993D01*
X112604352Y-87212040D01*
X112604358Y-87212047D01*
X112812952Y-87420641D01*
X112812959Y-87420647D01*
X113047006Y-87600238D01*
X113302489Y-87747741D01*
X113302490Y-87747741D01*
X113302493Y-87747743D01*
X113575048Y-87860639D01*
X113860007Y-87936993D01*
X114152494Y-87975500D01*
X114152501Y-87975500D01*
X114447499Y-87975500D01*
X114447506Y-87975500D01*
X114739993Y-87936993D01*
X115024952Y-87860639D01*
X115297507Y-87747743D01*
X115552994Y-87600238D01*
X115787042Y-87420646D01*
X115995646Y-87212042D01*
X116175238Y-86977994D01*
X116322743Y-86722507D01*
X116435639Y-86449952D01*
X116511993Y-86164993D01*
X116550500Y-85872506D01*
X116550500Y-85638389D01*
X118279500Y-85638389D01*
X118279500Y-85811611D01*
X118306598Y-85982701D01*
X118360127Y-86147445D01*
X118438768Y-86301788D01*
X118540586Y-86441928D01*
X118663072Y-86564414D01*
X118803212Y-86666232D01*
X118957555Y-86744873D01*
X119122299Y-86798402D01*
X119293389Y-86825500D01*
X119293390Y-86825500D01*
X119466610Y-86825500D01*
X119466611Y-86825500D01*
X119637701Y-86798402D01*
X119802445Y-86744873D01*
X119956788Y-86666232D01*
X120096928Y-86564414D01*
X120219414Y-86441928D01*
X120321232Y-86301788D01*
X120399873Y-86147445D01*
X120453402Y-85982701D01*
X120480500Y-85811611D01*
X120480500Y-85638389D01*
X120478007Y-85622648D01*
X122524500Y-85622648D01*
X122524500Y-85827351D01*
X122556522Y-86029534D01*
X122619781Y-86224223D01*
X122712715Y-86406613D01*
X122833028Y-86572213D01*
X122977786Y-86716971D01*
X123127166Y-86825500D01*
X123143390Y-86837287D01*
X123259607Y-86896503D01*
X123325776Y-86930218D01*
X123325778Y-86930218D01*
X123325781Y-86930220D01*
X123397322Y-86953465D01*
X123520465Y-86993477D01*
X123621557Y-87009488D01*
X123722648Y-87025500D01*
X123722649Y-87025500D01*
X123927351Y-87025500D01*
X123927352Y-87025500D01*
X124129534Y-86993477D01*
X124324219Y-86930220D01*
X124506610Y-86837287D01*
X124633811Y-86744871D01*
X124672213Y-86716971D01*
X124672215Y-86716968D01*
X124672219Y-86716966D01*
X124816966Y-86572219D01*
X124816968Y-86572215D01*
X124816971Y-86572213D01*
X124869732Y-86499590D01*
X124937287Y-86406610D01*
X125030220Y-86224219D01*
X125093477Y-86029534D01*
X125125500Y-85827352D01*
X125125500Y-85638389D01*
X127169500Y-85638389D01*
X127169500Y-85811611D01*
X127196598Y-85982701D01*
X127250127Y-86147445D01*
X127328768Y-86301788D01*
X127430586Y-86441928D01*
X127553072Y-86564414D01*
X127693212Y-86666232D01*
X127847555Y-86744873D01*
X128012299Y-86798402D01*
X128183389Y-86825500D01*
X128183390Y-86825500D01*
X128356610Y-86825500D01*
X128356611Y-86825500D01*
X128527701Y-86798402D01*
X128692445Y-86744873D01*
X128846788Y-86666232D01*
X128986928Y-86564414D01*
X129109414Y-86441928D01*
X129211232Y-86301788D01*
X129289873Y-86147445D01*
X129343402Y-85982701D01*
X129370500Y-85811611D01*
X129370500Y-85638389D01*
X129360854Y-85577486D01*
X131099500Y-85577486D01*
X131099500Y-85872513D01*
X131120173Y-86029534D01*
X131138007Y-86164993D01*
X131212212Y-86441930D01*
X131214361Y-86449951D01*
X131214364Y-86449961D01*
X131327254Y-86722500D01*
X131327258Y-86722510D01*
X131474761Y-86977993D01*
X131654352Y-87212040D01*
X131654358Y-87212047D01*
X131862952Y-87420641D01*
X131862959Y-87420647D01*
X132097006Y-87600238D01*
X132352489Y-87747741D01*
X132352490Y-87747741D01*
X132352493Y-87747743D01*
X132625048Y-87860639D01*
X132910007Y-87936993D01*
X133202494Y-87975500D01*
X133202501Y-87975500D01*
X133497499Y-87975500D01*
X133497506Y-87975500D01*
X133789993Y-87936993D01*
X134074952Y-87860639D01*
X134347507Y-87747743D01*
X134602994Y-87600238D01*
X134837042Y-87420646D01*
X135045646Y-87212042D01*
X135067124Y-87184052D01*
X135123552Y-87142849D01*
X135193298Y-87138694D01*
X135254218Y-87172906D01*
X135286971Y-87234624D01*
X135289500Y-87259538D01*
X135289500Y-92940830D01*
X135289499Y-92940848D01*
X135289499Y-93106554D01*
X135289498Y-93106554D01*
X135330423Y-93259285D01*
X135359358Y-93309400D01*
X135359359Y-93309404D01*
X135359360Y-93309404D01*
X135409479Y-93396214D01*
X135409481Y-93396217D01*
X135528349Y-93515085D01*
X135528354Y-93515089D01*
X140125034Y-98111770D01*
X140125036Y-98111771D01*
X140125040Y-98111774D01*
X140261959Y-98190823D01*
X140261966Y-98190827D01*
X140414693Y-98231751D01*
X140414695Y-98231751D01*
X140580404Y-98231751D01*
X140580420Y-98231750D01*
X204700831Y-98231750D01*
X204700847Y-98231751D01*
X204708443Y-98231751D01*
X204866554Y-98231751D01*
X204866557Y-98231751D01*
X205019285Y-98190827D01*
X205069404Y-98161889D01*
X205156216Y-98111770D01*
X205268020Y-97999966D01*
X205268020Y-97999964D01*
X205278228Y-97989757D01*
X205278230Y-97989754D01*
X208659223Y-94608760D01*
X208720544Y-94575277D01*
X208773271Y-94575841D01*
X208773302Y-94575651D01*
X208774593Y-94575855D01*
X208775849Y-94575869D01*
X208778102Y-94576409D01*
X208778114Y-94576413D01*
X208974389Y-94607500D01*
X208974390Y-94607500D01*
X209173110Y-94607500D01*
X209173111Y-94607500D01*
X209369386Y-94576413D01*
X209558382Y-94515005D01*
X209735444Y-94424787D01*
X209896214Y-94307981D01*
X210036731Y-94167464D01*
X210153537Y-94006694D01*
X210233265Y-93850218D01*
X210281240Y-93799423D01*
X210349061Y-93782628D01*
X210415196Y-93805165D01*
X210454234Y-93850218D01*
X210533963Y-94006694D01*
X210650769Y-94167464D01*
X210791286Y-94307981D01*
X210952056Y-94424787D01*
X211038899Y-94469035D01*
X211129117Y-94515005D01*
X211129120Y-94515006D01*
X211223616Y-94545709D01*
X211318114Y-94576413D01*
X211514389Y-94607500D01*
X211514390Y-94607500D01*
X211713110Y-94607500D01*
X211713111Y-94607500D01*
X211909386Y-94576413D01*
X212098382Y-94515005D01*
X212275444Y-94424787D01*
X212436214Y-94307981D01*
X212576731Y-94167464D01*
X212693537Y-94006694D01*
X212773265Y-93850218D01*
X212821240Y-93799423D01*
X212889061Y-93782628D01*
X212955196Y-93805165D01*
X212994234Y-93850218D01*
X213073963Y-94006694D01*
X213190769Y-94167464D01*
X213331286Y-94307981D01*
X213492056Y-94424787D01*
X213578899Y-94469035D01*
X213669117Y-94515005D01*
X213669120Y-94515006D01*
X213763616Y-94545709D01*
X213858114Y-94576413D01*
X214054389Y-94607500D01*
X214054390Y-94607500D01*
X214253110Y-94607500D01*
X214253111Y-94607500D01*
X214449386Y-94576413D01*
X214638382Y-94515005D01*
X214815444Y-94424787D01*
X214976214Y-94307981D01*
X215116731Y-94167464D01*
X215233537Y-94006694D01*
X215313265Y-93850218D01*
X215361240Y-93799423D01*
X215429061Y-93782628D01*
X215495196Y-93805165D01*
X215534234Y-93850218D01*
X215613963Y-94006694D01*
X215730769Y-94167464D01*
X215871286Y-94307981D01*
X216032056Y-94424787D01*
X216118899Y-94469035D01*
X216209117Y-94515005D01*
X216209120Y-94515006D01*
X216303616Y-94545709D01*
X216398114Y-94576413D01*
X216594389Y-94607500D01*
X216594390Y-94607500D01*
X216793110Y-94607500D01*
X216793111Y-94607500D01*
X216989386Y-94576413D01*
X217178382Y-94515005D01*
X217355444Y-94424787D01*
X217516214Y-94307981D01*
X217656731Y-94167464D01*
X217773537Y-94006694D01*
X217853265Y-93850218D01*
X217901240Y-93799423D01*
X217969061Y-93782628D01*
X218035196Y-93805165D01*
X218074234Y-93850218D01*
X218153963Y-94006694D01*
X218270769Y-94167464D01*
X218411286Y-94307981D01*
X218572056Y-94424787D01*
X218658899Y-94469035D01*
X218749117Y-94515005D01*
X218749120Y-94515006D01*
X218843616Y-94545709D01*
X218938114Y-94576413D01*
X219134389Y-94607500D01*
X219134390Y-94607500D01*
X219333110Y-94607500D01*
X219333111Y-94607500D01*
X219529386Y-94576413D01*
X219718382Y-94515005D01*
X219895444Y-94424787D01*
X220056214Y-94307981D01*
X220196731Y-94167464D01*
X220313537Y-94006694D01*
X220393265Y-93850218D01*
X220441240Y-93799423D01*
X220509061Y-93782628D01*
X220575196Y-93805165D01*
X220614234Y-93850218D01*
X220693963Y-94006694D01*
X220810769Y-94167464D01*
X220951286Y-94307981D01*
X221112056Y-94424787D01*
X221198899Y-94469035D01*
X221289117Y-94515005D01*
X221289120Y-94515006D01*
X221383616Y-94545709D01*
X221478114Y-94576413D01*
X221674389Y-94607500D01*
X221674390Y-94607500D01*
X221873110Y-94607500D01*
X221873111Y-94607500D01*
X222069386Y-94576413D01*
X222258382Y-94515005D01*
X222435444Y-94424787D01*
X222596214Y-94307981D01*
X222736731Y-94167464D01*
X222853537Y-94006694D01*
X222933265Y-93850218D01*
X222981240Y-93799423D01*
X223049061Y-93782628D01*
X223115196Y-93805165D01*
X223154234Y-93850218D01*
X223233963Y-94006694D01*
X223350769Y-94167464D01*
X223491286Y-94307981D01*
X223652056Y-94424787D01*
X223738899Y-94469035D01*
X223829117Y-94515005D01*
X223829120Y-94515006D01*
X223923616Y-94545709D01*
X224018114Y-94576413D01*
X224214389Y-94607500D01*
X224214390Y-94607500D01*
X224413110Y-94607500D01*
X224413111Y-94607500D01*
X224609386Y-94576413D01*
X224798382Y-94515005D01*
X224975444Y-94424787D01*
X225136214Y-94307981D01*
X225276731Y-94167464D01*
X225393537Y-94006694D01*
X225483755Y-93829632D01*
X225545163Y-93640636D01*
X225576250Y-93444361D01*
X225576250Y-93245639D01*
X225545163Y-93049364D01*
X225509904Y-92940848D01*
X225483756Y-92860370D01*
X225483755Y-92860367D01*
X225393536Y-92683305D01*
X225381137Y-92666239D01*
X225276731Y-92522536D01*
X225136214Y-92382019D01*
X224975444Y-92265213D01*
X224798382Y-92174994D01*
X224798379Y-92174993D01*
X224609387Y-92113587D01*
X224511248Y-92098043D01*
X224413111Y-92082500D01*
X224214389Y-92082500D01*
X224148964Y-92092862D01*
X224018112Y-92113587D01*
X223829120Y-92174993D01*
X223829117Y-92174994D01*
X223652055Y-92265213D01*
X223491283Y-92382021D01*
X223350771Y-92522533D01*
X223233963Y-92683305D01*
X223154235Y-92839780D01*
X223106260Y-92890576D01*
X223038439Y-92907371D01*
X222972304Y-92884833D01*
X222933265Y-92839780D01*
X222853536Y-92683305D01*
X222841137Y-92666239D01*
X222736731Y-92522536D01*
X222596214Y-92382019D01*
X222435444Y-92265213D01*
X222258382Y-92174994D01*
X222258379Y-92174993D01*
X222069387Y-92113587D01*
X221971248Y-92098043D01*
X221873111Y-92082500D01*
X221674389Y-92082500D01*
X221608964Y-92092862D01*
X221478112Y-92113587D01*
X221289120Y-92174993D01*
X221289117Y-92174994D01*
X221112055Y-92265213D01*
X220951283Y-92382021D01*
X220810771Y-92522533D01*
X220693963Y-92683305D01*
X220614235Y-92839780D01*
X220566260Y-92890576D01*
X220498439Y-92907371D01*
X220432304Y-92884833D01*
X220393265Y-92839780D01*
X220313536Y-92683305D01*
X220301137Y-92666239D01*
X220196731Y-92522536D01*
X220056214Y-92382019D01*
X219895444Y-92265213D01*
X219718382Y-92174994D01*
X219718379Y-92174993D01*
X219529387Y-92113587D01*
X219431248Y-92098043D01*
X219333111Y-92082500D01*
X219134389Y-92082500D01*
X219068964Y-92092862D01*
X218938112Y-92113587D01*
X218749120Y-92174993D01*
X218749117Y-92174994D01*
X218572055Y-92265213D01*
X218411283Y-92382021D01*
X218270771Y-92522533D01*
X218153963Y-92683305D01*
X218074235Y-92839780D01*
X218026260Y-92890576D01*
X217958439Y-92907371D01*
X217892304Y-92884833D01*
X217853265Y-92839780D01*
X217773536Y-92683305D01*
X217761137Y-92666239D01*
X217656731Y-92522536D01*
X217516214Y-92382019D01*
X217355444Y-92265213D01*
X217178382Y-92174994D01*
X217178379Y-92174993D01*
X216989387Y-92113587D01*
X216891248Y-92098043D01*
X216793111Y-92082500D01*
X216594389Y-92082500D01*
X216555134Y-92088717D01*
X216398110Y-92113587D01*
X216395837Y-92114133D01*
X216394947Y-92114088D01*
X216393302Y-92114349D01*
X216393247Y-92114003D01*
X216326055Y-92110635D01*
X216279222Y-92081237D01*
X209561340Y-85363355D01*
X209561338Y-85363352D01*
X209442467Y-85244481D01*
X209442466Y-85244480D01*
X209355654Y-85194360D01*
X209355654Y-85194359D01*
X209355650Y-85194358D01*
X209305535Y-85165423D01*
X209152807Y-85124499D01*
X208994693Y-85124499D01*
X208987097Y-85124499D01*
X208987081Y-85124500D01*
X207468847Y-85124500D01*
X207401808Y-85104815D01*
X207381166Y-85088181D01*
X203240824Y-80947839D01*
X203207339Y-80886516D01*
X203206888Y-80884349D01*
X203175988Y-80729010D01*
X203175987Y-80729003D01*
X203175985Y-80728998D01*
X203115647Y-80583327D01*
X203115640Y-80583314D01*
X203028039Y-80452211D01*
X203028036Y-80452207D01*
X202916542Y-80340713D01*
X202916538Y-80340710D01*
X202785435Y-80253109D01*
X202785422Y-80253102D01*
X202639751Y-80192764D01*
X202639739Y-80192761D01*
X202485095Y-80162000D01*
X202485092Y-80162000D01*
X202327408Y-80162000D01*
X202327405Y-80162000D01*
X202172760Y-80192761D01*
X202172748Y-80192764D01*
X202027077Y-80253102D01*
X202027064Y-80253109D01*
X201895961Y-80340710D01*
X201895957Y-80340713D01*
X201784463Y-80452207D01*
X201784460Y-80452211D01*
X201696859Y-80583314D01*
X201696852Y-80583327D01*
X201636514Y-80728998D01*
X201636511Y-80729010D01*
X201605750Y-80883653D01*
X201605750Y-81041346D01*
X201636511Y-81195989D01*
X201636514Y-81196001D01*
X201696852Y-81341672D01*
X201696859Y-81341685D01*
X201784460Y-81472788D01*
X201784463Y-81472792D01*
X201895957Y-81584286D01*
X201895961Y-81584289D01*
X202027064Y-81671890D01*
X202027077Y-81671897D01*
X202099174Y-81701760D01*
X202172753Y-81732237D01*
X202237397Y-81745095D01*
X202328099Y-81763138D01*
X202390010Y-81795523D01*
X202391589Y-81797074D01*
X206683889Y-86089374D01*
X206683899Y-86089385D01*
X206688229Y-86093715D01*
X206688230Y-86093716D01*
X206800034Y-86205520D01*
X206886845Y-86255639D01*
X206886847Y-86255641D01*
X206924901Y-86277611D01*
X206936965Y-86284577D01*
X207089693Y-86325500D01*
X207247807Y-86325500D01*
X208773653Y-86325500D01*
X208840692Y-86345185D01*
X208861334Y-86361819D01*
X214374057Y-91874542D01*
X214407542Y-91935865D01*
X214402558Y-92005557D01*
X214360686Y-92061490D01*
X214295222Y-92085907D01*
X214266982Y-92084697D01*
X214253111Y-92082500D01*
X214054389Y-92082500D01*
X213988964Y-92092862D01*
X213858112Y-92113587D01*
X213669120Y-92174993D01*
X213669117Y-92174994D01*
X213492055Y-92265213D01*
X213331283Y-92382021D01*
X213190771Y-92522533D01*
X213073963Y-92683305D01*
X212994235Y-92839780D01*
X212946260Y-92890576D01*
X212878439Y-92907371D01*
X212812304Y-92884833D01*
X212773265Y-92839780D01*
X212693536Y-92683305D01*
X212681137Y-92666239D01*
X212576731Y-92522536D01*
X212436214Y-92382019D01*
X212275444Y-92265213D01*
X212098382Y-92174994D01*
X212098379Y-92174993D01*
X211909387Y-92113587D01*
X211811248Y-92098043D01*
X211713111Y-92082500D01*
X211514389Y-92082500D01*
X211475134Y-92088717D01*
X211318110Y-92113587D01*
X211315837Y-92114133D01*
X211314947Y-92114088D01*
X211313302Y-92114349D01*
X211313247Y-92114003D01*
X211246055Y-92110635D01*
X211199222Y-92081237D01*
X198000340Y-78882355D01*
X198000338Y-78882352D01*
X197881467Y-78763481D01*
X197881459Y-78763475D01*
X197781042Y-78705500D01*
X197781041Y-78705499D01*
X197781041Y-78705500D01*
X197744535Y-78684423D01*
X197591807Y-78643499D01*
X197433693Y-78643499D01*
X197426097Y-78643499D01*
X197426081Y-78643500D01*
X156261942Y-78643500D01*
X156109213Y-78684423D01*
X156072709Y-78705500D01*
X156072708Y-78705500D01*
X155972287Y-78763477D01*
X155972282Y-78763481D01*
X155860478Y-78875286D01*
X155622923Y-79112840D01*
X155561600Y-79146325D01*
X155496924Y-79143090D01*
X155314787Y-79083910D01*
X155148903Y-79057636D01*
X155065962Y-79044500D01*
X154814038Y-79044500D01*
X154689626Y-79064205D01*
X154565214Y-79083910D01*
X154325616Y-79161760D01*
X154101151Y-79276132D01*
X153897350Y-79424201D01*
X153897345Y-79424205D01*
X153719205Y-79602345D01*
X153719201Y-79602350D01*
X153571132Y-79806151D01*
X153456760Y-80030616D01*
X153378910Y-80270214D01*
X153367744Y-80340711D01*
X153339500Y-80519038D01*
X153339500Y-80770962D01*
X153357459Y-80884349D01*
X153378910Y-81019785D01*
X153456760Y-81259383D01*
X153535413Y-81413747D01*
X153565498Y-81472792D01*
X153571132Y-81483848D01*
X153719201Y-81687649D01*
X153719205Y-81687654D01*
X153897345Y-81865794D01*
X153897350Y-81865798D01*
X154075117Y-81994952D01*
X154101155Y-82013870D01*
X154244184Y-82086747D01*
X154325616Y-82128239D01*
X154325618Y-82128239D01*
X154325621Y-82128241D01*
X154565215Y-82206090D01*
X154814038Y-82245500D01*
X154814039Y-82245500D01*
X155065961Y-82245500D01*
X155065962Y-82245500D01*
X155314785Y-82206090D01*
X155554379Y-82128241D01*
X155778845Y-82013870D01*
X155982656Y-81865793D01*
X156160793Y-81687656D01*
X156308870Y-81483845D01*
X156423241Y-81259379D01*
X156501090Y-81019785D01*
X156540500Y-80770962D01*
X156540500Y-80519038D01*
X156501090Y-80270215D01*
X156501089Y-80270211D01*
X156501089Y-80270210D01*
X156441909Y-80088074D01*
X156441474Y-80072860D01*
X156436156Y-80058601D01*
X156440497Y-80038645D01*
X156439914Y-80018233D01*
X156448001Y-80004146D01*
X156451008Y-79990328D01*
X156472155Y-79962079D01*
X156553417Y-79880817D01*
X156614740Y-79847334D01*
X156641097Y-79844500D01*
X172399242Y-79844500D01*
X172466281Y-79864185D01*
X172512036Y-79916989D01*
X172521980Y-79986147D01*
X172509728Y-80024792D01*
X172506762Y-80030613D01*
X172506760Y-80030618D01*
X172506759Y-80030621D01*
X172464071Y-80162000D01*
X172428910Y-80270214D01*
X172417744Y-80340711D01*
X172389500Y-80519038D01*
X172389500Y-80770962D01*
X172407459Y-80884349D01*
X172428910Y-81019785D01*
X172506760Y-81259383D01*
X172585413Y-81413747D01*
X172615498Y-81472792D01*
X172621132Y-81483848D01*
X172769201Y-81687649D01*
X172769205Y-81687654D01*
X172947345Y-81865794D01*
X172947350Y-81865798D01*
X173125117Y-81994952D01*
X173151155Y-82013870D01*
X173294184Y-82086747D01*
X173375616Y-82128239D01*
X173375618Y-82128239D01*
X173375621Y-82128241D01*
X173615215Y-82206090D01*
X173864038Y-82245500D01*
X173864039Y-82245500D01*
X174115961Y-82245500D01*
X174115962Y-82245500D01*
X174364785Y-82206090D01*
X174604379Y-82128241D01*
X174828845Y-82013870D01*
X175032656Y-81865793D01*
X175210793Y-81687656D01*
X175358870Y-81483845D01*
X175473241Y-81259379D01*
X175551090Y-81019785D01*
X175590500Y-80770962D01*
X175590500Y-80519038D01*
X175551090Y-80270215D01*
X175473241Y-80030621D01*
X175473237Y-80030613D01*
X175470272Y-80024792D01*
X175457377Y-79956122D01*
X175483655Y-79891383D01*
X175540763Y-79851127D01*
X175580758Y-79844500D01*
X191449242Y-79844500D01*
X191516281Y-79864185D01*
X191562036Y-79916989D01*
X191571980Y-79986147D01*
X191559728Y-80024792D01*
X191556762Y-80030613D01*
X191556760Y-80030618D01*
X191556759Y-80030621D01*
X191514071Y-80162000D01*
X191478910Y-80270214D01*
X191467744Y-80340711D01*
X191439500Y-80519038D01*
X191439500Y-80770962D01*
X191457459Y-80884349D01*
X191478910Y-81019785D01*
X191556760Y-81259383D01*
X191635413Y-81413747D01*
X191665498Y-81472792D01*
X191671132Y-81483848D01*
X191819201Y-81687649D01*
X191819205Y-81687654D01*
X191997345Y-81865794D01*
X191997350Y-81865798D01*
X192175117Y-81994952D01*
X192201155Y-82013870D01*
X192344184Y-82086747D01*
X192425616Y-82128239D01*
X192425618Y-82128239D01*
X192425621Y-82128241D01*
X192665215Y-82206090D01*
X192914038Y-82245500D01*
X192914039Y-82245500D01*
X193165961Y-82245500D01*
X193165962Y-82245500D01*
X193414785Y-82206090D01*
X193596928Y-82146907D01*
X193666764Y-82144912D01*
X193722923Y-82177158D01*
X196005252Y-84459487D01*
X196038737Y-84520810D01*
X196033753Y-84590502D01*
X195991881Y-84646435D01*
X195926417Y-84670852D01*
X195879254Y-84665099D01*
X195837702Y-84651598D01*
X195837698Y-84651597D01*
X195706271Y-84630781D01*
X195666611Y-84624500D01*
X195493389Y-84624500D01*
X195453728Y-84630781D01*
X195322302Y-84651597D01*
X195157552Y-84705128D01*
X195003211Y-84783768D01*
X194946289Y-84825125D01*
X194863072Y-84885586D01*
X194863070Y-84885588D01*
X194863069Y-84885588D01*
X194740588Y-85008069D01*
X194740588Y-85008070D01*
X194740586Y-85008072D01*
X194714929Y-85043386D01*
X194638768Y-85148211D01*
X194560128Y-85302552D01*
X194506597Y-85467302D01*
X194481993Y-85622648D01*
X194479500Y-85638389D01*
X194479500Y-85811611D01*
X194506598Y-85982701D01*
X194560127Y-86147445D01*
X194638768Y-86301788D01*
X194740586Y-86441928D01*
X194863072Y-86564414D01*
X195003212Y-86666232D01*
X195157555Y-86744873D01*
X195322299Y-86798402D01*
X195493389Y-86825500D01*
X195493390Y-86825500D01*
X195666610Y-86825500D01*
X195666611Y-86825500D01*
X195837701Y-86798402D01*
X196002445Y-86744873D01*
X196156788Y-86666232D01*
X196296928Y-86564414D01*
X196419414Y-86441928D01*
X196521232Y-86301788D01*
X196599873Y-86147445D01*
X196653402Y-85982701D01*
X196680500Y-85811611D01*
X196680500Y-85638389D01*
X196653402Y-85467299D01*
X196639899Y-85425744D01*
X196637905Y-85355906D01*
X196673985Y-85296073D01*
X196736686Y-85265244D01*
X196806100Y-85273208D01*
X196845512Y-85299747D01*
X204150681Y-92604916D01*
X204184166Y-92666239D01*
X204187000Y-92692597D01*
X204187000Y-94670234D01*
X204167315Y-94737273D01*
X204166102Y-94739125D01*
X204078109Y-94870814D01*
X204078102Y-94870827D01*
X204017764Y-95016498D01*
X204017761Y-95016510D01*
X203987000Y-95171153D01*
X203987000Y-95328846D01*
X204017761Y-95483489D01*
X204017764Y-95483501D01*
X204078102Y-95629172D01*
X204078109Y-95629185D01*
X204165710Y-95760288D01*
X204165713Y-95760292D01*
X204277207Y-95871786D01*
X204277211Y-95871789D01*
X204408314Y-95959390D01*
X204408327Y-95959397D01*
X204553998Y-96019735D01*
X204554003Y-96019737D01*
X204708653Y-96050499D01*
X204708656Y-96050500D01*
X204708658Y-96050500D01*
X204866344Y-96050500D01*
X204866345Y-96050499D01*
X205020997Y-96019737D01*
X205166679Y-95959394D01*
X205297789Y-95871789D01*
X205409289Y-95760289D01*
X205496894Y-95629179D01*
X205557237Y-95483497D01*
X205588000Y-95328842D01*
X205588000Y-95171158D01*
X205588000Y-95171155D01*
X205587999Y-95171153D01*
X205557238Y-95016510D01*
X205557237Y-95016503D01*
X205557235Y-95016498D01*
X205496897Y-94870827D01*
X205496890Y-94870814D01*
X205408898Y-94739125D01*
X205388020Y-94672447D01*
X205388000Y-94670234D01*
X205388000Y-92481559D01*
X205388001Y-92481546D01*
X205388001Y-92313445D01*
X205388001Y-92313443D01*
X205347077Y-92160715D01*
X205283680Y-92050909D01*
X205268020Y-92023784D01*
X205156216Y-91911980D01*
X205156213Y-91911978D01*
X200403312Y-87159077D01*
X200369827Y-87097754D01*
X200374811Y-87028062D01*
X200416683Y-86972129D01*
X200452672Y-86953466D01*
X200524219Y-86930220D01*
X200706610Y-86837287D01*
X200833811Y-86744871D01*
X200872213Y-86716971D01*
X200872215Y-86716968D01*
X200872219Y-86716966D01*
X201016966Y-86572219D01*
X201016968Y-86572215D01*
X201016971Y-86572213D01*
X201069732Y-86499590D01*
X201137287Y-86406610D01*
X201230220Y-86224219D01*
X201293477Y-86029534D01*
X201325500Y-85827352D01*
X201325500Y-85622648D01*
X201300895Y-85467299D01*
X201293477Y-85420465D01*
X201236296Y-85244481D01*
X201230220Y-85225781D01*
X201230218Y-85225778D01*
X201230218Y-85225776D01*
X201196503Y-85159607D01*
X201137287Y-85043390D01*
X201111625Y-85008069D01*
X201016971Y-84877786D01*
X200872213Y-84733028D01*
X200706613Y-84612715D01*
X200706612Y-84612714D01*
X200706610Y-84612713D01*
X200648905Y-84583311D01*
X200524223Y-84519781D01*
X200329534Y-84456522D01*
X200154995Y-84428878D01*
X200127352Y-84424500D01*
X199922648Y-84424500D01*
X199898329Y-84428351D01*
X199720465Y-84456522D01*
X199525776Y-84519781D01*
X199343386Y-84612715D01*
X199177786Y-84733028D01*
X199033028Y-84877786D01*
X198912715Y-85043386D01*
X198819781Y-85225776D01*
X198796534Y-85297325D01*
X198757096Y-85355000D01*
X198692737Y-85382198D01*
X198623891Y-85370283D01*
X198590922Y-85346687D01*
X194572158Y-81327923D01*
X194538673Y-81266600D01*
X194541907Y-81201928D01*
X194601090Y-81019785D01*
X194640500Y-80770962D01*
X194640500Y-80519038D01*
X194601090Y-80270215D01*
X194523241Y-80030621D01*
X194523237Y-80030613D01*
X194520272Y-80024792D01*
X194507377Y-79956122D01*
X194533655Y-79891383D01*
X194590763Y-79851127D01*
X194630758Y-79844500D01*
X197212653Y-79844500D01*
X197279692Y-79864185D01*
X197300334Y-79880819D01*
X209294057Y-91874542D01*
X209327542Y-91935865D01*
X209322558Y-92005557D01*
X209280686Y-92061490D01*
X209215222Y-92085907D01*
X209186982Y-92084697D01*
X209173111Y-92082500D01*
X208974389Y-92082500D01*
X208908964Y-92092862D01*
X208778112Y-92113587D01*
X208589120Y-92174993D01*
X208589117Y-92174994D01*
X208412055Y-92265213D01*
X208251283Y-92382021D01*
X208110771Y-92522533D01*
X207993963Y-92683305D01*
X207903744Y-92860367D01*
X207903743Y-92860370D01*
X207842337Y-93049362D01*
X207811250Y-93245639D01*
X207811250Y-93444360D01*
X207842336Y-93640636D01*
X207842881Y-93642903D01*
X207842836Y-93643790D01*
X207843099Y-93645448D01*
X207842750Y-93645503D01*
X207839388Y-93712685D01*
X207809987Y-93759526D01*
X204575084Y-96994431D01*
X204513761Y-97027916D01*
X204487403Y-97030750D01*
X140793848Y-97030750D01*
X140726809Y-97011065D01*
X140706167Y-96994431D01*
X136526819Y-92815083D01*
X136512115Y-92788155D01*
X136495523Y-92762337D01*
X136494631Y-92756136D01*
X136493334Y-92753760D01*
X136490500Y-92727402D01*
X136490500Y-92497135D01*
X141574500Y-92497135D01*
X141574500Y-94192870D01*
X141574501Y-94192876D01*
X141580908Y-94252483D01*
X141631202Y-94387328D01*
X141631206Y-94387335D01*
X141717452Y-94502544D01*
X141717455Y-94502547D01*
X141832664Y-94588793D01*
X141832671Y-94588797D01*
X141967517Y-94639091D01*
X141967516Y-94639091D01*
X141974444Y-94639835D01*
X142027127Y-94645500D01*
X143722872Y-94645499D01*
X143782483Y-94639091D01*
X143917331Y-94588796D01*
X144032546Y-94502546D01*
X144118796Y-94387331D01*
X144169091Y-94252483D01*
X144175500Y-94192873D01*
X144175499Y-92497135D01*
X160624500Y-92497135D01*
X160624500Y-94192870D01*
X160624501Y-94192876D01*
X160630908Y-94252483D01*
X160681202Y-94387328D01*
X160681206Y-94387335D01*
X160767452Y-94502544D01*
X160767455Y-94502547D01*
X160882664Y-94588793D01*
X160882671Y-94588797D01*
X161017517Y-94639091D01*
X161017516Y-94639091D01*
X161024444Y-94639835D01*
X161077127Y-94645500D01*
X162772872Y-94645499D01*
X162832483Y-94639091D01*
X162967331Y-94588796D01*
X163082546Y-94502546D01*
X163168796Y-94387331D01*
X163219091Y-94252483D01*
X163225500Y-94192873D01*
X163225499Y-92497135D01*
X179674500Y-92497135D01*
X179674500Y-94192870D01*
X179674501Y-94192876D01*
X179680908Y-94252483D01*
X179731202Y-94387328D01*
X179731206Y-94387335D01*
X179817452Y-94502544D01*
X179817455Y-94502547D01*
X179932664Y-94588793D01*
X179932671Y-94588797D01*
X180067517Y-94639091D01*
X180067516Y-94639091D01*
X180074444Y-94639835D01*
X180127127Y-94645500D01*
X181822872Y-94645499D01*
X181882483Y-94639091D01*
X182017331Y-94588796D01*
X182132546Y-94502546D01*
X182218796Y-94387331D01*
X182269091Y-94252483D01*
X182275500Y-94192873D01*
X182275499Y-92497135D01*
X198724500Y-92497135D01*
X198724500Y-94192870D01*
X198724501Y-94192876D01*
X198730908Y-94252483D01*
X198781202Y-94387328D01*
X198781206Y-94387335D01*
X198867452Y-94502544D01*
X198867455Y-94502547D01*
X198982664Y-94588793D01*
X198982671Y-94588797D01*
X199117517Y-94639091D01*
X199117516Y-94639091D01*
X199124444Y-94639835D01*
X199177127Y-94645500D01*
X200872872Y-94645499D01*
X200932483Y-94639091D01*
X201067331Y-94588796D01*
X201182546Y-94502546D01*
X201268796Y-94387331D01*
X201319091Y-94252483D01*
X201325500Y-94192873D01*
X201325499Y-92497128D01*
X201319091Y-92437517D01*
X201298392Y-92382021D01*
X201268797Y-92302671D01*
X201268793Y-92302664D01*
X201182547Y-92187455D01*
X201182544Y-92187452D01*
X201067335Y-92101206D01*
X201067328Y-92101202D01*
X200932482Y-92050908D01*
X200932483Y-92050908D01*
X200872883Y-92044501D01*
X200872881Y-92044500D01*
X200872873Y-92044500D01*
X200872864Y-92044500D01*
X199177129Y-92044500D01*
X199177123Y-92044501D01*
X199117516Y-92050908D01*
X198982671Y-92101202D01*
X198982664Y-92101206D01*
X198867455Y-92187452D01*
X198867452Y-92187455D01*
X198781206Y-92302664D01*
X198781202Y-92302671D01*
X198730908Y-92437517D01*
X198724501Y-92497116D01*
X198724501Y-92497123D01*
X198724500Y-92497135D01*
X182275499Y-92497135D01*
X182275499Y-92497128D01*
X182269091Y-92437517D01*
X182248392Y-92382021D01*
X182218797Y-92302671D01*
X182218793Y-92302664D01*
X182132547Y-92187455D01*
X182132544Y-92187452D01*
X182017335Y-92101206D01*
X182017328Y-92101202D01*
X181882482Y-92050908D01*
X181882483Y-92050908D01*
X181822883Y-92044501D01*
X181822881Y-92044500D01*
X181822873Y-92044500D01*
X181822864Y-92044500D01*
X180127129Y-92044500D01*
X180127123Y-92044501D01*
X180067516Y-92050908D01*
X179932671Y-92101202D01*
X179932664Y-92101206D01*
X179817455Y-92187452D01*
X179817452Y-92187455D01*
X179731206Y-92302664D01*
X179731202Y-92302671D01*
X179680908Y-92437517D01*
X179674501Y-92497116D01*
X179674501Y-92497123D01*
X179674500Y-92497135D01*
X163225499Y-92497135D01*
X163225499Y-92497128D01*
X163219091Y-92437517D01*
X163198392Y-92382021D01*
X163168797Y-92302671D01*
X163168793Y-92302664D01*
X163082547Y-92187455D01*
X163082544Y-92187452D01*
X162967335Y-92101206D01*
X162967328Y-92101202D01*
X162832482Y-92050908D01*
X162832483Y-92050908D01*
X162772883Y-92044501D01*
X162772881Y-92044500D01*
X162772873Y-92044500D01*
X162772864Y-92044500D01*
X161077129Y-92044500D01*
X161077123Y-92044501D01*
X161017516Y-92050908D01*
X160882671Y-92101202D01*
X160882664Y-92101206D01*
X160767455Y-92187452D01*
X160767452Y-92187455D01*
X160681206Y-92302664D01*
X160681202Y-92302671D01*
X160630908Y-92437517D01*
X160624501Y-92497116D01*
X160624501Y-92497123D01*
X160624500Y-92497135D01*
X144175499Y-92497135D01*
X144175499Y-92497128D01*
X144169091Y-92437517D01*
X144148392Y-92382021D01*
X144118797Y-92302671D01*
X144118793Y-92302664D01*
X144032547Y-92187455D01*
X144032544Y-92187452D01*
X143917335Y-92101206D01*
X143917328Y-92101202D01*
X143782482Y-92050908D01*
X143782483Y-92050908D01*
X143722883Y-92044501D01*
X143722881Y-92044500D01*
X143722873Y-92044500D01*
X143722864Y-92044500D01*
X142027129Y-92044500D01*
X142027123Y-92044501D01*
X141967516Y-92050908D01*
X141832671Y-92101202D01*
X141832664Y-92101206D01*
X141717455Y-92187452D01*
X141717452Y-92187455D01*
X141631206Y-92302664D01*
X141631202Y-92302671D01*
X141580908Y-92437517D01*
X141574501Y-92497116D01*
X141574501Y-92497123D01*
X141574500Y-92497135D01*
X136490500Y-92497135D01*
X136490500Y-85638389D01*
X137329500Y-85638389D01*
X137329500Y-85811611D01*
X137356598Y-85982701D01*
X137410127Y-86147445D01*
X137488768Y-86301788D01*
X137590586Y-86441928D01*
X137713072Y-86564414D01*
X137853212Y-86666232D01*
X138007555Y-86744873D01*
X138172299Y-86798402D01*
X138343389Y-86825500D01*
X138343390Y-86825500D01*
X138516610Y-86825500D01*
X138516611Y-86825500D01*
X138687701Y-86798402D01*
X138852445Y-86744873D01*
X139006788Y-86666232D01*
X139146928Y-86564414D01*
X139269414Y-86441928D01*
X139371232Y-86301788D01*
X139449873Y-86147445D01*
X139503402Y-85982701D01*
X139530500Y-85811611D01*
X139530500Y-85638389D01*
X139528007Y-85622648D01*
X141574500Y-85622648D01*
X141574500Y-85827351D01*
X141606522Y-86029534D01*
X141669781Y-86224223D01*
X141762715Y-86406613D01*
X141883028Y-86572213D01*
X142027786Y-86716971D01*
X142177166Y-86825500D01*
X142193390Y-86837287D01*
X142309607Y-86896503D01*
X142375776Y-86930218D01*
X142375778Y-86930218D01*
X142375781Y-86930220D01*
X142447322Y-86953465D01*
X142570465Y-86993477D01*
X142671557Y-87009488D01*
X142772648Y-87025500D01*
X142772649Y-87025500D01*
X142977351Y-87025500D01*
X142977352Y-87025500D01*
X143179534Y-86993477D01*
X143374219Y-86930220D01*
X143556610Y-86837287D01*
X143683811Y-86744871D01*
X143722213Y-86716971D01*
X143722215Y-86716968D01*
X143722219Y-86716966D01*
X143866966Y-86572219D01*
X143866968Y-86572215D01*
X143866971Y-86572213D01*
X143919732Y-86499590D01*
X143987287Y-86406610D01*
X144080220Y-86224219D01*
X144143477Y-86029534D01*
X144175500Y-85827352D01*
X144175500Y-85638389D01*
X146219500Y-85638389D01*
X146219500Y-85811611D01*
X146246598Y-85982701D01*
X146300127Y-86147445D01*
X146378768Y-86301788D01*
X146480586Y-86441928D01*
X146603072Y-86564414D01*
X146743212Y-86666232D01*
X146897555Y-86744873D01*
X147062299Y-86798402D01*
X147233389Y-86825500D01*
X147233390Y-86825500D01*
X147406610Y-86825500D01*
X147406611Y-86825500D01*
X147577701Y-86798402D01*
X147742445Y-86744873D01*
X147896788Y-86666232D01*
X148036928Y-86564414D01*
X148159414Y-86441928D01*
X148261232Y-86301788D01*
X148339873Y-86147445D01*
X148393402Y-85982701D01*
X148420500Y-85811611D01*
X148420500Y-85638389D01*
X148410854Y-85577486D01*
X150149500Y-85577486D01*
X150149500Y-85872513D01*
X150170173Y-86029534D01*
X150188007Y-86164993D01*
X150262212Y-86441930D01*
X150264361Y-86449951D01*
X150264364Y-86449961D01*
X150377254Y-86722500D01*
X150377258Y-86722510D01*
X150524761Y-86977993D01*
X150704352Y-87212040D01*
X150704358Y-87212047D01*
X150912952Y-87420641D01*
X150912959Y-87420647D01*
X151147006Y-87600238D01*
X151402489Y-87747741D01*
X151402490Y-87747741D01*
X151402493Y-87747743D01*
X151675048Y-87860639D01*
X151960007Y-87936993D01*
X152252494Y-87975500D01*
X152252501Y-87975500D01*
X152547499Y-87975500D01*
X152547506Y-87975500D01*
X152839993Y-87936993D01*
X153124952Y-87860639D01*
X153397507Y-87747743D01*
X153652994Y-87600238D01*
X153887042Y-87420646D01*
X154095646Y-87212042D01*
X154275238Y-86977994D01*
X154422743Y-86722507D01*
X154535639Y-86449952D01*
X154611993Y-86164993D01*
X154650500Y-85872506D01*
X154650500Y-85638389D01*
X156379500Y-85638389D01*
X156379500Y-85811611D01*
X156406598Y-85982701D01*
X156460127Y-86147445D01*
X156538768Y-86301788D01*
X156640586Y-86441928D01*
X156763072Y-86564414D01*
X156903212Y-86666232D01*
X157057555Y-86744873D01*
X157222299Y-86798402D01*
X157393389Y-86825500D01*
X157393390Y-86825500D01*
X157566610Y-86825500D01*
X157566611Y-86825500D01*
X157737701Y-86798402D01*
X157902445Y-86744873D01*
X158056788Y-86666232D01*
X158196928Y-86564414D01*
X158319414Y-86441928D01*
X158421232Y-86301788D01*
X158499873Y-86147445D01*
X158553402Y-85982701D01*
X158580500Y-85811611D01*
X158580500Y-85638389D01*
X158578007Y-85622648D01*
X160624500Y-85622648D01*
X160624500Y-85827351D01*
X160656522Y-86029534D01*
X160719781Y-86224223D01*
X160812715Y-86406613D01*
X160933028Y-86572213D01*
X161077786Y-86716971D01*
X161227166Y-86825500D01*
X161243390Y-86837287D01*
X161359607Y-86896503D01*
X161425776Y-86930218D01*
X161425778Y-86930218D01*
X161425781Y-86930220D01*
X161497322Y-86953465D01*
X161620465Y-86993477D01*
X161721557Y-87009488D01*
X161822648Y-87025500D01*
X161822649Y-87025500D01*
X162027351Y-87025500D01*
X162027352Y-87025500D01*
X162229534Y-86993477D01*
X162424219Y-86930220D01*
X162606610Y-86837287D01*
X162733811Y-86744871D01*
X162772213Y-86716971D01*
X162772215Y-86716968D01*
X162772219Y-86716966D01*
X162916966Y-86572219D01*
X162916968Y-86572215D01*
X162916971Y-86572213D01*
X162969732Y-86499590D01*
X163037287Y-86406610D01*
X163130220Y-86224219D01*
X163193477Y-86029534D01*
X163225500Y-85827352D01*
X163225500Y-85638389D01*
X165269500Y-85638389D01*
X165269500Y-85811611D01*
X165296598Y-85982701D01*
X165350127Y-86147445D01*
X165428768Y-86301788D01*
X165530586Y-86441928D01*
X165653072Y-86564414D01*
X165793212Y-86666232D01*
X165947555Y-86744873D01*
X166112299Y-86798402D01*
X166283389Y-86825500D01*
X166283390Y-86825500D01*
X166456610Y-86825500D01*
X166456611Y-86825500D01*
X166627701Y-86798402D01*
X166792445Y-86744873D01*
X166946788Y-86666232D01*
X167086928Y-86564414D01*
X167209414Y-86441928D01*
X167311232Y-86301788D01*
X167389873Y-86147445D01*
X167443402Y-85982701D01*
X167470500Y-85811611D01*
X167470500Y-85638389D01*
X167460854Y-85577486D01*
X169199500Y-85577486D01*
X169199500Y-85872513D01*
X169220173Y-86029534D01*
X169238007Y-86164993D01*
X169312212Y-86441930D01*
X169314361Y-86449951D01*
X169314364Y-86449961D01*
X169427254Y-86722500D01*
X169427258Y-86722510D01*
X169574761Y-86977993D01*
X169754352Y-87212040D01*
X169754358Y-87212047D01*
X169962952Y-87420641D01*
X169962959Y-87420647D01*
X170197006Y-87600238D01*
X170452489Y-87747741D01*
X170452490Y-87747741D01*
X170452493Y-87747743D01*
X170725048Y-87860639D01*
X171010007Y-87936993D01*
X171302494Y-87975500D01*
X171302501Y-87975500D01*
X171597499Y-87975500D01*
X171597506Y-87975500D01*
X171889993Y-87936993D01*
X172174952Y-87860639D01*
X172447507Y-87747743D01*
X172702994Y-87600238D01*
X172937042Y-87420646D01*
X173145646Y-87212042D01*
X173325238Y-86977994D01*
X173472743Y-86722507D01*
X173585639Y-86449952D01*
X173661993Y-86164993D01*
X173700500Y-85872506D01*
X173700500Y-85638389D01*
X175429500Y-85638389D01*
X175429500Y-85811611D01*
X175456598Y-85982701D01*
X175510127Y-86147445D01*
X175588768Y-86301788D01*
X175690586Y-86441928D01*
X175813072Y-86564414D01*
X175953212Y-86666232D01*
X176107555Y-86744873D01*
X176272299Y-86798402D01*
X176443389Y-86825500D01*
X176443390Y-86825500D01*
X176616610Y-86825500D01*
X176616611Y-86825500D01*
X176787701Y-86798402D01*
X176952445Y-86744873D01*
X177106788Y-86666232D01*
X177246928Y-86564414D01*
X177369414Y-86441928D01*
X177471232Y-86301788D01*
X177549873Y-86147445D01*
X177603402Y-85982701D01*
X177630500Y-85811611D01*
X177630500Y-85638389D01*
X177628007Y-85622648D01*
X179674500Y-85622648D01*
X179674500Y-85827351D01*
X179706522Y-86029534D01*
X179769781Y-86224223D01*
X179862715Y-86406613D01*
X179983028Y-86572213D01*
X180127786Y-86716971D01*
X180277166Y-86825500D01*
X180293390Y-86837287D01*
X180409607Y-86896503D01*
X180475776Y-86930218D01*
X180475778Y-86930218D01*
X180475781Y-86930220D01*
X180547322Y-86953465D01*
X180670465Y-86993477D01*
X180771557Y-87009488D01*
X180872648Y-87025500D01*
X180872649Y-87025500D01*
X181077351Y-87025500D01*
X181077352Y-87025500D01*
X181279534Y-86993477D01*
X181474219Y-86930220D01*
X181656610Y-86837287D01*
X181783811Y-86744871D01*
X181822213Y-86716971D01*
X181822215Y-86716968D01*
X181822219Y-86716966D01*
X181966966Y-86572219D01*
X181966968Y-86572215D01*
X181966971Y-86572213D01*
X182019732Y-86499590D01*
X182087287Y-86406610D01*
X182180220Y-86224219D01*
X182243477Y-86029534D01*
X182275500Y-85827352D01*
X182275500Y-85638389D01*
X184319500Y-85638389D01*
X184319500Y-85811611D01*
X184346598Y-85982701D01*
X184400127Y-86147445D01*
X184478768Y-86301788D01*
X184580586Y-86441928D01*
X184703072Y-86564414D01*
X184843212Y-86666232D01*
X184997555Y-86744873D01*
X185162299Y-86798402D01*
X185333389Y-86825500D01*
X185333390Y-86825500D01*
X185506610Y-86825500D01*
X185506611Y-86825500D01*
X185677701Y-86798402D01*
X185842445Y-86744873D01*
X185996788Y-86666232D01*
X186136928Y-86564414D01*
X186259414Y-86441928D01*
X186361232Y-86301788D01*
X186439873Y-86147445D01*
X186493402Y-85982701D01*
X186520500Y-85811611D01*
X186520500Y-85638389D01*
X186510854Y-85577486D01*
X188249500Y-85577486D01*
X188249500Y-85872513D01*
X188270173Y-86029534D01*
X188288007Y-86164993D01*
X188362212Y-86441930D01*
X188364361Y-86449951D01*
X188364364Y-86449961D01*
X188477254Y-86722500D01*
X188477258Y-86722510D01*
X188624761Y-86977993D01*
X188804352Y-87212040D01*
X188804358Y-87212047D01*
X189012952Y-87420641D01*
X189012959Y-87420647D01*
X189247006Y-87600238D01*
X189502489Y-87747741D01*
X189502490Y-87747741D01*
X189502493Y-87747743D01*
X189775048Y-87860639D01*
X190060007Y-87936993D01*
X190352494Y-87975500D01*
X190352501Y-87975500D01*
X190647499Y-87975500D01*
X190647506Y-87975500D01*
X190939993Y-87936993D01*
X191224952Y-87860639D01*
X191497507Y-87747743D01*
X191752994Y-87600238D01*
X191987042Y-87420646D01*
X192195646Y-87212042D01*
X192375238Y-86977994D01*
X192522743Y-86722507D01*
X192635639Y-86449952D01*
X192711993Y-86164993D01*
X192750500Y-85872506D01*
X192750500Y-85577494D01*
X192711993Y-85285007D01*
X192635639Y-85000048D01*
X192522743Y-84727493D01*
X192490041Y-84670852D01*
X192375238Y-84472006D01*
X192195647Y-84237959D01*
X192195641Y-84237952D01*
X191987047Y-84029358D01*
X191987040Y-84029352D01*
X191752993Y-83849761D01*
X191497510Y-83702258D01*
X191497500Y-83702254D01*
X191224961Y-83589364D01*
X191224954Y-83589362D01*
X191224952Y-83589361D01*
X190939993Y-83513007D01*
X190891113Y-83506571D01*
X190647513Y-83474500D01*
X190647506Y-83474500D01*
X190352494Y-83474500D01*
X190352486Y-83474500D01*
X190074085Y-83511153D01*
X190060007Y-83513007D01*
X189885428Y-83559785D01*
X189775048Y-83589361D01*
X189775038Y-83589364D01*
X189502499Y-83702254D01*
X189502489Y-83702258D01*
X189247006Y-83849761D01*
X189012959Y-84029352D01*
X189012952Y-84029358D01*
X188804358Y-84237952D01*
X188804352Y-84237959D01*
X188624761Y-84472006D01*
X188477258Y-84727489D01*
X188477254Y-84727499D01*
X188364364Y-85000038D01*
X188364361Y-85000048D01*
X188293303Y-85265244D01*
X188288008Y-85285004D01*
X188288006Y-85285015D01*
X188249500Y-85577486D01*
X186510854Y-85577486D01*
X186493402Y-85467299D01*
X186439873Y-85302555D01*
X186361232Y-85148212D01*
X186259414Y-85008072D01*
X186207482Y-84956140D01*
X186173997Y-84894817D01*
X186178981Y-84825125D01*
X186220853Y-84769192D01*
X186286317Y-84744775D01*
X186314561Y-84745986D01*
X186315212Y-84746089D01*
X186315215Y-84746090D01*
X186564038Y-84785500D01*
X186564039Y-84785500D01*
X186815961Y-84785500D01*
X186815962Y-84785500D01*
X187064785Y-84746090D01*
X187304379Y-84668241D01*
X187528845Y-84553870D01*
X187732656Y-84405793D01*
X187910793Y-84227656D01*
X188058870Y-84023845D01*
X188173241Y-83799379D01*
X188251090Y-83559785D01*
X188290500Y-83310962D01*
X188290500Y-83059038D01*
X188251090Y-82810215D01*
X188173241Y-82570621D01*
X188173239Y-82570618D01*
X188173239Y-82570616D01*
X188131747Y-82489184D01*
X188058870Y-82346155D01*
X187985740Y-82245500D01*
X187910798Y-82142350D01*
X187910794Y-82142345D01*
X187732654Y-81964205D01*
X187732649Y-81964201D01*
X187528848Y-81816132D01*
X187528847Y-81816131D01*
X187528845Y-81816130D01*
X187458747Y-81780413D01*
X187304383Y-81701760D01*
X187064785Y-81623910D01*
X186815962Y-81584500D01*
X186564038Y-81584500D01*
X186439626Y-81604205D01*
X186315214Y-81623910D01*
X186075616Y-81701760D01*
X185851151Y-81816132D01*
X185647350Y-81964201D01*
X185647345Y-81964205D01*
X185469205Y-82142345D01*
X185469201Y-82142350D01*
X185321132Y-82346151D01*
X185206760Y-82570616D01*
X185128910Y-82810214D01*
X185089500Y-83059038D01*
X185089500Y-83310961D01*
X185128910Y-83559785D01*
X185206760Y-83799383D01*
X185321132Y-84023848D01*
X185469201Y-84227649D01*
X185469205Y-84227654D01*
X185469207Y-84227656D01*
X185647344Y-84405793D01*
X185647345Y-84405794D01*
X185647344Y-84405794D01*
X185653661Y-84410383D01*
X185696327Y-84465714D01*
X185702305Y-84535327D01*
X185669699Y-84597122D01*
X185608860Y-84631479D01*
X185561378Y-84633174D01*
X185506611Y-84624500D01*
X185333389Y-84624500D01*
X185293728Y-84630781D01*
X185162302Y-84651597D01*
X184997552Y-84705128D01*
X184843211Y-84783768D01*
X184786289Y-84825125D01*
X184703072Y-84885586D01*
X184703070Y-84885588D01*
X184703069Y-84885588D01*
X184580588Y-85008069D01*
X184580588Y-85008070D01*
X184580586Y-85008072D01*
X184554929Y-85043386D01*
X184478768Y-85148211D01*
X184400128Y-85302552D01*
X184346597Y-85467302D01*
X184321993Y-85622648D01*
X184319500Y-85638389D01*
X182275500Y-85638389D01*
X182275500Y-85622648D01*
X182250895Y-85467299D01*
X182243477Y-85420465D01*
X182186296Y-85244481D01*
X182180220Y-85225781D01*
X182180218Y-85225778D01*
X182180218Y-85225776D01*
X182146503Y-85159607D01*
X182087287Y-85043390D01*
X182061625Y-85008069D01*
X181966971Y-84877786D01*
X181822213Y-84733028D01*
X181656613Y-84612715D01*
X181656612Y-84612714D01*
X181656610Y-84612713D01*
X181598905Y-84583311D01*
X181474223Y-84519781D01*
X181279534Y-84456522D01*
X181104995Y-84428878D01*
X181077352Y-84424500D01*
X180872648Y-84424500D01*
X180848329Y-84428351D01*
X180670465Y-84456522D01*
X180475776Y-84519781D01*
X180293386Y-84612715D01*
X180127786Y-84733028D01*
X179983028Y-84877786D01*
X179862715Y-85043386D01*
X179769781Y-85225776D01*
X179706522Y-85420465D01*
X179674500Y-85622648D01*
X177628007Y-85622648D01*
X177603402Y-85467299D01*
X177549873Y-85302555D01*
X177471232Y-85148212D01*
X177369414Y-85008072D01*
X177246928Y-84885586D01*
X177106788Y-84783768D01*
X176952445Y-84705127D01*
X176787701Y-84651598D01*
X176787699Y-84651597D01*
X176787698Y-84651597D01*
X176656271Y-84630781D01*
X176616611Y-84624500D01*
X176443389Y-84624500D01*
X176403728Y-84630781D01*
X176272302Y-84651597D01*
X176107552Y-84705128D01*
X175953211Y-84783768D01*
X175896289Y-84825125D01*
X175813072Y-84885586D01*
X175813070Y-84885588D01*
X175813069Y-84885588D01*
X175690588Y-85008069D01*
X175690588Y-85008070D01*
X175690586Y-85008072D01*
X175664929Y-85043386D01*
X175588768Y-85148211D01*
X175510128Y-85302552D01*
X175456597Y-85467302D01*
X175431993Y-85622648D01*
X175429500Y-85638389D01*
X173700500Y-85638389D01*
X173700500Y-85577494D01*
X173661993Y-85285007D01*
X173585639Y-85000048D01*
X173472743Y-84727493D01*
X173440041Y-84670852D01*
X173325238Y-84472006D01*
X173145647Y-84237959D01*
X173145641Y-84237952D01*
X172937047Y-84029358D01*
X172937040Y-84029352D01*
X172702993Y-83849761D01*
X172447510Y-83702258D01*
X172447500Y-83702254D01*
X172174961Y-83589364D01*
X172174954Y-83589362D01*
X172174952Y-83589361D01*
X171889993Y-83513007D01*
X171841113Y-83506571D01*
X171597513Y-83474500D01*
X171597506Y-83474500D01*
X171302494Y-83474500D01*
X171302486Y-83474500D01*
X171024085Y-83511153D01*
X171010007Y-83513007D01*
X170835428Y-83559785D01*
X170725048Y-83589361D01*
X170725038Y-83589364D01*
X170452499Y-83702254D01*
X170452489Y-83702258D01*
X170197006Y-83849761D01*
X169962959Y-84029352D01*
X169962952Y-84029358D01*
X169754358Y-84237952D01*
X169754352Y-84237959D01*
X169574761Y-84472006D01*
X169427258Y-84727489D01*
X169427254Y-84727499D01*
X169314364Y-85000038D01*
X169314361Y-85000048D01*
X169243303Y-85265244D01*
X169238008Y-85285004D01*
X169238006Y-85285015D01*
X169199500Y-85577486D01*
X167460854Y-85577486D01*
X167443402Y-85467299D01*
X167389873Y-85302555D01*
X167311232Y-85148212D01*
X167209414Y-85008072D01*
X167157482Y-84956140D01*
X167123997Y-84894817D01*
X167128981Y-84825125D01*
X167170853Y-84769192D01*
X167236317Y-84744775D01*
X167264561Y-84745986D01*
X167265212Y-84746089D01*
X167265215Y-84746090D01*
X167514038Y-84785500D01*
X167514039Y-84785500D01*
X167765961Y-84785500D01*
X167765962Y-84785500D01*
X168014785Y-84746090D01*
X168254379Y-84668241D01*
X168478845Y-84553870D01*
X168682656Y-84405793D01*
X168860793Y-84227656D01*
X169008870Y-84023845D01*
X169123241Y-83799379D01*
X169201090Y-83559785D01*
X169240500Y-83310962D01*
X169240500Y-83059038D01*
X169201090Y-82810215D01*
X169123241Y-82570621D01*
X169123239Y-82570618D01*
X169123239Y-82570616D01*
X169081747Y-82489184D01*
X169008870Y-82346155D01*
X168935740Y-82245500D01*
X168860798Y-82142350D01*
X168860794Y-82142345D01*
X168682654Y-81964205D01*
X168682649Y-81964201D01*
X168478848Y-81816132D01*
X168478847Y-81816131D01*
X168478845Y-81816130D01*
X168408747Y-81780413D01*
X168254383Y-81701760D01*
X168014785Y-81623910D01*
X167765962Y-81584500D01*
X167514038Y-81584500D01*
X167389626Y-81604205D01*
X167265214Y-81623910D01*
X167025616Y-81701760D01*
X166801151Y-81816132D01*
X166597350Y-81964201D01*
X166597345Y-81964205D01*
X166419205Y-82142345D01*
X166419201Y-82142350D01*
X166271132Y-82346151D01*
X166156760Y-82570616D01*
X166078910Y-82810214D01*
X166039500Y-83059038D01*
X166039500Y-83310961D01*
X166078910Y-83559785D01*
X166156760Y-83799383D01*
X166271132Y-84023848D01*
X166419201Y-84227649D01*
X166419205Y-84227654D01*
X166419207Y-84227656D01*
X166597344Y-84405793D01*
X166597345Y-84405794D01*
X166597344Y-84405794D01*
X166603661Y-84410383D01*
X166646327Y-84465714D01*
X166652305Y-84535327D01*
X166619699Y-84597122D01*
X166558860Y-84631479D01*
X166511378Y-84633174D01*
X166456611Y-84624500D01*
X166283389Y-84624500D01*
X166243728Y-84630781D01*
X166112302Y-84651597D01*
X165947552Y-84705128D01*
X165793211Y-84783768D01*
X165736289Y-84825125D01*
X165653072Y-84885586D01*
X165653070Y-84885588D01*
X165653069Y-84885588D01*
X165530588Y-85008069D01*
X165530588Y-85008070D01*
X165530586Y-85008072D01*
X165504929Y-85043386D01*
X165428768Y-85148211D01*
X165350128Y-85302552D01*
X165296597Y-85467302D01*
X165271993Y-85622648D01*
X165269500Y-85638389D01*
X163225500Y-85638389D01*
X163225500Y-85622648D01*
X163200895Y-85467299D01*
X163193477Y-85420465D01*
X163136296Y-85244481D01*
X163130220Y-85225781D01*
X163130218Y-85225778D01*
X163130218Y-85225776D01*
X163096503Y-85159607D01*
X163037287Y-85043390D01*
X163011625Y-85008069D01*
X162916971Y-84877786D01*
X162772213Y-84733028D01*
X162606613Y-84612715D01*
X162606612Y-84612714D01*
X162606610Y-84612713D01*
X162548905Y-84583311D01*
X162424223Y-84519781D01*
X162229534Y-84456522D01*
X162054995Y-84428878D01*
X162027352Y-84424500D01*
X161822648Y-84424500D01*
X161798329Y-84428351D01*
X161620465Y-84456522D01*
X161425776Y-84519781D01*
X161243386Y-84612715D01*
X161077786Y-84733028D01*
X160933028Y-84877786D01*
X160812715Y-85043386D01*
X160719781Y-85225776D01*
X160656522Y-85420465D01*
X160624500Y-85622648D01*
X158578007Y-85622648D01*
X158553402Y-85467299D01*
X158499873Y-85302555D01*
X158421232Y-85148212D01*
X158319414Y-85008072D01*
X158196928Y-84885586D01*
X158056788Y-84783768D01*
X157902445Y-84705127D01*
X157737701Y-84651598D01*
X157737699Y-84651597D01*
X157737698Y-84651597D01*
X157606271Y-84630781D01*
X157566611Y-84624500D01*
X157393389Y-84624500D01*
X157353728Y-84630781D01*
X157222302Y-84651597D01*
X157057552Y-84705128D01*
X156903211Y-84783768D01*
X156846289Y-84825125D01*
X156763072Y-84885586D01*
X156763070Y-84885588D01*
X156763069Y-84885588D01*
X156640588Y-85008069D01*
X156640588Y-85008070D01*
X156640586Y-85008072D01*
X156614929Y-85043386D01*
X156538768Y-85148211D01*
X156460128Y-85302552D01*
X156406597Y-85467302D01*
X156381993Y-85622648D01*
X156379500Y-85638389D01*
X154650500Y-85638389D01*
X154650500Y-85577494D01*
X154611993Y-85285007D01*
X154535639Y-85000048D01*
X154422743Y-84727493D01*
X154390041Y-84670852D01*
X154275238Y-84472006D01*
X154095647Y-84237959D01*
X154095641Y-84237952D01*
X153887047Y-84029358D01*
X153887040Y-84029352D01*
X153652993Y-83849761D01*
X153397510Y-83702258D01*
X153397500Y-83702254D01*
X153124961Y-83589364D01*
X153124954Y-83589362D01*
X153124952Y-83589361D01*
X152839993Y-83513007D01*
X152791113Y-83506571D01*
X152547513Y-83474500D01*
X152547506Y-83474500D01*
X152252494Y-83474500D01*
X152252486Y-83474500D01*
X151974085Y-83511153D01*
X151960007Y-83513007D01*
X151785428Y-83559785D01*
X151675048Y-83589361D01*
X151675038Y-83589364D01*
X151402499Y-83702254D01*
X151402489Y-83702258D01*
X151147006Y-83849761D01*
X150912959Y-84029352D01*
X150912952Y-84029358D01*
X150704358Y-84237952D01*
X150704352Y-84237959D01*
X150524761Y-84472006D01*
X150377258Y-84727489D01*
X150377254Y-84727499D01*
X150264364Y-85000038D01*
X150264361Y-85000048D01*
X150193303Y-85265244D01*
X150188008Y-85285004D01*
X150188006Y-85285015D01*
X150149500Y-85577486D01*
X148410854Y-85577486D01*
X148393402Y-85467299D01*
X148339873Y-85302555D01*
X148261232Y-85148212D01*
X148159414Y-85008072D01*
X148107482Y-84956140D01*
X148073997Y-84894817D01*
X148078981Y-84825125D01*
X148120853Y-84769192D01*
X148186317Y-84744775D01*
X148214561Y-84745986D01*
X148215212Y-84746089D01*
X148215215Y-84746090D01*
X148464038Y-84785500D01*
X148464039Y-84785500D01*
X148715961Y-84785500D01*
X148715962Y-84785500D01*
X148964785Y-84746090D01*
X149204379Y-84668241D01*
X149428845Y-84553870D01*
X149632656Y-84405793D01*
X149810793Y-84227656D01*
X149958870Y-84023845D01*
X150073241Y-83799379D01*
X150151090Y-83559785D01*
X150190500Y-83310962D01*
X150190500Y-83059038D01*
X150151090Y-82810215D01*
X150073241Y-82570621D01*
X150073239Y-82570618D01*
X150073239Y-82570616D01*
X150031747Y-82489184D01*
X149958870Y-82346155D01*
X149885740Y-82245500D01*
X149810798Y-82142350D01*
X149810794Y-82142345D01*
X149632654Y-81964205D01*
X149632649Y-81964201D01*
X149428848Y-81816132D01*
X149428847Y-81816131D01*
X149428845Y-81816130D01*
X149358747Y-81780413D01*
X149204383Y-81701760D01*
X148964785Y-81623910D01*
X148715962Y-81584500D01*
X148464038Y-81584500D01*
X148339626Y-81604205D01*
X148215214Y-81623910D01*
X147975616Y-81701760D01*
X147751151Y-81816132D01*
X147547350Y-81964201D01*
X147547345Y-81964205D01*
X147369205Y-82142345D01*
X147369201Y-82142350D01*
X147221132Y-82346151D01*
X147106760Y-82570616D01*
X147028910Y-82810214D01*
X146989500Y-83059038D01*
X146989500Y-83310961D01*
X147028910Y-83559785D01*
X147106760Y-83799383D01*
X147221132Y-84023848D01*
X147369201Y-84227649D01*
X147369205Y-84227654D01*
X147369207Y-84227656D01*
X147547344Y-84405793D01*
X147547345Y-84405794D01*
X147547344Y-84405794D01*
X147553661Y-84410383D01*
X147596327Y-84465714D01*
X147602305Y-84535327D01*
X147569699Y-84597122D01*
X147508860Y-84631479D01*
X147461378Y-84633174D01*
X147406611Y-84624500D01*
X147233389Y-84624500D01*
X147193728Y-84630781D01*
X147062302Y-84651597D01*
X146897552Y-84705128D01*
X146743211Y-84783768D01*
X146686289Y-84825125D01*
X146603072Y-84885586D01*
X146603070Y-84885588D01*
X146603069Y-84885588D01*
X146480588Y-85008069D01*
X146480588Y-85008070D01*
X146480586Y-85008072D01*
X146454929Y-85043386D01*
X146378768Y-85148211D01*
X146300128Y-85302552D01*
X146246597Y-85467302D01*
X146221993Y-85622648D01*
X146219500Y-85638389D01*
X144175500Y-85638389D01*
X144175500Y-85622648D01*
X144150895Y-85467299D01*
X144143477Y-85420465D01*
X144086296Y-85244481D01*
X144080220Y-85225781D01*
X144080218Y-85225778D01*
X144080218Y-85225776D01*
X144046503Y-85159607D01*
X143987287Y-85043390D01*
X143961625Y-85008069D01*
X143866971Y-84877786D01*
X143722213Y-84733028D01*
X143556613Y-84612715D01*
X143556612Y-84612714D01*
X143556610Y-84612713D01*
X143498905Y-84583311D01*
X143374223Y-84519781D01*
X143179534Y-84456522D01*
X143004995Y-84428878D01*
X142977352Y-84424500D01*
X142772648Y-84424500D01*
X142748329Y-84428351D01*
X142570465Y-84456522D01*
X142375776Y-84519781D01*
X142193386Y-84612715D01*
X142027786Y-84733028D01*
X141883028Y-84877786D01*
X141762715Y-85043386D01*
X141669781Y-85225776D01*
X141606522Y-85420465D01*
X141574500Y-85622648D01*
X139528007Y-85622648D01*
X139503402Y-85467299D01*
X139449873Y-85302555D01*
X139371232Y-85148212D01*
X139269414Y-85008072D01*
X139146928Y-84885586D01*
X139006788Y-84783768D01*
X138852445Y-84705127D01*
X138687701Y-84651598D01*
X138687699Y-84651597D01*
X138687698Y-84651597D01*
X138556271Y-84630781D01*
X138516611Y-84624500D01*
X138343389Y-84624500D01*
X138303728Y-84630781D01*
X138172302Y-84651597D01*
X138007552Y-84705128D01*
X137853211Y-84783768D01*
X137796289Y-84825125D01*
X137713072Y-84885586D01*
X137713070Y-84885588D01*
X137713069Y-84885588D01*
X137590588Y-85008069D01*
X137590588Y-85008070D01*
X137590586Y-85008072D01*
X137564929Y-85043386D01*
X137488768Y-85148211D01*
X137410128Y-85302552D01*
X137356597Y-85467302D01*
X137331993Y-85622648D01*
X137329500Y-85638389D01*
X136490500Y-85638389D01*
X136490500Y-82211300D01*
X136510185Y-82144261D01*
X136558204Y-82100815D01*
X136728845Y-82013870D01*
X136932656Y-81865793D01*
X137110793Y-81687656D01*
X137258870Y-81483845D01*
X137373241Y-81259379D01*
X137451090Y-81019785D01*
X137490500Y-80770962D01*
X137490500Y-80519038D01*
X137451090Y-80270215D01*
X137373241Y-80030621D01*
X137373239Y-80030618D01*
X137373239Y-80030616D01*
X137331747Y-79949184D01*
X137258870Y-79806155D01*
X137239952Y-79780117D01*
X137110798Y-79602350D01*
X137110794Y-79602345D01*
X136932654Y-79424205D01*
X136932649Y-79424201D01*
X136728848Y-79276132D01*
X136728847Y-79276131D01*
X136728845Y-79276130D01*
X136658747Y-79240413D01*
X136504383Y-79161760D01*
X136264785Y-79083910D01*
X136164195Y-79067978D01*
X136015962Y-79044500D01*
X135764038Y-79044500D01*
X135639626Y-79064205D01*
X135515214Y-79083910D01*
X135275616Y-79161760D01*
X135051151Y-79276132D01*
X134847350Y-79424201D01*
X134847345Y-79424205D01*
X134669205Y-79602345D01*
X134669201Y-79602350D01*
X134521132Y-79806151D01*
X134406760Y-80030616D01*
X134328910Y-80270214D01*
X134317744Y-80340711D01*
X134289500Y-80519038D01*
X134289500Y-80770962D01*
X134307459Y-80884349D01*
X134328910Y-81019785D01*
X134406760Y-81259383D01*
X134485413Y-81413747D01*
X134515498Y-81472792D01*
X134521132Y-81483848D01*
X134669201Y-81687649D01*
X134669205Y-81687654D01*
X134847345Y-81865794D01*
X134847350Y-81865798D01*
X135025117Y-81994952D01*
X135051155Y-82013870D01*
X135221795Y-82100815D01*
X135272591Y-82148789D01*
X135289500Y-82211300D01*
X135289500Y-84190461D01*
X135269815Y-84257500D01*
X135217011Y-84303255D01*
X135147853Y-84313199D01*
X135084297Y-84284174D01*
X135067125Y-84265949D01*
X135045644Y-84237955D01*
X134837047Y-84029358D01*
X134837040Y-84029352D01*
X134602993Y-83849761D01*
X134347510Y-83702258D01*
X134347500Y-83702254D01*
X134074961Y-83589364D01*
X134074954Y-83589362D01*
X134074952Y-83589361D01*
X133789993Y-83513007D01*
X133741113Y-83506571D01*
X133497513Y-83474500D01*
X133497506Y-83474500D01*
X133202494Y-83474500D01*
X133202486Y-83474500D01*
X132924085Y-83511153D01*
X132910007Y-83513007D01*
X132735428Y-83559785D01*
X132625048Y-83589361D01*
X132625038Y-83589364D01*
X132352499Y-83702254D01*
X132352489Y-83702258D01*
X132097006Y-83849761D01*
X131862959Y-84029352D01*
X131862952Y-84029358D01*
X131654358Y-84237952D01*
X131654352Y-84237959D01*
X131474761Y-84472006D01*
X131327258Y-84727489D01*
X131327254Y-84727499D01*
X131214364Y-85000038D01*
X131214361Y-85000048D01*
X131143303Y-85265244D01*
X131138008Y-85285004D01*
X131138006Y-85285015D01*
X131099500Y-85577486D01*
X129360854Y-85577486D01*
X129343402Y-85467299D01*
X129289873Y-85302555D01*
X129211232Y-85148212D01*
X129109414Y-85008072D01*
X129057482Y-84956140D01*
X129023997Y-84894817D01*
X129028981Y-84825125D01*
X129070853Y-84769192D01*
X129136317Y-84744775D01*
X129164561Y-84745986D01*
X129165212Y-84746089D01*
X129165215Y-84746090D01*
X129414038Y-84785500D01*
X129414039Y-84785500D01*
X129665961Y-84785500D01*
X129665962Y-84785500D01*
X129914785Y-84746090D01*
X130154379Y-84668241D01*
X130378845Y-84553870D01*
X130582656Y-84405793D01*
X130760793Y-84227656D01*
X130908870Y-84023845D01*
X131023241Y-83799379D01*
X131101090Y-83559785D01*
X131140500Y-83310962D01*
X131140500Y-83059038D01*
X131101090Y-82810215D01*
X131023241Y-82570621D01*
X131023239Y-82570618D01*
X131023239Y-82570616D01*
X130981747Y-82489184D01*
X130908870Y-82346155D01*
X130835740Y-82245500D01*
X130760798Y-82142350D01*
X130760794Y-82142345D01*
X130582654Y-81964205D01*
X130582649Y-81964201D01*
X130378848Y-81816132D01*
X130378847Y-81816131D01*
X130378845Y-81816130D01*
X130308747Y-81780413D01*
X130154383Y-81701760D01*
X129914785Y-81623910D01*
X129665962Y-81584500D01*
X129414038Y-81584500D01*
X129289626Y-81604205D01*
X129165214Y-81623910D01*
X128925616Y-81701760D01*
X128701151Y-81816132D01*
X128497350Y-81964201D01*
X128497345Y-81964205D01*
X128319205Y-82142345D01*
X128319201Y-82142350D01*
X128171132Y-82346151D01*
X128056760Y-82570616D01*
X127978910Y-82810214D01*
X127939500Y-83059038D01*
X127939500Y-83310961D01*
X127978910Y-83559785D01*
X128056760Y-83799383D01*
X128171132Y-84023848D01*
X128319201Y-84227649D01*
X128319205Y-84227654D01*
X128319207Y-84227656D01*
X128497344Y-84405793D01*
X128497345Y-84405794D01*
X128497344Y-84405794D01*
X128503661Y-84410383D01*
X128546327Y-84465714D01*
X128552305Y-84535327D01*
X128519699Y-84597122D01*
X128458860Y-84631479D01*
X128411378Y-84633174D01*
X128356611Y-84624500D01*
X128183389Y-84624500D01*
X128143728Y-84630781D01*
X128012302Y-84651597D01*
X127847552Y-84705128D01*
X127693211Y-84783768D01*
X127636289Y-84825125D01*
X127553072Y-84885586D01*
X127553070Y-84885588D01*
X127553069Y-84885588D01*
X127430588Y-85008069D01*
X127430588Y-85008070D01*
X127430586Y-85008072D01*
X127404929Y-85043386D01*
X127328768Y-85148211D01*
X127250128Y-85302552D01*
X127196597Y-85467302D01*
X127171993Y-85622648D01*
X127169500Y-85638389D01*
X125125500Y-85638389D01*
X125125500Y-85622648D01*
X125100895Y-85467299D01*
X125093477Y-85420465D01*
X125036296Y-85244481D01*
X125030220Y-85225781D01*
X125030218Y-85225778D01*
X125030218Y-85225776D01*
X124996503Y-85159607D01*
X124937287Y-85043390D01*
X124911625Y-85008069D01*
X124816971Y-84877786D01*
X124672213Y-84733028D01*
X124506613Y-84612715D01*
X124506612Y-84612714D01*
X124506610Y-84612713D01*
X124448905Y-84583311D01*
X124324223Y-84519781D01*
X124129534Y-84456522D01*
X123954995Y-84428878D01*
X123927352Y-84424500D01*
X123722648Y-84424500D01*
X123698329Y-84428351D01*
X123520465Y-84456522D01*
X123325776Y-84519781D01*
X123143386Y-84612715D01*
X122977786Y-84733028D01*
X122833028Y-84877786D01*
X122712715Y-85043386D01*
X122619781Y-85225776D01*
X122556522Y-85420465D01*
X122524500Y-85622648D01*
X120478007Y-85622648D01*
X120453402Y-85467299D01*
X120399873Y-85302555D01*
X120321232Y-85148212D01*
X120219414Y-85008072D01*
X120096928Y-84885586D01*
X119956788Y-84783768D01*
X119802445Y-84705127D01*
X119637701Y-84651598D01*
X119637699Y-84651597D01*
X119637698Y-84651597D01*
X119506271Y-84630781D01*
X119466611Y-84624500D01*
X119293389Y-84624500D01*
X119253728Y-84630781D01*
X119122302Y-84651597D01*
X118957552Y-84705128D01*
X118803211Y-84783768D01*
X118746289Y-84825125D01*
X118663072Y-84885586D01*
X118663070Y-84885588D01*
X118663069Y-84885588D01*
X118540588Y-85008069D01*
X118540588Y-85008070D01*
X118540586Y-85008072D01*
X118514929Y-85043386D01*
X118438768Y-85148211D01*
X118360128Y-85302552D01*
X118306597Y-85467302D01*
X118281993Y-85622648D01*
X118279500Y-85638389D01*
X116550500Y-85638389D01*
X116550500Y-85577494D01*
X116511993Y-85285007D01*
X116435639Y-85000048D01*
X116322743Y-84727493D01*
X116290041Y-84670852D01*
X116175238Y-84472006D01*
X115995647Y-84237959D01*
X115995641Y-84237952D01*
X115787047Y-84029358D01*
X115787040Y-84029352D01*
X115552993Y-83849761D01*
X115297510Y-83702258D01*
X115297500Y-83702254D01*
X115024961Y-83589364D01*
X115024954Y-83589362D01*
X115024952Y-83589361D01*
X114739993Y-83513007D01*
X114691113Y-83506571D01*
X114447513Y-83474500D01*
X114447506Y-83474500D01*
X114152494Y-83474500D01*
X114152486Y-83474500D01*
X113874085Y-83511153D01*
X113860007Y-83513007D01*
X113685428Y-83559785D01*
X113575048Y-83589361D01*
X113575038Y-83589364D01*
X113302499Y-83702254D01*
X113302489Y-83702258D01*
X113047006Y-83849761D01*
X112812959Y-84029352D01*
X112812952Y-84029358D01*
X112604358Y-84237952D01*
X112604352Y-84237959D01*
X112424761Y-84472006D01*
X112277258Y-84727489D01*
X112277254Y-84727499D01*
X112164364Y-85000038D01*
X112164361Y-85000048D01*
X112093303Y-85265244D01*
X112088008Y-85285004D01*
X112088006Y-85285015D01*
X112049500Y-85577486D01*
X110310854Y-85577486D01*
X110293402Y-85467299D01*
X110239873Y-85302555D01*
X110161232Y-85148212D01*
X110059414Y-85008072D01*
X110007482Y-84956140D01*
X109973997Y-84894817D01*
X109978981Y-84825125D01*
X110020853Y-84769192D01*
X110086317Y-84744775D01*
X110114561Y-84745986D01*
X110115212Y-84746089D01*
X110115215Y-84746090D01*
X110364038Y-84785500D01*
X110364039Y-84785500D01*
X110615961Y-84785500D01*
X110615962Y-84785500D01*
X110864785Y-84746090D01*
X111104379Y-84668241D01*
X111328845Y-84553870D01*
X111532656Y-84405793D01*
X111710793Y-84227656D01*
X111858870Y-84023845D01*
X111973241Y-83799379D01*
X112051090Y-83559785D01*
X112090500Y-83310962D01*
X112090500Y-83059038D01*
X112051090Y-82810215D01*
X111973241Y-82570621D01*
X111973239Y-82570618D01*
X111973239Y-82570616D01*
X111931747Y-82489184D01*
X111858870Y-82346155D01*
X111785740Y-82245500D01*
X111710798Y-82142350D01*
X111710794Y-82142345D01*
X111532654Y-81964205D01*
X111532649Y-81964201D01*
X111328848Y-81816132D01*
X111328847Y-81816131D01*
X111328845Y-81816130D01*
X111258747Y-81780413D01*
X111104383Y-81701760D01*
X110864785Y-81623910D01*
X110615962Y-81584500D01*
X110364038Y-81584500D01*
X110239626Y-81604205D01*
X110115214Y-81623910D01*
X109875616Y-81701760D01*
X109651151Y-81816132D01*
X109447350Y-81964201D01*
X109447345Y-81964205D01*
X109269205Y-82142345D01*
X109269201Y-82142350D01*
X109121132Y-82346151D01*
X109006760Y-82570616D01*
X108928910Y-82810214D01*
X108889500Y-83059038D01*
X108889500Y-83310961D01*
X108928910Y-83559785D01*
X109006760Y-83799383D01*
X109121132Y-84023848D01*
X109269201Y-84227649D01*
X109269205Y-84227654D01*
X109269207Y-84227656D01*
X109447344Y-84405793D01*
X109447345Y-84405794D01*
X109447344Y-84405794D01*
X109453661Y-84410383D01*
X109496327Y-84465714D01*
X109502305Y-84535327D01*
X109469699Y-84597122D01*
X109408860Y-84631479D01*
X109361378Y-84633174D01*
X109306611Y-84624500D01*
X109133389Y-84624500D01*
X109093728Y-84630781D01*
X108962302Y-84651597D01*
X108797552Y-84705128D01*
X108643211Y-84783768D01*
X108586289Y-84825125D01*
X108503072Y-84885586D01*
X108503070Y-84885588D01*
X108503069Y-84885588D01*
X108380588Y-85008069D01*
X108380588Y-85008070D01*
X108380586Y-85008072D01*
X108354929Y-85043386D01*
X108278768Y-85148211D01*
X108200128Y-85302552D01*
X108146597Y-85467302D01*
X108121993Y-85622648D01*
X108119500Y-85638389D01*
X102894250Y-85638389D01*
X102894250Y-80519038D01*
X115239500Y-80519038D01*
X115239500Y-80770962D01*
X115257459Y-80884349D01*
X115278910Y-81019785D01*
X115356760Y-81259383D01*
X115435413Y-81413747D01*
X115465498Y-81472792D01*
X115471132Y-81483848D01*
X115619201Y-81687649D01*
X115619205Y-81687654D01*
X115797345Y-81865794D01*
X115797350Y-81865798D01*
X115975117Y-81994952D01*
X116001155Y-82013870D01*
X116144184Y-82086747D01*
X116225616Y-82128239D01*
X116225618Y-82128239D01*
X116225621Y-82128241D01*
X116465215Y-82206090D01*
X116714038Y-82245500D01*
X116714039Y-82245500D01*
X116965961Y-82245500D01*
X116965962Y-82245500D01*
X117214785Y-82206090D01*
X117454379Y-82128241D01*
X117678845Y-82013870D01*
X117882656Y-81865793D01*
X118060793Y-81687656D01*
X118208870Y-81483845D01*
X118323241Y-81259379D01*
X118401090Y-81019785D01*
X118440500Y-80770962D01*
X118440500Y-80519038D01*
X118401090Y-80270215D01*
X118323241Y-80030621D01*
X118323239Y-80030618D01*
X118323239Y-80030616D01*
X118281747Y-79949184D01*
X118208870Y-79806155D01*
X118189952Y-79780117D01*
X118060798Y-79602350D01*
X118060794Y-79602345D01*
X117882654Y-79424205D01*
X117882649Y-79424201D01*
X117678848Y-79276132D01*
X117678847Y-79276131D01*
X117678845Y-79276130D01*
X117608747Y-79240413D01*
X117454383Y-79161760D01*
X117214785Y-79083910D01*
X117114195Y-79067978D01*
X116965962Y-79044500D01*
X116714038Y-79044500D01*
X116589626Y-79064205D01*
X116465214Y-79083910D01*
X116225616Y-79161760D01*
X116001151Y-79276132D01*
X115797350Y-79424201D01*
X115797345Y-79424205D01*
X115619205Y-79602345D01*
X115619201Y-79602350D01*
X115471132Y-79806151D01*
X115356760Y-80030616D01*
X115278910Y-80270214D01*
X115267744Y-80340711D01*
X115239500Y-80519038D01*
X102894250Y-80519038D01*
X102894250Y-75828385D01*
X122524500Y-75828385D01*
X122524500Y-77524120D01*
X122524501Y-77524126D01*
X122530908Y-77583733D01*
X122581202Y-77718578D01*
X122581206Y-77718585D01*
X122667452Y-77833794D01*
X122667455Y-77833797D01*
X122782664Y-77920043D01*
X122782671Y-77920047D01*
X122917517Y-77970341D01*
X122917516Y-77970341D01*
X122924444Y-77971085D01*
X122977127Y-77976750D01*
X124672872Y-77976749D01*
X124732483Y-77970341D01*
X124867331Y-77920046D01*
X124982546Y-77833796D01*
X125068796Y-77718581D01*
X125119091Y-77583733D01*
X125125500Y-77524123D01*
X125125500Y-77400750D01*
X125145185Y-77333711D01*
X125197989Y-77287956D01*
X125249500Y-77276750D01*
X141450501Y-77276750D01*
X141517540Y-77296435D01*
X141563295Y-77349239D01*
X141574501Y-77400750D01*
X141574501Y-77524126D01*
X141580908Y-77583733D01*
X141631202Y-77718578D01*
X141631206Y-77718585D01*
X141717452Y-77833794D01*
X141717455Y-77833797D01*
X141832664Y-77920043D01*
X141832671Y-77920047D01*
X141967517Y-77970341D01*
X141967516Y-77970341D01*
X141974444Y-77971085D01*
X142027127Y-77976750D01*
X143722872Y-77976749D01*
X143782483Y-77970341D01*
X143917331Y-77920046D01*
X144032546Y-77833796D01*
X144118796Y-77718581D01*
X144169091Y-77583733D01*
X144175500Y-77524123D01*
X144175500Y-77400750D01*
X144195185Y-77333711D01*
X144247989Y-77287956D01*
X144299500Y-77276750D01*
X160500501Y-77276750D01*
X160567540Y-77296435D01*
X160613295Y-77349239D01*
X160624501Y-77400750D01*
X160624501Y-77524126D01*
X160630908Y-77583733D01*
X160681202Y-77718578D01*
X160681206Y-77718585D01*
X160767452Y-77833794D01*
X160767455Y-77833797D01*
X160882664Y-77920043D01*
X160882671Y-77920047D01*
X161017517Y-77970341D01*
X161017516Y-77970341D01*
X161024444Y-77971085D01*
X161077127Y-77976750D01*
X162772872Y-77976749D01*
X162832483Y-77970341D01*
X162967331Y-77920046D01*
X163082546Y-77833796D01*
X163168796Y-77718581D01*
X163219091Y-77583733D01*
X163225500Y-77524123D01*
X163225500Y-77400750D01*
X163245185Y-77333711D01*
X163297989Y-77287956D01*
X163349500Y-77276750D01*
X179550501Y-77276750D01*
X179617540Y-77296435D01*
X179663295Y-77349239D01*
X179674501Y-77400750D01*
X179674501Y-77524126D01*
X179680908Y-77583733D01*
X179731202Y-77718578D01*
X179731206Y-77718585D01*
X179817452Y-77833794D01*
X179817455Y-77833797D01*
X179932664Y-77920043D01*
X179932671Y-77920047D01*
X180067517Y-77970341D01*
X180067516Y-77970341D01*
X180074444Y-77971085D01*
X180127127Y-77976750D01*
X181822872Y-77976749D01*
X181882483Y-77970341D01*
X182017331Y-77920046D01*
X182132546Y-77833796D01*
X182218796Y-77718581D01*
X182269091Y-77583733D01*
X182275500Y-77524123D01*
X182275500Y-77400750D01*
X182295185Y-77333711D01*
X182347989Y-77287956D01*
X182399500Y-77276750D01*
X198600501Y-77276750D01*
X198667540Y-77296435D01*
X198713295Y-77349239D01*
X198724501Y-77400750D01*
X198724501Y-77524126D01*
X198730908Y-77583733D01*
X198781202Y-77718578D01*
X198781206Y-77718585D01*
X198867452Y-77833794D01*
X198867455Y-77833797D01*
X198982664Y-77920043D01*
X198982671Y-77920047D01*
X199117517Y-77970341D01*
X199117516Y-77970341D01*
X199124444Y-77971085D01*
X199177127Y-77976750D01*
X200872872Y-77976749D01*
X200932483Y-77970341D01*
X201067331Y-77920046D01*
X201182546Y-77833796D01*
X201268796Y-77718581D01*
X201319091Y-77583733D01*
X201325500Y-77524123D01*
X201325500Y-77400750D01*
X201345185Y-77333711D01*
X201397989Y-77287956D01*
X201449500Y-77276750D01*
X201843331Y-77276750D01*
X201843347Y-77276751D01*
X201850943Y-77276751D01*
X202009054Y-77276751D01*
X202009057Y-77276751D01*
X202161785Y-77235827D01*
X202211904Y-77206889D01*
X202298716Y-77156770D01*
X202410520Y-77044966D01*
X202410520Y-77044964D01*
X202420728Y-77034757D01*
X202420729Y-77034754D01*
X204999916Y-74455569D01*
X205061239Y-74422084D01*
X205087597Y-74419250D01*
X211631153Y-74419250D01*
X211698192Y-74438935D01*
X211718834Y-74455569D01*
X213516931Y-76253666D01*
X213550416Y-76314989D01*
X213553250Y-76341347D01*
X213553250Y-76918270D01*
X213533565Y-76985309D01*
X213495883Y-77022191D01*
X213495998Y-77022349D01*
X213494926Y-77023127D01*
X213494035Y-77024000D01*
X213492059Y-77025210D01*
X213331283Y-77142021D01*
X213190771Y-77282533D01*
X213073963Y-77443305D01*
X212994235Y-77599780D01*
X212946260Y-77650576D01*
X212878439Y-77667371D01*
X212812304Y-77644833D01*
X212773265Y-77599780D01*
X212753929Y-77561832D01*
X212693537Y-77443306D01*
X212576731Y-77282536D01*
X212436214Y-77142019D01*
X212275444Y-77025213D01*
X212269258Y-77022061D01*
X212098382Y-76934994D01*
X212098379Y-76934993D01*
X211909387Y-76873587D01*
X211811248Y-76858043D01*
X211713111Y-76842500D01*
X211514389Y-76842500D01*
X211448964Y-76852862D01*
X211318112Y-76873587D01*
X211129120Y-76934993D01*
X211129117Y-76934994D01*
X210952055Y-77025213D01*
X210791283Y-77142021D01*
X210650771Y-77282533D01*
X210533963Y-77443305D01*
X210454235Y-77599780D01*
X210406260Y-77650576D01*
X210338439Y-77667371D01*
X210272304Y-77644833D01*
X210233265Y-77599780D01*
X210213929Y-77561832D01*
X210153537Y-77443306D01*
X210036731Y-77282536D01*
X209896214Y-77142019D01*
X209735444Y-77025213D01*
X209729258Y-77022061D01*
X209558382Y-76934994D01*
X209558379Y-76934993D01*
X209369387Y-76873587D01*
X209271248Y-76858043D01*
X209173111Y-76842500D01*
X208974389Y-76842500D01*
X208908964Y-76852862D01*
X208778112Y-76873587D01*
X208589120Y-76934993D01*
X208589117Y-76934994D01*
X208412055Y-77025213D01*
X208251283Y-77142021D01*
X208110771Y-77282533D01*
X207993963Y-77443305D01*
X207903744Y-77620367D01*
X207903743Y-77620370D01*
X207842337Y-77809362D01*
X207811250Y-78005639D01*
X207811250Y-78204360D01*
X207842337Y-78400637D01*
X207903743Y-78589629D01*
X207903744Y-78589632D01*
X207962782Y-78705499D01*
X207993963Y-78766694D01*
X208110769Y-78927464D01*
X208251286Y-79067981D01*
X208412056Y-79184787D01*
X208498899Y-79229035D01*
X208589117Y-79275005D01*
X208589120Y-79275006D01*
X208683616Y-79305709D01*
X208778114Y-79336413D01*
X208974389Y-79367500D01*
X208974390Y-79367500D01*
X209173110Y-79367500D01*
X209173111Y-79367500D01*
X209369386Y-79336413D01*
X209558382Y-79275005D01*
X209735444Y-79184787D01*
X209896214Y-79067981D01*
X210036731Y-78927464D01*
X210153537Y-78766694D01*
X210233265Y-78610218D01*
X210281240Y-78559423D01*
X210349061Y-78542628D01*
X210415196Y-78565165D01*
X210454234Y-78610218D01*
X210533963Y-78766694D01*
X210650769Y-78927464D01*
X210791286Y-79067981D01*
X210952056Y-79184787D01*
X211038899Y-79229035D01*
X211129117Y-79275005D01*
X211129120Y-79275006D01*
X211223616Y-79305709D01*
X211318114Y-79336413D01*
X211514389Y-79367500D01*
X211514390Y-79367500D01*
X211713110Y-79367500D01*
X211713111Y-79367500D01*
X211909386Y-79336413D01*
X212098382Y-79275005D01*
X212275444Y-79184787D01*
X212436214Y-79067981D01*
X212576731Y-78927464D01*
X212693537Y-78766694D01*
X212773265Y-78610218D01*
X212821240Y-78559423D01*
X212889061Y-78542628D01*
X212955196Y-78565165D01*
X212994234Y-78610218D01*
X213073963Y-78766694D01*
X213190769Y-78927464D01*
X213331286Y-79067981D01*
X213492056Y-79184787D01*
X213578899Y-79229035D01*
X213669117Y-79275005D01*
X213669120Y-79275006D01*
X213763616Y-79305709D01*
X213858114Y-79336413D01*
X214054389Y-79367500D01*
X214054390Y-79367500D01*
X214253110Y-79367500D01*
X214253111Y-79367500D01*
X214449386Y-79336413D01*
X214638382Y-79275005D01*
X214815444Y-79184787D01*
X214976214Y-79067981D01*
X215116731Y-78927464D01*
X215233537Y-78766694D01*
X215313265Y-78610218D01*
X215361240Y-78559423D01*
X215429061Y-78542628D01*
X215495196Y-78565165D01*
X215534234Y-78610218D01*
X215613963Y-78766694D01*
X215730769Y-78927464D01*
X215871286Y-79067981D01*
X216032056Y-79184787D01*
X216118899Y-79229035D01*
X216209117Y-79275005D01*
X216209120Y-79275006D01*
X216303616Y-79305709D01*
X216398114Y-79336413D01*
X216594389Y-79367500D01*
X216594390Y-79367500D01*
X216793110Y-79367500D01*
X216793111Y-79367500D01*
X216989386Y-79336413D01*
X217178382Y-79275005D01*
X217355444Y-79184787D01*
X217516214Y-79067981D01*
X217656731Y-78927464D01*
X217773537Y-78766694D01*
X217853265Y-78610218D01*
X217901240Y-78559423D01*
X217969061Y-78542628D01*
X218035196Y-78565165D01*
X218074234Y-78610218D01*
X218153963Y-78766694D01*
X218270769Y-78927464D01*
X218411286Y-79067981D01*
X218572056Y-79184787D01*
X218658899Y-79229035D01*
X218749117Y-79275005D01*
X218749120Y-79275006D01*
X218843616Y-79305709D01*
X218938114Y-79336413D01*
X219134389Y-79367500D01*
X219134390Y-79367500D01*
X219333110Y-79367500D01*
X219333111Y-79367500D01*
X219529386Y-79336413D01*
X219718382Y-79275005D01*
X219895444Y-79184787D01*
X220056214Y-79067981D01*
X220196731Y-78927464D01*
X220313537Y-78766694D01*
X220393265Y-78610218D01*
X220441240Y-78559423D01*
X220509061Y-78542628D01*
X220575196Y-78565165D01*
X220614234Y-78610218D01*
X220693963Y-78766694D01*
X220810769Y-78927464D01*
X220951286Y-79067981D01*
X221112056Y-79184787D01*
X221198899Y-79229035D01*
X221289117Y-79275005D01*
X221289120Y-79275006D01*
X221383616Y-79305709D01*
X221478114Y-79336413D01*
X221674389Y-79367500D01*
X221674390Y-79367500D01*
X221873110Y-79367500D01*
X221873111Y-79367500D01*
X222069386Y-79336413D01*
X222258382Y-79275005D01*
X222435444Y-79184787D01*
X222596214Y-79067981D01*
X222736731Y-78927464D01*
X222853537Y-78766694D01*
X222933265Y-78610218D01*
X222981240Y-78559423D01*
X223049061Y-78542628D01*
X223115196Y-78565165D01*
X223154234Y-78610218D01*
X223233963Y-78766694D01*
X223350769Y-78927464D01*
X223491286Y-79067981D01*
X223652056Y-79184787D01*
X223738899Y-79229035D01*
X223829117Y-79275005D01*
X223829120Y-79275006D01*
X223923616Y-79305709D01*
X224018114Y-79336413D01*
X224214389Y-79367500D01*
X224214390Y-79367500D01*
X224413110Y-79367500D01*
X224413111Y-79367500D01*
X224609386Y-79336413D01*
X224798382Y-79275005D01*
X224975444Y-79184787D01*
X225136214Y-79067981D01*
X225276731Y-78927464D01*
X225393537Y-78766694D01*
X225483755Y-78589632D01*
X225545163Y-78400636D01*
X225576250Y-78204361D01*
X225576250Y-78005639D01*
X225545163Y-77809364D01*
X225483755Y-77620368D01*
X225483755Y-77620367D01*
X225434717Y-77524126D01*
X225393537Y-77443306D01*
X225276731Y-77282536D01*
X225136214Y-77142019D01*
X224975444Y-77025213D01*
X224969258Y-77022061D01*
X224798382Y-76934994D01*
X224798379Y-76934993D01*
X224609387Y-76873587D01*
X224511248Y-76858043D01*
X224413111Y-76842500D01*
X224214389Y-76842500D01*
X224148964Y-76852862D01*
X224018112Y-76873587D01*
X223829120Y-76934993D01*
X223829117Y-76934994D01*
X223652055Y-77025213D01*
X223491283Y-77142021D01*
X223350771Y-77282533D01*
X223233963Y-77443305D01*
X223154235Y-77599780D01*
X223106260Y-77650576D01*
X223038439Y-77667371D01*
X222972304Y-77644833D01*
X222933265Y-77599780D01*
X222913929Y-77561832D01*
X222853537Y-77443306D01*
X222736731Y-77282536D01*
X222596214Y-77142019D01*
X222435444Y-77025213D01*
X222429258Y-77022061D01*
X222258382Y-76934994D01*
X222258379Y-76934993D01*
X222069387Y-76873587D01*
X221971248Y-76858043D01*
X221873111Y-76842500D01*
X221674389Y-76842500D01*
X221608964Y-76852862D01*
X221478112Y-76873587D01*
X221289120Y-76934993D01*
X221289117Y-76934994D01*
X221112055Y-77025213D01*
X220951283Y-77142021D01*
X220810771Y-77282533D01*
X220693963Y-77443305D01*
X220614235Y-77599780D01*
X220566260Y-77650576D01*
X220498439Y-77667371D01*
X220432304Y-77644833D01*
X220393265Y-77599780D01*
X220373929Y-77561832D01*
X220313537Y-77443306D01*
X220196731Y-77282536D01*
X220056214Y-77142019D01*
X219895444Y-77025213D01*
X219895440Y-77025210D01*
X219893465Y-77024000D01*
X219892871Y-77023343D01*
X219891502Y-77022349D01*
X219891710Y-77022061D01*
X219846587Y-76972190D01*
X219834250Y-76918270D01*
X219834250Y-71553846D01*
X219853935Y-71486807D01*
X219870564Y-71466170D01*
X223090187Y-68246546D01*
X223151508Y-68213063D01*
X223216183Y-68216297D01*
X223342382Y-68257303D01*
X223429860Y-68271158D01*
X223575653Y-68294250D01*
X223575658Y-68294250D01*
X223811847Y-68294250D01*
X224045118Y-68257303D01*
X224078218Y-68246548D01*
X224269742Y-68184318D01*
X224480183Y-68077093D01*
X224671260Y-67938267D01*
X224838267Y-67771260D01*
X224977093Y-67580183D01*
X225084318Y-67369742D01*
X225157303Y-67145118D01*
X225164854Y-67097445D01*
X225194250Y-66911847D01*
X225194250Y-66675652D01*
X225157303Y-66442381D01*
X225123439Y-66338162D01*
X225084318Y-66217758D01*
X225084316Y-66217755D01*
X225084316Y-66217753D01*
X224977092Y-66007316D01*
X224941314Y-65958072D01*
X224838267Y-65816240D01*
X224671260Y-65649233D01*
X224480183Y-65510407D01*
X224471534Y-65506000D01*
X224269746Y-65403183D01*
X224045118Y-65330196D01*
X223811847Y-65293250D01*
X223811842Y-65293250D01*
X223575658Y-65293250D01*
X223575653Y-65293250D01*
X223342381Y-65330196D01*
X223117753Y-65403183D01*
X222907316Y-65510407D01*
X222799504Y-65588738D01*
X222716240Y-65649233D01*
X222716238Y-65649235D01*
X222716237Y-65649235D01*
X222549235Y-65816237D01*
X222549235Y-65816238D01*
X222549233Y-65816240D01*
X222535176Y-65835588D01*
X222410407Y-66007316D01*
X222303183Y-66217753D01*
X222230196Y-66442381D01*
X222193250Y-66675652D01*
X222193250Y-66911847D01*
X222230197Y-67145119D01*
X222230197Y-67145122D01*
X222271200Y-67271314D01*
X222273195Y-67341155D01*
X222240950Y-67397313D01*
X219005930Y-70632334D01*
X218944607Y-70665819D01*
X218874915Y-70660835D01*
X218818982Y-70618963D01*
X218794565Y-70553499D01*
X218794249Y-70544653D01*
X218794249Y-68845879D01*
X218794248Y-68845873D01*
X218794247Y-68845866D01*
X218787841Y-68786267D01*
X218774954Y-68751716D01*
X218737547Y-68651421D01*
X218737543Y-68651414D01*
X218651297Y-68536205D01*
X218651294Y-68536202D01*
X218536085Y-68449956D01*
X218536078Y-68449952D01*
X218401232Y-68399658D01*
X218401233Y-68399658D01*
X218341633Y-68393251D01*
X218341631Y-68393250D01*
X218341623Y-68393250D01*
X218341614Y-68393250D01*
X215045879Y-68393250D01*
X215045873Y-68393251D01*
X214986266Y-68399658D01*
X214851421Y-68449952D01*
X214851414Y-68449956D01*
X214736205Y-68536202D01*
X214736202Y-68536205D01*
X214649956Y-68651414D01*
X214649952Y-68651421D01*
X214599658Y-68786267D01*
X214593251Y-68845866D01*
X214593251Y-68845873D01*
X214593250Y-68845885D01*
X214593250Y-70941620D01*
X214593251Y-70941626D01*
X214599658Y-71001233D01*
X214649952Y-71136078D01*
X214649956Y-71136085D01*
X214736202Y-71251294D01*
X214736205Y-71251297D01*
X214851414Y-71337543D01*
X214851421Y-71337547D01*
X214986267Y-71387841D01*
X214986266Y-71387841D01*
X214993194Y-71388585D01*
X215045877Y-71394250D01*
X218341622Y-71394249D01*
X218401233Y-71387841D01*
X218465918Y-71363714D01*
X218535608Y-71358731D01*
X218596931Y-71392215D01*
X218630416Y-71453538D01*
X218633250Y-71479897D01*
X218633250Y-76918270D01*
X218613565Y-76985309D01*
X218575883Y-77022191D01*
X218575998Y-77022349D01*
X218574926Y-77023127D01*
X218574035Y-77024000D01*
X218572059Y-77025210D01*
X218411283Y-77142021D01*
X218270771Y-77282533D01*
X218153963Y-77443305D01*
X218074235Y-77599780D01*
X218026260Y-77650576D01*
X217958439Y-77667371D01*
X217892304Y-77644833D01*
X217853265Y-77599780D01*
X217833929Y-77561832D01*
X217773537Y-77443306D01*
X217656731Y-77282536D01*
X217516214Y-77142019D01*
X217355444Y-77025213D01*
X217349258Y-77022061D01*
X217178382Y-76934994D01*
X217178379Y-76934993D01*
X216989387Y-76873587D01*
X216891248Y-76858043D01*
X216793111Y-76842500D01*
X216594389Y-76842500D01*
X216528964Y-76852862D01*
X216398112Y-76873587D01*
X216209120Y-76934993D01*
X216209117Y-76934994D01*
X216032055Y-77025213D01*
X215871283Y-77142021D01*
X215730771Y-77282533D01*
X215613963Y-77443305D01*
X215534235Y-77599780D01*
X215486260Y-77650576D01*
X215418439Y-77667371D01*
X215352304Y-77644833D01*
X215313265Y-77599780D01*
X215293929Y-77561832D01*
X215233537Y-77443306D01*
X215116731Y-77282536D01*
X214976214Y-77142019D01*
X214815444Y-77025213D01*
X214815440Y-77025210D01*
X214813465Y-77024000D01*
X214812871Y-77023343D01*
X214811502Y-77022349D01*
X214811710Y-77022061D01*
X214766587Y-76972190D01*
X214754250Y-76918270D01*
X214754250Y-76130310D01*
X214754251Y-76130297D01*
X214754251Y-75962194D01*
X214754251Y-75962193D01*
X214713327Y-75809466D01*
X214689829Y-75768766D01*
X214634274Y-75672540D01*
X214634268Y-75672532D01*
X212418840Y-73457105D01*
X212418838Y-73457102D01*
X212299967Y-73338231D01*
X212299966Y-73338230D01*
X212213154Y-73288110D01*
X212213154Y-73288109D01*
X212213150Y-73288108D01*
X212163035Y-73259173D01*
X212010307Y-73218249D01*
X211852193Y-73218249D01*
X211844597Y-73218249D01*
X211844581Y-73218250D01*
X204866557Y-73218250D01*
X204708442Y-73218250D01*
X204555715Y-73259173D01*
X204555714Y-73259173D01*
X204555712Y-73259174D01*
X204555709Y-73259175D01*
X204505596Y-73288109D01*
X204505595Y-73288110D01*
X204462189Y-73313170D01*
X204418785Y-73338229D01*
X204418782Y-73338231D01*
X204306978Y-73450036D01*
X201717584Y-76039431D01*
X201690656Y-76054134D01*
X201664838Y-76070727D01*
X201658637Y-76071618D01*
X201656261Y-76072916D01*
X201629903Y-76075750D01*
X201449499Y-76075750D01*
X201382460Y-76056065D01*
X201336705Y-76003261D01*
X201325499Y-75951750D01*
X201325499Y-75828379D01*
X201325498Y-75828373D01*
X201325497Y-75828366D01*
X201319091Y-75768767D01*
X201283198Y-75672534D01*
X201268797Y-75633921D01*
X201268793Y-75633914D01*
X201182547Y-75518705D01*
X201182544Y-75518702D01*
X201067335Y-75432456D01*
X201067328Y-75432452D01*
X200932482Y-75382158D01*
X200932483Y-75382158D01*
X200872883Y-75375751D01*
X200872881Y-75375750D01*
X200872873Y-75375750D01*
X200872864Y-75375750D01*
X199177129Y-75375750D01*
X199177123Y-75375751D01*
X199117516Y-75382158D01*
X198982671Y-75432452D01*
X198982664Y-75432456D01*
X198867455Y-75518702D01*
X198867452Y-75518705D01*
X198781206Y-75633914D01*
X198781202Y-75633921D01*
X198730908Y-75768767D01*
X198726534Y-75809459D01*
X198724501Y-75828373D01*
X198724500Y-75828385D01*
X198724500Y-75951750D01*
X198704815Y-76018789D01*
X198652011Y-76064544D01*
X198600500Y-76075750D01*
X182399499Y-76075750D01*
X182332460Y-76056065D01*
X182286705Y-76003261D01*
X182275499Y-75951750D01*
X182275499Y-75828379D01*
X182275498Y-75828373D01*
X182275497Y-75828366D01*
X182269091Y-75768767D01*
X182233198Y-75672534D01*
X182218797Y-75633921D01*
X182218793Y-75633914D01*
X182132547Y-75518705D01*
X182132544Y-75518702D01*
X182017335Y-75432456D01*
X182017328Y-75432452D01*
X181882482Y-75382158D01*
X181882483Y-75382158D01*
X181822883Y-75375751D01*
X181822881Y-75375750D01*
X181822873Y-75375750D01*
X181822864Y-75375750D01*
X180127129Y-75375750D01*
X180127123Y-75375751D01*
X180067516Y-75382158D01*
X179932671Y-75432452D01*
X179932664Y-75432456D01*
X179817455Y-75518702D01*
X179817452Y-75518705D01*
X179731206Y-75633914D01*
X179731202Y-75633921D01*
X179680908Y-75768767D01*
X179676534Y-75809459D01*
X179674501Y-75828373D01*
X179674500Y-75828385D01*
X179674500Y-75951750D01*
X179654815Y-76018789D01*
X179602011Y-76064544D01*
X179550500Y-76075750D01*
X163349499Y-76075750D01*
X163282460Y-76056065D01*
X163236705Y-76003261D01*
X163225499Y-75951750D01*
X163225499Y-75828379D01*
X163225498Y-75828373D01*
X163225497Y-75828366D01*
X163219091Y-75768767D01*
X163183198Y-75672534D01*
X163168797Y-75633921D01*
X163168793Y-75633914D01*
X163082547Y-75518705D01*
X163082544Y-75518702D01*
X162967335Y-75432456D01*
X162967328Y-75432452D01*
X162832482Y-75382158D01*
X162832483Y-75382158D01*
X162772883Y-75375751D01*
X162772881Y-75375750D01*
X162772873Y-75375750D01*
X162772864Y-75375750D01*
X161077129Y-75375750D01*
X161077123Y-75375751D01*
X161017516Y-75382158D01*
X160882671Y-75432452D01*
X160882664Y-75432456D01*
X160767455Y-75518702D01*
X160767452Y-75518705D01*
X160681206Y-75633914D01*
X160681202Y-75633921D01*
X160630908Y-75768767D01*
X160626534Y-75809459D01*
X160624501Y-75828373D01*
X160624500Y-75828385D01*
X160624500Y-75951750D01*
X160604815Y-76018789D01*
X160552011Y-76064544D01*
X160500500Y-76075750D01*
X144299499Y-76075750D01*
X144232460Y-76056065D01*
X144186705Y-76003261D01*
X144175499Y-75951750D01*
X144175499Y-75828379D01*
X144175498Y-75828373D01*
X144175497Y-75828366D01*
X144169091Y-75768767D01*
X144133198Y-75672534D01*
X144118797Y-75633921D01*
X144118793Y-75633914D01*
X144032547Y-75518705D01*
X144032544Y-75518702D01*
X143917335Y-75432456D01*
X143917328Y-75432452D01*
X143782482Y-75382158D01*
X143782483Y-75382158D01*
X143722883Y-75375751D01*
X143722881Y-75375750D01*
X143722873Y-75375750D01*
X143722864Y-75375750D01*
X142027129Y-75375750D01*
X142027123Y-75375751D01*
X141967516Y-75382158D01*
X141832671Y-75432452D01*
X141832664Y-75432456D01*
X141717455Y-75518702D01*
X141717452Y-75518705D01*
X141631206Y-75633914D01*
X141631202Y-75633921D01*
X141580908Y-75768767D01*
X141576534Y-75809459D01*
X141574501Y-75828373D01*
X141574500Y-75828385D01*
X141574500Y-75951750D01*
X141554815Y-76018789D01*
X141502011Y-76064544D01*
X141450500Y-76075750D01*
X125249499Y-76075750D01*
X125182460Y-76056065D01*
X125136705Y-76003261D01*
X125125499Y-75951750D01*
X125125499Y-75828379D01*
X125125498Y-75828373D01*
X125125497Y-75828366D01*
X125119091Y-75768767D01*
X125083198Y-75672534D01*
X125068797Y-75633921D01*
X125068793Y-75633914D01*
X124982547Y-75518705D01*
X124982544Y-75518702D01*
X124867335Y-75432456D01*
X124867328Y-75432452D01*
X124732482Y-75382158D01*
X124732483Y-75382158D01*
X124672883Y-75375751D01*
X124672881Y-75375750D01*
X124672873Y-75375750D01*
X124672864Y-75375750D01*
X122977129Y-75375750D01*
X122977123Y-75375751D01*
X122917516Y-75382158D01*
X122782671Y-75432452D01*
X122782664Y-75432456D01*
X122667455Y-75518702D01*
X122667452Y-75518705D01*
X122581206Y-75633914D01*
X122581202Y-75633921D01*
X122530908Y-75768767D01*
X122526534Y-75809459D01*
X122524501Y-75828373D01*
X122524500Y-75828385D01*
X102894250Y-75828385D01*
X102894250Y-66588389D01*
X107960750Y-66588389D01*
X107960750Y-66761611D01*
X107987848Y-66932701D01*
X108041377Y-67097445D01*
X108120018Y-67251788D01*
X108221836Y-67391928D01*
X108344322Y-67514414D01*
X108484462Y-67616232D01*
X108638805Y-67694873D01*
X108803549Y-67748402D01*
X108974639Y-67775500D01*
X108974640Y-67775500D01*
X109147860Y-67775500D01*
X109147861Y-67775500D01*
X109318951Y-67748402D01*
X109483695Y-67694873D01*
X109638038Y-67616232D01*
X109778178Y-67514414D01*
X109900664Y-67391928D01*
X110002482Y-67251788D01*
X110081123Y-67097445D01*
X110134652Y-66932701D01*
X110161750Y-66761611D01*
X110161750Y-66588389D01*
X110134652Y-66417299D01*
X110081123Y-66252555D01*
X110002482Y-66098212D01*
X109900664Y-65958072D01*
X109848732Y-65906140D01*
X109815247Y-65844817D01*
X109820231Y-65775125D01*
X109862103Y-65719192D01*
X109927567Y-65694775D01*
X109955811Y-65695986D01*
X109956462Y-65696089D01*
X109956465Y-65696090D01*
X110205288Y-65735500D01*
X110205289Y-65735500D01*
X110457211Y-65735500D01*
X110457212Y-65735500D01*
X110706035Y-65696090D01*
X110945629Y-65618241D01*
X111170095Y-65503870D01*
X111373906Y-65355793D01*
X111552043Y-65177656D01*
X111700120Y-64973845D01*
X111787065Y-64803204D01*
X111835039Y-64752409D01*
X111897550Y-64735500D01*
X112606712Y-64735500D01*
X112673751Y-64755185D01*
X112719506Y-64807989D01*
X112729450Y-64877147D01*
X112700425Y-64940703D01*
X112682198Y-64957876D01*
X112654209Y-64979352D01*
X112654202Y-64979358D01*
X112445608Y-65187952D01*
X112445602Y-65187959D01*
X112266011Y-65422006D01*
X112118508Y-65677489D01*
X112118504Y-65677499D01*
X112005614Y-65950038D01*
X112005611Y-65950048D01*
X111929258Y-66235004D01*
X111929256Y-66235015D01*
X111890750Y-66527486D01*
X111890750Y-66822513D01*
X111922821Y-67066113D01*
X111929257Y-67114993D01*
X112003462Y-67391930D01*
X112005611Y-67399951D01*
X112005614Y-67399961D01*
X112118504Y-67672500D01*
X112118508Y-67672510D01*
X112266011Y-67927993D01*
X112445602Y-68162040D01*
X112445608Y-68162047D01*
X112654202Y-68370641D01*
X112654209Y-68370647D01*
X112888256Y-68550238D01*
X113143739Y-68697741D01*
X113143740Y-68697741D01*
X113143743Y-68697743D01*
X113416298Y-68810639D01*
X113701257Y-68886993D01*
X113993744Y-68925500D01*
X113993751Y-68925500D01*
X114288749Y-68925500D01*
X114288756Y-68925500D01*
X114581243Y-68886993D01*
X114866202Y-68810639D01*
X115138757Y-68697743D01*
X115394244Y-68550238D01*
X115628292Y-68370646D01*
X115836896Y-68162042D01*
X116016488Y-67927994D01*
X116163993Y-67672507D01*
X116276889Y-67399952D01*
X116353243Y-67114993D01*
X116391750Y-66822506D01*
X116391750Y-66749281D01*
X116411435Y-66682242D01*
X116464239Y-66636487D01*
X116533397Y-66626543D01*
X116596953Y-66655568D01*
X116603431Y-66661600D01*
X119362455Y-69420624D01*
X119362465Y-69420635D01*
X119366795Y-69424965D01*
X119366796Y-69424966D01*
X119478600Y-69536770D01*
X119478602Y-69536771D01*
X119478606Y-69536774D01*
X119615525Y-69615823D01*
X119615532Y-69615827D01*
X119727335Y-69645784D01*
X119768258Y-69656750D01*
X119768259Y-69656750D01*
X122595398Y-69656750D01*
X122662437Y-69676435D01*
X122705883Y-69724455D01*
X122712715Y-69737864D01*
X122833028Y-69903463D01*
X122977786Y-70048221D01*
X123132749Y-70160806D01*
X123143390Y-70168537D01*
X123259607Y-70227753D01*
X123325776Y-70261468D01*
X123325778Y-70261468D01*
X123325781Y-70261470D01*
X123430137Y-70295377D01*
X123520465Y-70324727D01*
X123621557Y-70340738D01*
X123722648Y-70356750D01*
X123722649Y-70356750D01*
X123927351Y-70356750D01*
X123927352Y-70356750D01*
X124129534Y-70324727D01*
X124324219Y-70261470D01*
X124506610Y-70168537D01*
X124599590Y-70100982D01*
X124672213Y-70048221D01*
X124672215Y-70048218D01*
X124672219Y-70048216D01*
X124816966Y-69903469D01*
X124816968Y-69903465D01*
X124816971Y-69903463D01*
X124869732Y-69830840D01*
X124937287Y-69737860D01*
X125030220Y-69555469D01*
X125093477Y-69360784D01*
X125125500Y-69158602D01*
X125125500Y-68953898D01*
X125102810Y-68810639D01*
X125093477Y-68751715D01*
X125060889Y-68651421D01*
X125030220Y-68557031D01*
X125030218Y-68557028D01*
X125030218Y-68557026D01*
X124996503Y-68490857D01*
X124937287Y-68374640D01*
X124878881Y-68294250D01*
X124816971Y-68209036D01*
X124672213Y-68064278D01*
X124506613Y-67943965D01*
X124506612Y-67943964D01*
X124506610Y-67943963D01*
X124447051Y-67913616D01*
X124324223Y-67851031D01*
X124129534Y-67787772D01*
X123954995Y-67760128D01*
X123927352Y-67755750D01*
X123722648Y-67755750D01*
X123698329Y-67759601D01*
X123520465Y-67787772D01*
X123325776Y-67851031D01*
X123143386Y-67943965D01*
X122977786Y-68064278D01*
X122833028Y-68209036D01*
X122712715Y-68374635D01*
X122705883Y-68388045D01*
X122657909Y-68438841D01*
X122595398Y-68455750D01*
X120147413Y-68455750D01*
X120080374Y-68436065D01*
X120059732Y-68419431D01*
X119553917Y-67913616D01*
X119520432Y-67852293D01*
X119525416Y-67782601D01*
X119567288Y-67726668D01*
X119603278Y-67708005D01*
X119643695Y-67694873D01*
X119798038Y-67616232D01*
X119938178Y-67514414D01*
X120060664Y-67391928D01*
X120162482Y-67251788D01*
X120241123Y-67097445D01*
X120294652Y-66932701D01*
X120321750Y-66761611D01*
X120321750Y-66588389D01*
X127169500Y-66588389D01*
X127169500Y-66761611D01*
X127196598Y-66932701D01*
X127250127Y-67097445D01*
X127328768Y-67251788D01*
X127430586Y-67391928D01*
X127553072Y-67514414D01*
X127693212Y-67616232D01*
X127847555Y-67694873D01*
X128012299Y-67748402D01*
X128183389Y-67775500D01*
X128183390Y-67775500D01*
X128356610Y-67775500D01*
X128356611Y-67775500D01*
X128527701Y-67748402D01*
X128692445Y-67694873D01*
X128846788Y-67616232D01*
X128986928Y-67514414D01*
X129109414Y-67391928D01*
X129211232Y-67251788D01*
X129289873Y-67097445D01*
X129343402Y-66932701D01*
X129370500Y-66761611D01*
X129370500Y-66588389D01*
X129343402Y-66417299D01*
X129289873Y-66252555D01*
X129211232Y-66098212D01*
X129109414Y-65958072D01*
X129057482Y-65906140D01*
X129023997Y-65844817D01*
X129028981Y-65775125D01*
X129070853Y-65719192D01*
X129136317Y-65694775D01*
X129164561Y-65695986D01*
X129165212Y-65696089D01*
X129165215Y-65696090D01*
X129414038Y-65735500D01*
X129414039Y-65735500D01*
X129665961Y-65735500D01*
X129665962Y-65735500D01*
X129914785Y-65696090D01*
X130154379Y-65618241D01*
X130378845Y-65503870D01*
X130582656Y-65355793D01*
X130760793Y-65177656D01*
X130908870Y-64973845D01*
X130995815Y-64803204D01*
X131043789Y-64752409D01*
X131106300Y-64735500D01*
X131815462Y-64735500D01*
X131882501Y-64755185D01*
X131928256Y-64807989D01*
X131938200Y-64877147D01*
X131909175Y-64940703D01*
X131890948Y-64957876D01*
X131862959Y-64979352D01*
X131862952Y-64979358D01*
X131654358Y-65187952D01*
X131654352Y-65187959D01*
X131474761Y-65422006D01*
X131327258Y-65677489D01*
X131327254Y-65677499D01*
X131214364Y-65950038D01*
X131214361Y-65950048D01*
X131138008Y-66235004D01*
X131138006Y-66235015D01*
X131099500Y-66527486D01*
X131099500Y-66822513D01*
X131131571Y-67066113D01*
X131138007Y-67114993D01*
X131212212Y-67391930D01*
X131214361Y-67399951D01*
X131214364Y-67399961D01*
X131327254Y-67672500D01*
X131327258Y-67672510D01*
X131474761Y-67927993D01*
X131654352Y-68162040D01*
X131654358Y-68162047D01*
X131862952Y-68370641D01*
X131862959Y-68370647D01*
X132097006Y-68550238D01*
X132352489Y-68697741D01*
X132352490Y-68697741D01*
X132352493Y-68697743D01*
X132625048Y-68810639D01*
X132910007Y-68886993D01*
X133202494Y-68925500D01*
X133202501Y-68925500D01*
X133497499Y-68925500D01*
X133497506Y-68925500D01*
X133789993Y-68886993D01*
X134074952Y-68810639D01*
X134347507Y-68697743D01*
X134602994Y-68550238D01*
X134837042Y-68370646D01*
X135045646Y-68162042D01*
X135225238Y-67927994D01*
X135372743Y-67672507D01*
X135485639Y-67399952D01*
X135561993Y-67114993D01*
X135600500Y-66822506D01*
X135600500Y-66527494D01*
X135561993Y-66235007D01*
X135485639Y-65950048D01*
X135372743Y-65677493D01*
X135356428Y-65649235D01*
X135225238Y-65422006D01*
X135045647Y-65187959D01*
X135045641Y-65187952D01*
X134837047Y-64979358D01*
X134837040Y-64979352D01*
X134809052Y-64957876D01*
X134767849Y-64901448D01*
X134763694Y-64831702D01*
X134797906Y-64770782D01*
X134859624Y-64738029D01*
X134884538Y-64735500D01*
X137653653Y-64735500D01*
X137720692Y-64755185D01*
X137741334Y-64771819D01*
X138344500Y-65374985D01*
X138377985Y-65436308D01*
X138373001Y-65506000D01*
X138331129Y-65561933D01*
X138276217Y-65585139D01*
X138172302Y-65601597D01*
X138007552Y-65655128D01*
X137853211Y-65733768D01*
X137796289Y-65775125D01*
X137713072Y-65835586D01*
X137713070Y-65835588D01*
X137713069Y-65835588D01*
X137590588Y-65958069D01*
X137590588Y-65958070D01*
X137590586Y-65958072D01*
X137554808Y-66007316D01*
X137488768Y-66098211D01*
X137410128Y-66252552D01*
X137356597Y-66417302D01*
X137339146Y-66527486D01*
X137329500Y-66588389D01*
X137329500Y-66761611D01*
X137356598Y-66932701D01*
X137410127Y-67097445D01*
X137488768Y-67251788D01*
X137590586Y-67391928D01*
X137713072Y-67514414D01*
X137853212Y-67616232D01*
X138007555Y-67694873D01*
X138172299Y-67748402D01*
X138343389Y-67775500D01*
X138343390Y-67775500D01*
X138516610Y-67775500D01*
X138516611Y-67775500D01*
X138687701Y-67748402D01*
X138852445Y-67694873D01*
X139006788Y-67616232D01*
X139146928Y-67514414D01*
X139269414Y-67391928D01*
X139371232Y-67251788D01*
X139449873Y-67097445D01*
X139503402Y-66932701D01*
X139519861Y-66828778D01*
X139549788Y-66765648D01*
X139609099Y-66728717D01*
X139678962Y-66729713D01*
X139730014Y-66760499D01*
X141580922Y-68611407D01*
X141614407Y-68672730D01*
X141611173Y-68737405D01*
X141606522Y-68751718D01*
X141574500Y-68953898D01*
X141574500Y-69158601D01*
X141606522Y-69360784D01*
X141669781Y-69555473D01*
X141762715Y-69737863D01*
X141883028Y-69903463D01*
X142027786Y-70048221D01*
X142182749Y-70160806D01*
X142193390Y-70168537D01*
X142309607Y-70227753D01*
X142375776Y-70261468D01*
X142375778Y-70261468D01*
X142375781Y-70261470D01*
X142480137Y-70295377D01*
X142570465Y-70324727D01*
X142671557Y-70340738D01*
X142772648Y-70356750D01*
X142772649Y-70356750D01*
X142977351Y-70356750D01*
X142977352Y-70356750D01*
X143179534Y-70324727D01*
X143374219Y-70261470D01*
X143556610Y-70168537D01*
X143649590Y-70100982D01*
X143722213Y-70048221D01*
X143722215Y-70048218D01*
X143722219Y-70048216D01*
X143866966Y-69903469D01*
X143866968Y-69903465D01*
X143866971Y-69903463D01*
X143919732Y-69830840D01*
X143987287Y-69737860D01*
X144080220Y-69555469D01*
X144143477Y-69360784D01*
X144175500Y-69158602D01*
X144175500Y-68953898D01*
X144152810Y-68810639D01*
X144143477Y-68751715D01*
X144110889Y-68651421D01*
X144080220Y-68557031D01*
X144080218Y-68557028D01*
X144080218Y-68557026D01*
X144046503Y-68490857D01*
X143987287Y-68374640D01*
X143928881Y-68294250D01*
X143866971Y-68209036D01*
X143722213Y-68064278D01*
X143556613Y-67943965D01*
X143556612Y-67943964D01*
X143556610Y-67943963D01*
X143497051Y-67913616D01*
X143374223Y-67851031D01*
X143179534Y-67787772D01*
X143004995Y-67760128D01*
X142977352Y-67755750D01*
X142772648Y-67755750D01*
X142741137Y-67760741D01*
X142570468Y-67787772D01*
X142561717Y-67790615D01*
X142556154Y-67792423D01*
X142486313Y-67794417D01*
X142430157Y-67762172D01*
X141256374Y-66588389D01*
X146219500Y-66588389D01*
X146219500Y-66761611D01*
X146246598Y-66932701D01*
X146300127Y-67097445D01*
X146378768Y-67251788D01*
X146480586Y-67391928D01*
X146603072Y-67514414D01*
X146743212Y-67616232D01*
X146897555Y-67694873D01*
X147062299Y-67748402D01*
X147233389Y-67775500D01*
X147233390Y-67775500D01*
X147406610Y-67775500D01*
X147406611Y-67775500D01*
X147577701Y-67748402D01*
X147742445Y-67694873D01*
X147896788Y-67616232D01*
X148036928Y-67514414D01*
X148159414Y-67391928D01*
X148261232Y-67251788D01*
X148339873Y-67097445D01*
X148393402Y-66932701D01*
X148420500Y-66761611D01*
X148420500Y-66588389D01*
X148393402Y-66417299D01*
X148339873Y-66252555D01*
X148261232Y-66098212D01*
X148159414Y-65958072D01*
X148107482Y-65906140D01*
X148073997Y-65844817D01*
X148078981Y-65775125D01*
X148120853Y-65719192D01*
X148186317Y-65694775D01*
X148214561Y-65695986D01*
X148215212Y-65696089D01*
X148215215Y-65696090D01*
X148464038Y-65735500D01*
X148464039Y-65735500D01*
X148715961Y-65735500D01*
X148715962Y-65735500D01*
X148964785Y-65696090D01*
X149204379Y-65618241D01*
X149428845Y-65503870D01*
X149632656Y-65355793D01*
X149810793Y-65177656D01*
X149958870Y-64973845D01*
X150045815Y-64803204D01*
X150093789Y-64752409D01*
X150156300Y-64735500D01*
X150865462Y-64735500D01*
X150932501Y-64755185D01*
X150978256Y-64807989D01*
X150988200Y-64877147D01*
X150959175Y-64940703D01*
X150940948Y-64957876D01*
X150912959Y-64979352D01*
X150912952Y-64979358D01*
X150704358Y-65187952D01*
X150704352Y-65187959D01*
X150524761Y-65422006D01*
X150377258Y-65677489D01*
X150377254Y-65677499D01*
X150264364Y-65950038D01*
X150264361Y-65950048D01*
X150188008Y-66235004D01*
X150188006Y-66235015D01*
X150149500Y-66527486D01*
X150149500Y-66822513D01*
X150181571Y-67066113D01*
X150188007Y-67114993D01*
X150262212Y-67391930D01*
X150264361Y-67399951D01*
X150264364Y-67399961D01*
X150377254Y-67672500D01*
X150377258Y-67672510D01*
X150524761Y-67927993D01*
X150704352Y-68162040D01*
X150704358Y-68162047D01*
X150912952Y-68370641D01*
X150912959Y-68370647D01*
X151147006Y-68550238D01*
X151402489Y-68697741D01*
X151402490Y-68697741D01*
X151402493Y-68697743D01*
X151675048Y-68810639D01*
X151960007Y-68886993D01*
X152252494Y-68925500D01*
X152252501Y-68925500D01*
X152547499Y-68925500D01*
X152547506Y-68925500D01*
X152839993Y-68886993D01*
X153124952Y-68810639D01*
X153397507Y-68697743D01*
X153652994Y-68550238D01*
X153887042Y-68370646D01*
X154095646Y-68162042D01*
X154275238Y-67927994D01*
X154422743Y-67672507D01*
X154535639Y-67399952D01*
X154611993Y-67114993D01*
X154650500Y-66822506D01*
X154650500Y-66527494D01*
X154611993Y-66235007D01*
X154535639Y-65950048D01*
X154422743Y-65677493D01*
X154406428Y-65649235D01*
X154275238Y-65422006D01*
X154095647Y-65187959D01*
X154095641Y-65187952D01*
X153887047Y-64979358D01*
X153887040Y-64979352D01*
X153859052Y-64957876D01*
X153817849Y-64901448D01*
X153813694Y-64831702D01*
X153847906Y-64770782D01*
X153909624Y-64738029D01*
X153934538Y-64735500D01*
X156703653Y-64735500D01*
X156770692Y-64755185D01*
X156791334Y-64771819D01*
X157394500Y-65374985D01*
X157427985Y-65436308D01*
X157423001Y-65506000D01*
X157381129Y-65561933D01*
X157326217Y-65585139D01*
X157222302Y-65601597D01*
X157057552Y-65655128D01*
X156903211Y-65733768D01*
X156846289Y-65775125D01*
X156763072Y-65835586D01*
X156763070Y-65835588D01*
X156763069Y-65835588D01*
X156640588Y-65958069D01*
X156640588Y-65958070D01*
X156640586Y-65958072D01*
X156604808Y-66007316D01*
X156538768Y-66098211D01*
X156460128Y-66252552D01*
X156406597Y-66417302D01*
X156389146Y-66527486D01*
X156379500Y-66588389D01*
X156379500Y-66761611D01*
X156406598Y-66932701D01*
X156460127Y-67097445D01*
X156538768Y-67251788D01*
X156640586Y-67391928D01*
X156763072Y-67514414D01*
X156903212Y-67616232D01*
X157057555Y-67694873D01*
X157222299Y-67748402D01*
X157393389Y-67775500D01*
X157393390Y-67775500D01*
X157566610Y-67775500D01*
X157566611Y-67775500D01*
X157737701Y-67748402D01*
X157902445Y-67694873D01*
X158056788Y-67616232D01*
X158196928Y-67514414D01*
X158319414Y-67391928D01*
X158421232Y-67251788D01*
X158499873Y-67097445D01*
X158553402Y-66932701D01*
X158569861Y-66828778D01*
X158599788Y-66765648D01*
X158659099Y-66728717D01*
X158728962Y-66729713D01*
X158780014Y-66760499D01*
X160630922Y-68611407D01*
X160664407Y-68672730D01*
X160661173Y-68737405D01*
X160656522Y-68751718D01*
X160624500Y-68953898D01*
X160624500Y-69158601D01*
X160656522Y-69360784D01*
X160719781Y-69555473D01*
X160812715Y-69737863D01*
X160933028Y-69903463D01*
X161077786Y-70048221D01*
X161232749Y-70160806D01*
X161243390Y-70168537D01*
X161359607Y-70227753D01*
X161425776Y-70261468D01*
X161425778Y-70261468D01*
X161425781Y-70261470D01*
X161530137Y-70295377D01*
X161620465Y-70324727D01*
X161721557Y-70340738D01*
X161822648Y-70356750D01*
X161822649Y-70356750D01*
X162027351Y-70356750D01*
X162027352Y-70356750D01*
X162229534Y-70324727D01*
X162424219Y-70261470D01*
X162606610Y-70168537D01*
X162699590Y-70100982D01*
X162772213Y-70048221D01*
X162772215Y-70048218D01*
X162772219Y-70048216D01*
X162916966Y-69903469D01*
X162916968Y-69903465D01*
X162916971Y-69903463D01*
X162969732Y-69830840D01*
X163037287Y-69737860D01*
X163130220Y-69555469D01*
X163193477Y-69360784D01*
X163225500Y-69158602D01*
X163225500Y-68953898D01*
X163202810Y-68810639D01*
X163193477Y-68751715D01*
X163160889Y-68651421D01*
X163130220Y-68557031D01*
X163130218Y-68557028D01*
X163130218Y-68557026D01*
X163096503Y-68490857D01*
X163037287Y-68374640D01*
X162978881Y-68294250D01*
X162916971Y-68209036D01*
X162772213Y-68064278D01*
X162606613Y-67943965D01*
X162606612Y-67943964D01*
X162606610Y-67943963D01*
X162547051Y-67913616D01*
X162424223Y-67851031D01*
X162229534Y-67787772D01*
X162054995Y-67760128D01*
X162027352Y-67755750D01*
X161822648Y-67755750D01*
X161791137Y-67760741D01*
X161620468Y-67787772D01*
X161611717Y-67790615D01*
X161606154Y-67792423D01*
X161536313Y-67794417D01*
X161480157Y-67762172D01*
X160306374Y-66588389D01*
X165269500Y-66588389D01*
X165269500Y-66761611D01*
X165296598Y-66932701D01*
X165350127Y-67097445D01*
X165428768Y-67251788D01*
X165530586Y-67391928D01*
X165653072Y-67514414D01*
X165793212Y-67616232D01*
X165947555Y-67694873D01*
X166112299Y-67748402D01*
X166283389Y-67775500D01*
X166283390Y-67775500D01*
X166456610Y-67775500D01*
X166456611Y-67775500D01*
X166627701Y-67748402D01*
X166792445Y-67694873D01*
X166946788Y-67616232D01*
X167086928Y-67514414D01*
X167209414Y-67391928D01*
X167311232Y-67251788D01*
X167389873Y-67097445D01*
X167443402Y-66932701D01*
X167470500Y-66761611D01*
X167470500Y-66588389D01*
X167443402Y-66417299D01*
X167389873Y-66252555D01*
X167311232Y-66098212D01*
X167209414Y-65958072D01*
X167157482Y-65906140D01*
X167123997Y-65844817D01*
X167128981Y-65775125D01*
X167170853Y-65719192D01*
X167236317Y-65694775D01*
X167264561Y-65695986D01*
X167265212Y-65696089D01*
X167265215Y-65696090D01*
X167514038Y-65735500D01*
X167514039Y-65735500D01*
X167765961Y-65735500D01*
X167765962Y-65735500D01*
X168014785Y-65696090D01*
X168254379Y-65618241D01*
X168478845Y-65503870D01*
X168682656Y-65355793D01*
X168860793Y-65177656D01*
X169008870Y-64973845D01*
X169095815Y-64803204D01*
X169143789Y-64752409D01*
X169206300Y-64735500D01*
X169915462Y-64735500D01*
X169982501Y-64755185D01*
X170028256Y-64807989D01*
X170038200Y-64877147D01*
X170009175Y-64940703D01*
X169990948Y-64957876D01*
X169962959Y-64979352D01*
X169962952Y-64979358D01*
X169754358Y-65187952D01*
X169754352Y-65187959D01*
X169574761Y-65422006D01*
X169427258Y-65677489D01*
X169427254Y-65677499D01*
X169314364Y-65950038D01*
X169314361Y-65950048D01*
X169238008Y-66235004D01*
X169238006Y-66235015D01*
X169199500Y-66527486D01*
X169199500Y-66822513D01*
X169231571Y-67066113D01*
X169238007Y-67114993D01*
X169312212Y-67391930D01*
X169314361Y-67399951D01*
X169314364Y-67399961D01*
X169427254Y-67672500D01*
X169427258Y-67672510D01*
X169574761Y-67927993D01*
X169754352Y-68162040D01*
X169754358Y-68162047D01*
X169962952Y-68370641D01*
X169962959Y-68370647D01*
X170197006Y-68550238D01*
X170452489Y-68697741D01*
X170452490Y-68697741D01*
X170452493Y-68697743D01*
X170725048Y-68810639D01*
X171010007Y-68886993D01*
X171302494Y-68925500D01*
X171302501Y-68925500D01*
X171597499Y-68925500D01*
X171597506Y-68925500D01*
X171889993Y-68886993D01*
X172174952Y-68810639D01*
X172447507Y-68697743D01*
X172702994Y-68550238D01*
X172937042Y-68370646D01*
X173145646Y-68162042D01*
X173325238Y-67927994D01*
X173472743Y-67672507D01*
X173585639Y-67399952D01*
X173661993Y-67114993D01*
X173700500Y-66822506D01*
X173700500Y-66527494D01*
X173661993Y-66235007D01*
X173585639Y-65950048D01*
X173472743Y-65677493D01*
X173456428Y-65649235D01*
X173325238Y-65422006D01*
X173145647Y-65187959D01*
X173145641Y-65187952D01*
X172937047Y-64979358D01*
X172937040Y-64979352D01*
X172909052Y-64957876D01*
X172867849Y-64901448D01*
X172863694Y-64831702D01*
X172897906Y-64770782D01*
X172959624Y-64738029D01*
X172984538Y-64735500D01*
X175753653Y-64735500D01*
X175820692Y-64755185D01*
X175841334Y-64771819D01*
X176444500Y-65374985D01*
X176477985Y-65436308D01*
X176473001Y-65506000D01*
X176431129Y-65561933D01*
X176376217Y-65585139D01*
X176272302Y-65601597D01*
X176107552Y-65655128D01*
X175953211Y-65733768D01*
X175896289Y-65775125D01*
X175813072Y-65835586D01*
X175813070Y-65835588D01*
X175813069Y-65835588D01*
X175690588Y-65958069D01*
X175690588Y-65958070D01*
X175690586Y-65958072D01*
X175654808Y-66007316D01*
X175588768Y-66098211D01*
X175510128Y-66252552D01*
X175456597Y-66417302D01*
X175439146Y-66527486D01*
X175429500Y-66588389D01*
X175429500Y-66761611D01*
X175456598Y-66932701D01*
X175510127Y-67097445D01*
X175588768Y-67251788D01*
X175690586Y-67391928D01*
X175813072Y-67514414D01*
X175953212Y-67616232D01*
X176107555Y-67694873D01*
X176272299Y-67748402D01*
X176443389Y-67775500D01*
X176443390Y-67775500D01*
X176616610Y-67775500D01*
X176616611Y-67775500D01*
X176787701Y-67748402D01*
X176952445Y-67694873D01*
X177106788Y-67616232D01*
X177246928Y-67514414D01*
X177369414Y-67391928D01*
X177471232Y-67251788D01*
X177549873Y-67097445D01*
X177603402Y-66932701D01*
X177619861Y-66828778D01*
X177649788Y-66765648D01*
X177709099Y-66728717D01*
X177778962Y-66729713D01*
X177830014Y-66760499D01*
X179680922Y-68611407D01*
X179714407Y-68672730D01*
X179711173Y-68737405D01*
X179706522Y-68751718D01*
X179674500Y-68953898D01*
X179674500Y-69158601D01*
X179706522Y-69360784D01*
X179769781Y-69555473D01*
X179862715Y-69737863D01*
X179983028Y-69903463D01*
X180127786Y-70048221D01*
X180282749Y-70160806D01*
X180293390Y-70168537D01*
X180409607Y-70227753D01*
X180475776Y-70261468D01*
X180475778Y-70261468D01*
X180475781Y-70261470D01*
X180580137Y-70295377D01*
X180670465Y-70324727D01*
X180771557Y-70340738D01*
X180872648Y-70356750D01*
X180872649Y-70356750D01*
X181077351Y-70356750D01*
X181077352Y-70356750D01*
X181279534Y-70324727D01*
X181474219Y-70261470D01*
X181656610Y-70168537D01*
X181749590Y-70100982D01*
X181822213Y-70048221D01*
X181822215Y-70048218D01*
X181822219Y-70048216D01*
X181966966Y-69903469D01*
X181966968Y-69903465D01*
X181966971Y-69903463D01*
X182019732Y-69830840D01*
X182087287Y-69737860D01*
X182180220Y-69555469D01*
X182243477Y-69360784D01*
X182275500Y-69158602D01*
X182275500Y-68953898D01*
X182252810Y-68810639D01*
X182243477Y-68751715D01*
X182210889Y-68651421D01*
X182180220Y-68557031D01*
X182180218Y-68557028D01*
X182180218Y-68557026D01*
X182146503Y-68490857D01*
X182087287Y-68374640D01*
X182028881Y-68294250D01*
X181966971Y-68209036D01*
X181822213Y-68064278D01*
X181656613Y-67943965D01*
X181656612Y-67943964D01*
X181656610Y-67943963D01*
X181597051Y-67913616D01*
X181474223Y-67851031D01*
X181279534Y-67787772D01*
X181104995Y-67760128D01*
X181077352Y-67755750D01*
X180872648Y-67755750D01*
X180841137Y-67760741D01*
X180670468Y-67787772D01*
X180661717Y-67790615D01*
X180656154Y-67792423D01*
X180586313Y-67794417D01*
X180530157Y-67762172D01*
X179356374Y-66588389D01*
X184319500Y-66588389D01*
X184319500Y-66761611D01*
X184346598Y-66932701D01*
X184400127Y-67097445D01*
X184478768Y-67251788D01*
X184580586Y-67391928D01*
X184703072Y-67514414D01*
X184843212Y-67616232D01*
X184997555Y-67694873D01*
X185162299Y-67748402D01*
X185333389Y-67775500D01*
X185333390Y-67775500D01*
X185506610Y-67775500D01*
X185506611Y-67775500D01*
X185677701Y-67748402D01*
X185842445Y-67694873D01*
X185996788Y-67616232D01*
X186136928Y-67514414D01*
X186259414Y-67391928D01*
X186361232Y-67251788D01*
X186439873Y-67097445D01*
X186493402Y-66932701D01*
X186520500Y-66761611D01*
X186520500Y-66588389D01*
X186493402Y-66417299D01*
X186439873Y-66252555D01*
X186361232Y-66098212D01*
X186259414Y-65958072D01*
X186207482Y-65906140D01*
X186173997Y-65844817D01*
X186178981Y-65775125D01*
X186220853Y-65719192D01*
X186286317Y-65694775D01*
X186314561Y-65695986D01*
X186315212Y-65696089D01*
X186315215Y-65696090D01*
X186564038Y-65735500D01*
X186564039Y-65735500D01*
X186815961Y-65735500D01*
X186815962Y-65735500D01*
X187064785Y-65696090D01*
X187304379Y-65618241D01*
X187528845Y-65503870D01*
X187732656Y-65355793D01*
X187910793Y-65177656D01*
X188058870Y-64973845D01*
X188145815Y-64803204D01*
X188193789Y-64752409D01*
X188256300Y-64735500D01*
X188965462Y-64735500D01*
X189032501Y-64755185D01*
X189078256Y-64807989D01*
X189088200Y-64877147D01*
X189059175Y-64940703D01*
X189040948Y-64957876D01*
X189012959Y-64979352D01*
X189012952Y-64979358D01*
X188804358Y-65187952D01*
X188804352Y-65187959D01*
X188624761Y-65422006D01*
X188477258Y-65677489D01*
X188477254Y-65677499D01*
X188364364Y-65950038D01*
X188364361Y-65950048D01*
X188288008Y-66235004D01*
X188288006Y-66235015D01*
X188249500Y-66527486D01*
X188249500Y-66822513D01*
X188281571Y-67066113D01*
X188288007Y-67114993D01*
X188362212Y-67391930D01*
X188364361Y-67399951D01*
X188364364Y-67399961D01*
X188477254Y-67672500D01*
X188477258Y-67672510D01*
X188624761Y-67927993D01*
X188804352Y-68162040D01*
X188804358Y-68162047D01*
X189012952Y-68370641D01*
X189012959Y-68370647D01*
X189247006Y-68550238D01*
X189502489Y-68697741D01*
X189502490Y-68697741D01*
X189502493Y-68697743D01*
X189775048Y-68810639D01*
X190060007Y-68886993D01*
X190352494Y-68925500D01*
X190352501Y-68925500D01*
X190647499Y-68925500D01*
X190647506Y-68925500D01*
X190939993Y-68886993D01*
X191224952Y-68810639D01*
X191497507Y-68697743D01*
X191752994Y-68550238D01*
X191987042Y-68370646D01*
X192195646Y-68162042D01*
X192375238Y-67927994D01*
X192522743Y-67672507D01*
X192635639Y-67399952D01*
X192711993Y-67114993D01*
X192750500Y-66822506D01*
X192750500Y-66527494D01*
X192711993Y-66235007D01*
X192635639Y-65950048D01*
X192522743Y-65677493D01*
X192506428Y-65649235D01*
X192375238Y-65422006D01*
X192195647Y-65187959D01*
X192195641Y-65187952D01*
X191987047Y-64979358D01*
X191987040Y-64979352D01*
X191959052Y-64957876D01*
X191917849Y-64901448D01*
X191913694Y-64831702D01*
X191947906Y-64770782D01*
X192009624Y-64738029D01*
X192034538Y-64735500D01*
X194803653Y-64735500D01*
X194870692Y-64755185D01*
X194891334Y-64771819D01*
X195494500Y-65374985D01*
X195527985Y-65436308D01*
X195523001Y-65506000D01*
X195481129Y-65561933D01*
X195426217Y-65585139D01*
X195322302Y-65601597D01*
X195157552Y-65655128D01*
X195003211Y-65733768D01*
X194946289Y-65775125D01*
X194863072Y-65835586D01*
X194863070Y-65835588D01*
X194863069Y-65835588D01*
X194740588Y-65958069D01*
X194740588Y-65958070D01*
X194740586Y-65958072D01*
X194704808Y-66007316D01*
X194638768Y-66098211D01*
X194560128Y-66252552D01*
X194506597Y-66417302D01*
X194489146Y-66527486D01*
X194479500Y-66588389D01*
X194479500Y-66761611D01*
X194506598Y-66932701D01*
X194560127Y-67097445D01*
X194638768Y-67251788D01*
X194740586Y-67391928D01*
X194863072Y-67514414D01*
X195003212Y-67616232D01*
X195157555Y-67694873D01*
X195322299Y-67748402D01*
X195493389Y-67775500D01*
X195493390Y-67775500D01*
X195666610Y-67775500D01*
X195666611Y-67775500D01*
X195837701Y-67748402D01*
X196002445Y-67694873D01*
X196156788Y-67616232D01*
X196296928Y-67514414D01*
X196419414Y-67391928D01*
X196521232Y-67251788D01*
X196599873Y-67097445D01*
X196653402Y-66932701D01*
X196669861Y-66828778D01*
X196699788Y-66765648D01*
X196759099Y-66728717D01*
X196828962Y-66729713D01*
X196880014Y-66760499D01*
X198730922Y-68611407D01*
X198764407Y-68672730D01*
X198761173Y-68737405D01*
X198756522Y-68751718D01*
X198724500Y-68953898D01*
X198724500Y-69158601D01*
X198756522Y-69360784D01*
X198819781Y-69555473D01*
X198912715Y-69737863D01*
X199033028Y-69903463D01*
X199177786Y-70048221D01*
X199332749Y-70160806D01*
X199343390Y-70168537D01*
X199459607Y-70227753D01*
X199525776Y-70261468D01*
X199525778Y-70261468D01*
X199525781Y-70261470D01*
X199630137Y-70295377D01*
X199720465Y-70324727D01*
X199821557Y-70340738D01*
X199922648Y-70356750D01*
X199922649Y-70356750D01*
X200127351Y-70356750D01*
X200127352Y-70356750D01*
X200329534Y-70324727D01*
X200524219Y-70261470D01*
X200706610Y-70168537D01*
X200799590Y-70100982D01*
X200872213Y-70048221D01*
X200872215Y-70048218D01*
X200872219Y-70048216D01*
X201016966Y-69903469D01*
X201016968Y-69903465D01*
X201016971Y-69903463D01*
X201069732Y-69830840D01*
X201137287Y-69737860D01*
X201230220Y-69555469D01*
X201293477Y-69360784D01*
X201325500Y-69158602D01*
X201325500Y-68953898D01*
X201302810Y-68810639D01*
X201293477Y-68751715D01*
X201260889Y-68651421D01*
X201230220Y-68557031D01*
X201230218Y-68557028D01*
X201230218Y-68557026D01*
X201196503Y-68490857D01*
X201137287Y-68374640D01*
X201078881Y-68294250D01*
X201016971Y-68209036D01*
X200872213Y-68064278D01*
X200706613Y-67943965D01*
X200706612Y-67943964D01*
X200706610Y-67943963D01*
X200647051Y-67913616D01*
X200524223Y-67851031D01*
X200329534Y-67787772D01*
X200154995Y-67760128D01*
X200127352Y-67755750D01*
X199922648Y-67755750D01*
X199891137Y-67760741D01*
X199720468Y-67787772D01*
X199711717Y-67790615D01*
X199706154Y-67792423D01*
X199636313Y-67794417D01*
X199580157Y-67762172D01*
X195591340Y-63773355D01*
X195591338Y-63773352D01*
X195472467Y-63654481D01*
X195472466Y-63654480D01*
X195385654Y-63604360D01*
X195385654Y-63604359D01*
X195385650Y-63604358D01*
X195335535Y-63575423D01*
X195182807Y-63534499D01*
X195024693Y-63534499D01*
X195017097Y-63534499D01*
X195017081Y-63534500D01*
X188256300Y-63534500D01*
X188189261Y-63514815D01*
X188145815Y-63466795D01*
X188058870Y-63296155D01*
X188030642Y-63257303D01*
X187910798Y-63092350D01*
X187910794Y-63092345D01*
X187732654Y-62914205D01*
X187732649Y-62914201D01*
X187528848Y-62766132D01*
X187528847Y-62766131D01*
X187528845Y-62766130D01*
X187458747Y-62730413D01*
X187304383Y-62651760D01*
X187064785Y-62573910D01*
X186815962Y-62534500D01*
X186564038Y-62534500D01*
X186439626Y-62554205D01*
X186315214Y-62573910D01*
X186075616Y-62651760D01*
X185851151Y-62766132D01*
X185647350Y-62914201D01*
X185647345Y-62914205D01*
X185469205Y-63092345D01*
X185469201Y-63092350D01*
X185321132Y-63296151D01*
X185206760Y-63520616D01*
X185128910Y-63760214D01*
X185089500Y-64009038D01*
X185089500Y-64260961D01*
X185128910Y-64509785D01*
X185206760Y-64749383D01*
X185259723Y-64853327D01*
X185312993Y-64957876D01*
X185321132Y-64973848D01*
X185469201Y-65177649D01*
X185469205Y-65177654D01*
X185469207Y-65177656D01*
X185647344Y-65355793D01*
X185647345Y-65355794D01*
X185647344Y-65355794D01*
X185653661Y-65360383D01*
X185696327Y-65415714D01*
X185702305Y-65485327D01*
X185669699Y-65547122D01*
X185608860Y-65581479D01*
X185561378Y-65583174D01*
X185506611Y-65574500D01*
X185333389Y-65574500D01*
X185300829Y-65579657D01*
X185162302Y-65601597D01*
X184997552Y-65655128D01*
X184843211Y-65733768D01*
X184786289Y-65775125D01*
X184703072Y-65835586D01*
X184703070Y-65835588D01*
X184703069Y-65835588D01*
X184580588Y-65958069D01*
X184580588Y-65958070D01*
X184580586Y-65958072D01*
X184544808Y-66007316D01*
X184478768Y-66098211D01*
X184400128Y-66252552D01*
X184346597Y-66417302D01*
X184329146Y-66527486D01*
X184319500Y-66588389D01*
X179356374Y-66588389D01*
X176541340Y-63773355D01*
X176541338Y-63773352D01*
X176422467Y-63654481D01*
X176422466Y-63654480D01*
X176335654Y-63604360D01*
X176335654Y-63604359D01*
X176335650Y-63604358D01*
X176285535Y-63575423D01*
X176132807Y-63534499D01*
X175974693Y-63534499D01*
X175967097Y-63534499D01*
X175967081Y-63534500D01*
X169206300Y-63534500D01*
X169139261Y-63514815D01*
X169095815Y-63466795D01*
X169008870Y-63296155D01*
X168980642Y-63257303D01*
X168860798Y-63092350D01*
X168860794Y-63092345D01*
X168682654Y-62914205D01*
X168682649Y-62914201D01*
X168478848Y-62766132D01*
X168478847Y-62766131D01*
X168478845Y-62766130D01*
X168408747Y-62730413D01*
X168254383Y-62651760D01*
X168014785Y-62573910D01*
X167765962Y-62534500D01*
X167514038Y-62534500D01*
X167389626Y-62554205D01*
X167265214Y-62573910D01*
X167025616Y-62651760D01*
X166801151Y-62766132D01*
X166597350Y-62914201D01*
X166597345Y-62914205D01*
X166419205Y-63092345D01*
X166419201Y-63092350D01*
X166271132Y-63296151D01*
X166156760Y-63520616D01*
X166078910Y-63760214D01*
X166039500Y-64009038D01*
X166039500Y-64260961D01*
X166078910Y-64509785D01*
X166156760Y-64749383D01*
X166209723Y-64853327D01*
X166262993Y-64957876D01*
X166271132Y-64973848D01*
X166419201Y-65177649D01*
X166419205Y-65177654D01*
X166419207Y-65177656D01*
X166597344Y-65355793D01*
X166597345Y-65355794D01*
X166597344Y-65355794D01*
X166603661Y-65360383D01*
X166646327Y-65415714D01*
X166652305Y-65485327D01*
X166619699Y-65547122D01*
X166558860Y-65581479D01*
X166511378Y-65583174D01*
X166456611Y-65574500D01*
X166283389Y-65574500D01*
X166250829Y-65579657D01*
X166112302Y-65601597D01*
X165947552Y-65655128D01*
X165793211Y-65733768D01*
X165736289Y-65775125D01*
X165653072Y-65835586D01*
X165653070Y-65835588D01*
X165653069Y-65835588D01*
X165530588Y-65958069D01*
X165530588Y-65958070D01*
X165530586Y-65958072D01*
X165494808Y-66007316D01*
X165428768Y-66098211D01*
X165350128Y-66252552D01*
X165296597Y-66417302D01*
X165279146Y-66527486D01*
X165269500Y-66588389D01*
X160306374Y-66588389D01*
X157491340Y-63773355D01*
X157491338Y-63773352D01*
X157372467Y-63654481D01*
X157372466Y-63654480D01*
X157285654Y-63604360D01*
X157285654Y-63604359D01*
X157285650Y-63604358D01*
X157235535Y-63575423D01*
X157082807Y-63534499D01*
X156924693Y-63534499D01*
X156917097Y-63534499D01*
X156917081Y-63534500D01*
X150156300Y-63534500D01*
X150089261Y-63514815D01*
X150045815Y-63466795D01*
X149958870Y-63296155D01*
X149930642Y-63257303D01*
X149810798Y-63092350D01*
X149810794Y-63092345D01*
X149632654Y-62914205D01*
X149632649Y-62914201D01*
X149428848Y-62766132D01*
X149428847Y-62766131D01*
X149428845Y-62766130D01*
X149358747Y-62730413D01*
X149204383Y-62651760D01*
X148964785Y-62573910D01*
X148715962Y-62534500D01*
X148464038Y-62534500D01*
X148339626Y-62554205D01*
X148215214Y-62573910D01*
X147975616Y-62651760D01*
X147751151Y-62766132D01*
X147547350Y-62914201D01*
X147547345Y-62914205D01*
X147369205Y-63092345D01*
X147369201Y-63092350D01*
X147221132Y-63296151D01*
X147106760Y-63520616D01*
X147028910Y-63760214D01*
X146989500Y-64009038D01*
X146989500Y-64260961D01*
X147028910Y-64509785D01*
X147106760Y-64749383D01*
X147159723Y-64853327D01*
X147212993Y-64957876D01*
X147221132Y-64973848D01*
X147369201Y-65177649D01*
X147369205Y-65177654D01*
X147369207Y-65177656D01*
X147547344Y-65355793D01*
X147547345Y-65355794D01*
X147547344Y-65355794D01*
X147553661Y-65360383D01*
X147596327Y-65415714D01*
X147602305Y-65485327D01*
X147569699Y-65547122D01*
X147508860Y-65581479D01*
X147461378Y-65583174D01*
X147406611Y-65574500D01*
X147233389Y-65574500D01*
X147200829Y-65579657D01*
X147062302Y-65601597D01*
X146897552Y-65655128D01*
X146743211Y-65733768D01*
X146686289Y-65775125D01*
X146603072Y-65835586D01*
X146603070Y-65835588D01*
X146603069Y-65835588D01*
X146480588Y-65958069D01*
X146480588Y-65958070D01*
X146480586Y-65958072D01*
X146444808Y-66007316D01*
X146378768Y-66098211D01*
X146300128Y-66252552D01*
X146246597Y-66417302D01*
X146229146Y-66527486D01*
X146219500Y-66588389D01*
X141256374Y-66588389D01*
X138441340Y-63773355D01*
X138441338Y-63773352D01*
X138322467Y-63654481D01*
X138322466Y-63654480D01*
X138235654Y-63604360D01*
X138235654Y-63604359D01*
X138235650Y-63604358D01*
X138185535Y-63575423D01*
X138032807Y-63534499D01*
X137874693Y-63534499D01*
X137867097Y-63534499D01*
X137867081Y-63534500D01*
X131106300Y-63534500D01*
X131039261Y-63514815D01*
X130995815Y-63466795D01*
X130908870Y-63296155D01*
X130880642Y-63257303D01*
X130760798Y-63092350D01*
X130760794Y-63092345D01*
X130582654Y-62914205D01*
X130582649Y-62914201D01*
X130378848Y-62766132D01*
X130378847Y-62766131D01*
X130378845Y-62766130D01*
X130308747Y-62730413D01*
X130154383Y-62651760D01*
X129914785Y-62573910D01*
X129665962Y-62534500D01*
X129414038Y-62534500D01*
X129289626Y-62554205D01*
X129165214Y-62573910D01*
X128925616Y-62651760D01*
X128701151Y-62766132D01*
X128497350Y-62914201D01*
X128497345Y-62914205D01*
X128319205Y-63092345D01*
X128319201Y-63092350D01*
X128171132Y-63296151D01*
X128056760Y-63520616D01*
X127978910Y-63760214D01*
X127939500Y-64009038D01*
X127939500Y-64260961D01*
X127978910Y-64509785D01*
X128056760Y-64749383D01*
X128109723Y-64853327D01*
X128162993Y-64957876D01*
X128171132Y-64973848D01*
X128319201Y-65177649D01*
X128319205Y-65177654D01*
X128319207Y-65177656D01*
X128497344Y-65355793D01*
X128497345Y-65355794D01*
X128497344Y-65355794D01*
X128503661Y-65360383D01*
X128546327Y-65415714D01*
X128552305Y-65485327D01*
X128519699Y-65547122D01*
X128458860Y-65581479D01*
X128411378Y-65583174D01*
X128356611Y-65574500D01*
X128183389Y-65574500D01*
X128150829Y-65579657D01*
X128012302Y-65601597D01*
X127847552Y-65655128D01*
X127693211Y-65733768D01*
X127636289Y-65775125D01*
X127553072Y-65835586D01*
X127553070Y-65835588D01*
X127553069Y-65835588D01*
X127430588Y-65958069D01*
X127430588Y-65958070D01*
X127430586Y-65958072D01*
X127394808Y-66007316D01*
X127328768Y-66098211D01*
X127250128Y-66252552D01*
X127196597Y-66417302D01*
X127179146Y-66527486D01*
X127169500Y-66588389D01*
X120321750Y-66588389D01*
X120294652Y-66417299D01*
X120241123Y-66252555D01*
X120162482Y-66098212D01*
X120060664Y-65958072D01*
X119938178Y-65835586D01*
X119798038Y-65733768D01*
X119643695Y-65655127D01*
X119478951Y-65601598D01*
X119478949Y-65601597D01*
X119478948Y-65601597D01*
X119340421Y-65579657D01*
X119307861Y-65574500D01*
X119134639Y-65574500D01*
X119102079Y-65579657D01*
X118963552Y-65601597D01*
X118798802Y-65655128D01*
X118644461Y-65733768D01*
X118587539Y-65775125D01*
X118504322Y-65835586D01*
X118504320Y-65835588D01*
X118504319Y-65835588D01*
X118381838Y-65958069D01*
X118381838Y-65958070D01*
X118381836Y-65958072D01*
X118346058Y-66007316D01*
X118280018Y-66098211D01*
X118201377Y-66252553D01*
X118188244Y-66292972D01*
X118148806Y-66350646D01*
X118084446Y-66377843D01*
X118015600Y-66365927D01*
X117982633Y-66342332D01*
X115413656Y-63773355D01*
X115413654Y-63773352D01*
X115294783Y-63654481D01*
X115294782Y-63654480D01*
X115207970Y-63604360D01*
X115207970Y-63604359D01*
X115207966Y-63604358D01*
X115157851Y-63575423D01*
X115005123Y-63534499D01*
X114847009Y-63534499D01*
X114839413Y-63534499D01*
X114839397Y-63534500D01*
X111897550Y-63534500D01*
X111830511Y-63514815D01*
X111787065Y-63466795D01*
X111700120Y-63296155D01*
X111671892Y-63257303D01*
X111552048Y-63092350D01*
X111552044Y-63092345D01*
X111373904Y-62914205D01*
X111373899Y-62914201D01*
X111170098Y-62766132D01*
X111170097Y-62766131D01*
X111170095Y-62766130D01*
X111099997Y-62730413D01*
X110945633Y-62651760D01*
X110706035Y-62573910D01*
X110457212Y-62534500D01*
X110205288Y-62534500D01*
X110080876Y-62554205D01*
X109956464Y-62573910D01*
X109716866Y-62651760D01*
X109492401Y-62766132D01*
X109288600Y-62914201D01*
X109288595Y-62914205D01*
X109110455Y-63092345D01*
X109110451Y-63092350D01*
X108962382Y-63296151D01*
X108848010Y-63520616D01*
X108770160Y-63760214D01*
X108730750Y-64009038D01*
X108730750Y-64260961D01*
X108770160Y-64509785D01*
X108848010Y-64749383D01*
X108900973Y-64853327D01*
X108954243Y-64957876D01*
X108962382Y-64973848D01*
X109110451Y-65177649D01*
X109110455Y-65177654D01*
X109110457Y-65177656D01*
X109288594Y-65355793D01*
X109288595Y-65355794D01*
X109288594Y-65355794D01*
X109294911Y-65360383D01*
X109337577Y-65415714D01*
X109343555Y-65485327D01*
X109310949Y-65547122D01*
X109250110Y-65581479D01*
X109202628Y-65583174D01*
X109147861Y-65574500D01*
X108974639Y-65574500D01*
X108942079Y-65579657D01*
X108803552Y-65601597D01*
X108638802Y-65655128D01*
X108484461Y-65733768D01*
X108427539Y-65775125D01*
X108344322Y-65835586D01*
X108344320Y-65835588D01*
X108344319Y-65835588D01*
X108221838Y-65958069D01*
X108221838Y-65958070D01*
X108221836Y-65958072D01*
X108186058Y-66007316D01*
X108120018Y-66098211D01*
X108041378Y-66252552D01*
X107987847Y-66417302D01*
X107970396Y-66527486D01*
X107960750Y-66588389D01*
X102894250Y-66588389D01*
X102894250Y-61469038D01*
X115080750Y-61469038D01*
X115080750Y-61720961D01*
X115120160Y-61969785D01*
X115198010Y-62209383D01*
X115312382Y-62433848D01*
X115460451Y-62637649D01*
X115460455Y-62637654D01*
X115638595Y-62815794D01*
X115638600Y-62815798D01*
X115807161Y-62938264D01*
X115842405Y-62963870D01*
X115984121Y-63036078D01*
X116066866Y-63078239D01*
X116066868Y-63078239D01*
X116066871Y-63078241D01*
X116306465Y-63156090D01*
X116555288Y-63195500D01*
X116555289Y-63195500D01*
X116807211Y-63195500D01*
X116807212Y-63195500D01*
X117056035Y-63156090D01*
X117295629Y-63078241D01*
X117520095Y-62963870D01*
X117723906Y-62815793D01*
X117902043Y-62637656D01*
X118050120Y-62433845D01*
X118164491Y-62209379D01*
X118242340Y-61969785D01*
X118281750Y-61720962D01*
X118281750Y-61469038D01*
X134289500Y-61469038D01*
X134289500Y-61720961D01*
X134328910Y-61969785D01*
X134406760Y-62209383D01*
X134521132Y-62433848D01*
X134669201Y-62637649D01*
X134669205Y-62637654D01*
X134847345Y-62815794D01*
X134847350Y-62815798D01*
X135015911Y-62938264D01*
X135051155Y-62963870D01*
X135192871Y-63036078D01*
X135275616Y-63078239D01*
X135275618Y-63078239D01*
X135275621Y-63078241D01*
X135515215Y-63156090D01*
X135764038Y-63195500D01*
X135764039Y-63195500D01*
X136015961Y-63195500D01*
X136015962Y-63195500D01*
X136264785Y-63156090D01*
X136504379Y-63078241D01*
X136728845Y-62963870D01*
X136932656Y-62815793D01*
X137110793Y-62637656D01*
X137258870Y-62433845D01*
X137373241Y-62209379D01*
X137451090Y-61969785D01*
X137490500Y-61720962D01*
X137490500Y-61469038D01*
X153339500Y-61469038D01*
X153339500Y-61720961D01*
X153378910Y-61969785D01*
X153456760Y-62209383D01*
X153571132Y-62433848D01*
X153719201Y-62637649D01*
X153719205Y-62637654D01*
X153897345Y-62815794D01*
X153897350Y-62815798D01*
X154065911Y-62938264D01*
X154101155Y-62963870D01*
X154242871Y-63036078D01*
X154325616Y-63078239D01*
X154325618Y-63078239D01*
X154325621Y-63078241D01*
X154565215Y-63156090D01*
X154814038Y-63195500D01*
X154814039Y-63195500D01*
X155065961Y-63195500D01*
X155065962Y-63195500D01*
X155314785Y-63156090D01*
X155554379Y-63078241D01*
X155778845Y-62963870D01*
X155982656Y-62815793D01*
X156160793Y-62637656D01*
X156308870Y-62433845D01*
X156423241Y-62209379D01*
X156501090Y-61969785D01*
X156540500Y-61720962D01*
X156540500Y-61469038D01*
X172389500Y-61469038D01*
X172389500Y-61720961D01*
X172428910Y-61969785D01*
X172506760Y-62209383D01*
X172621132Y-62433848D01*
X172769201Y-62637649D01*
X172769205Y-62637654D01*
X172947345Y-62815794D01*
X172947350Y-62815798D01*
X173115911Y-62938264D01*
X173151155Y-62963870D01*
X173292871Y-63036078D01*
X173375616Y-63078239D01*
X173375618Y-63078239D01*
X173375621Y-63078241D01*
X173615215Y-63156090D01*
X173864038Y-63195500D01*
X173864039Y-63195500D01*
X174115961Y-63195500D01*
X174115962Y-63195500D01*
X174364785Y-63156090D01*
X174604379Y-63078241D01*
X174828845Y-62963870D01*
X175032656Y-62815793D01*
X175210793Y-62637656D01*
X175358870Y-62433845D01*
X175473241Y-62209379D01*
X175551090Y-61969785D01*
X175590500Y-61720962D01*
X175590500Y-61469038D01*
X191439500Y-61469038D01*
X191439500Y-61720961D01*
X191478910Y-61969785D01*
X191556760Y-62209383D01*
X191671132Y-62433848D01*
X191819201Y-62637649D01*
X191819205Y-62637654D01*
X191997345Y-62815794D01*
X191997350Y-62815798D01*
X192165911Y-62938264D01*
X192201155Y-62963870D01*
X192342871Y-63036078D01*
X192425616Y-63078239D01*
X192425618Y-63078239D01*
X192425621Y-63078241D01*
X192665215Y-63156090D01*
X192914038Y-63195500D01*
X192914039Y-63195500D01*
X193165961Y-63195500D01*
X193165962Y-63195500D01*
X193414785Y-63156090D01*
X193654379Y-63078241D01*
X193878845Y-62963870D01*
X194082656Y-62815793D01*
X194260793Y-62637656D01*
X194408870Y-62433845D01*
X194523241Y-62209379D01*
X194601090Y-61969785D01*
X194640500Y-61720962D01*
X194640500Y-61469038D01*
X194601090Y-61220215D01*
X194523241Y-60980621D01*
X194439484Y-60816238D01*
X194430625Y-60798851D01*
X194430624Y-60798849D01*
X194408869Y-60756153D01*
X194401409Y-60745885D01*
X207693250Y-60745885D01*
X207693250Y-62841620D01*
X207693251Y-62841626D01*
X207699658Y-62901233D01*
X207749952Y-63036078D01*
X207749956Y-63036085D01*
X207836202Y-63151294D01*
X207836205Y-63151297D01*
X207953948Y-63239440D01*
X207995819Y-63295373D01*
X208000803Y-63365065D01*
X207979955Y-63411591D01*
X207910409Y-63507313D01*
X207803183Y-63717753D01*
X207730196Y-63942381D01*
X207693250Y-64175652D01*
X207693250Y-64411847D01*
X207730196Y-64645118D01*
X207803183Y-64869746D01*
X207859031Y-64979352D01*
X207910407Y-65080183D01*
X208049233Y-65271260D01*
X208049235Y-65271262D01*
X208216240Y-65438267D01*
X208223353Y-65443435D01*
X208266016Y-65498767D01*
X208271992Y-65568380D01*
X208239384Y-65630174D01*
X208223353Y-65644065D01*
X208216240Y-65649232D01*
X208049235Y-65816237D01*
X208049235Y-65816238D01*
X208049233Y-65816240D01*
X208035176Y-65835588D01*
X207910407Y-66007316D01*
X207803183Y-66217753D01*
X207730196Y-66442381D01*
X207693250Y-66675652D01*
X207693250Y-66911847D01*
X207730196Y-67145118D01*
X207803183Y-67369746D01*
X207876896Y-67514414D01*
X207910407Y-67580183D01*
X208049233Y-67771260D01*
X208216240Y-67938267D01*
X208407317Y-68077093D01*
X208506741Y-68127752D01*
X208617753Y-68184316D01*
X208617755Y-68184316D01*
X208617758Y-68184318D01*
X208693817Y-68209031D01*
X208842381Y-68257303D01*
X209075653Y-68294250D01*
X209075658Y-68294250D01*
X209311847Y-68294250D01*
X209545118Y-68257303D01*
X209578218Y-68246548D01*
X209769742Y-68184318D01*
X209980183Y-68077093D01*
X210171260Y-67938267D01*
X210338267Y-67771260D01*
X210477093Y-67580183D01*
X210584318Y-67369742D01*
X210657303Y-67145118D01*
X210664854Y-67097445D01*
X210694250Y-66911847D01*
X210694250Y-66675652D01*
X210657303Y-66442381D01*
X210623439Y-66338162D01*
X210584318Y-66217758D01*
X210584316Y-66217755D01*
X210584316Y-66217753D01*
X210477092Y-66007316D01*
X210441314Y-65958072D01*
X210338267Y-65816240D01*
X210171260Y-65649233D01*
X210164151Y-65644068D01*
X210121485Y-65588738D01*
X210115506Y-65519125D01*
X210148112Y-65457330D01*
X210164151Y-65443432D01*
X210164250Y-65443359D01*
X210171260Y-65438267D01*
X210338267Y-65271260D01*
X210477093Y-65080183D01*
X210537333Y-64961954D01*
X210585308Y-64911159D01*
X210647818Y-64894250D01*
X221107081Y-64894250D01*
X221107097Y-64894251D01*
X221114693Y-64894251D01*
X221272804Y-64894251D01*
X221272807Y-64894251D01*
X221425535Y-64853327D01*
X221475654Y-64824389D01*
X221562466Y-64774270D01*
X221674270Y-64662466D01*
X221674270Y-64662464D01*
X221684478Y-64652257D01*
X221684480Y-64652254D01*
X223090187Y-63246546D01*
X223151508Y-63213063D01*
X223216183Y-63216297D01*
X223342382Y-63257303D01*
X223429860Y-63271158D01*
X223575653Y-63294250D01*
X223575658Y-63294250D01*
X223811847Y-63294250D01*
X224045118Y-63257303D01*
X224100094Y-63239440D01*
X224269742Y-63184318D01*
X224480183Y-63077093D01*
X224671260Y-62938267D01*
X224838267Y-62771260D01*
X224977093Y-62580183D01*
X225084318Y-62369742D01*
X225157303Y-62145118D01*
X225185073Y-61969785D01*
X225194250Y-61911847D01*
X225194250Y-61675652D01*
X225157303Y-61442381D01*
X225084316Y-61217753D01*
X224977092Y-61007316D01*
X224957697Y-60980621D01*
X224838267Y-60816240D01*
X224671260Y-60649233D01*
X224480183Y-60510407D01*
X224269746Y-60403183D01*
X224045118Y-60330196D01*
X223811847Y-60293250D01*
X223811842Y-60293250D01*
X223575658Y-60293250D01*
X223575653Y-60293250D01*
X223342381Y-60330196D01*
X223117753Y-60403183D01*
X222907316Y-60510407D01*
X222798300Y-60589612D01*
X222716240Y-60649233D01*
X222716238Y-60649235D01*
X222716237Y-60649235D01*
X222549235Y-60816237D01*
X222549235Y-60816238D01*
X222549233Y-60816240D01*
X222489612Y-60898300D01*
X222410407Y-61007316D01*
X222303183Y-61217753D01*
X222230196Y-61442381D01*
X222193250Y-61675652D01*
X222193250Y-61911847D01*
X222230197Y-62145119D01*
X222230197Y-62145122D01*
X222271200Y-62271314D01*
X222273195Y-62341155D01*
X222240950Y-62397313D01*
X220981334Y-63656931D01*
X220920011Y-63690416D01*
X220893653Y-63693250D01*
X210647818Y-63693250D01*
X210580779Y-63673565D01*
X210537333Y-63625545D01*
X210526539Y-63604360D01*
X210477093Y-63507317D01*
X210407543Y-63411590D01*
X210384064Y-63345786D01*
X210399889Y-63277732D01*
X210433551Y-63239439D01*
X210436078Y-63237546D01*
X210436081Y-63237546D01*
X210551296Y-63151296D01*
X210637546Y-63036081D01*
X210687841Y-62901233D01*
X210694250Y-62841623D01*
X210694249Y-60745878D01*
X210687841Y-60686267D01*
X210674028Y-60649233D01*
X210637547Y-60551421D01*
X210637543Y-60551414D01*
X210551297Y-60436205D01*
X210551294Y-60436202D01*
X210436085Y-60349956D01*
X210436078Y-60349952D01*
X210301232Y-60299658D01*
X210301233Y-60299658D01*
X210241633Y-60293251D01*
X210241631Y-60293250D01*
X210241623Y-60293250D01*
X210241614Y-60293250D01*
X208145879Y-60293250D01*
X208145873Y-60293251D01*
X208086266Y-60299658D01*
X207951421Y-60349952D01*
X207951414Y-60349956D01*
X207836205Y-60436202D01*
X207836202Y-60436205D01*
X207749956Y-60551414D01*
X207749952Y-60551421D01*
X207699658Y-60686267D01*
X207693251Y-60745866D01*
X207693251Y-60745873D01*
X207693250Y-60745885D01*
X194401409Y-60745885D01*
X194260798Y-60552350D01*
X194260794Y-60552345D01*
X194082654Y-60374205D01*
X194082649Y-60374201D01*
X193878848Y-60226132D01*
X193878847Y-60226131D01*
X193878845Y-60226130D01*
X193803699Y-60187841D01*
X193654383Y-60111760D01*
X193414785Y-60033910D01*
X193165962Y-59994500D01*
X192914038Y-59994500D01*
X192789626Y-60014205D01*
X192665214Y-60033910D01*
X192425616Y-60111760D01*
X192201151Y-60226132D01*
X191997350Y-60374201D01*
X191997345Y-60374205D01*
X191819205Y-60552345D01*
X191819201Y-60552350D01*
X191671132Y-60756151D01*
X191556760Y-60980616D01*
X191478910Y-61220214D01*
X191439500Y-61469038D01*
X175590500Y-61469038D01*
X175551090Y-61220215D01*
X175473241Y-60980621D01*
X175473239Y-60980618D01*
X175473239Y-60980616D01*
X175431747Y-60899184D01*
X175358870Y-60756155D01*
X175308093Y-60686266D01*
X175210798Y-60552350D01*
X175210794Y-60552345D01*
X175032654Y-60374205D01*
X175032649Y-60374201D01*
X174828848Y-60226132D01*
X174828847Y-60226131D01*
X174828845Y-60226130D01*
X174753699Y-60187841D01*
X174604383Y-60111760D01*
X174364785Y-60033910D01*
X174115962Y-59994500D01*
X173864038Y-59994500D01*
X173739626Y-60014205D01*
X173615214Y-60033910D01*
X173375616Y-60111760D01*
X173151151Y-60226132D01*
X172947350Y-60374201D01*
X172947345Y-60374205D01*
X172769205Y-60552345D01*
X172769201Y-60552350D01*
X172621132Y-60756151D01*
X172506760Y-60980616D01*
X172428910Y-61220214D01*
X172389500Y-61469038D01*
X156540500Y-61469038D01*
X156501090Y-61220215D01*
X156423241Y-60980621D01*
X156423239Y-60980618D01*
X156423239Y-60980616D01*
X156381747Y-60899184D01*
X156308870Y-60756155D01*
X156258093Y-60686266D01*
X156160798Y-60552350D01*
X156160794Y-60552345D01*
X155982654Y-60374205D01*
X155982649Y-60374201D01*
X155778848Y-60226132D01*
X155778847Y-60226131D01*
X155778845Y-60226130D01*
X155703699Y-60187841D01*
X155554383Y-60111760D01*
X155314785Y-60033910D01*
X155065962Y-59994500D01*
X154814038Y-59994500D01*
X154689626Y-60014205D01*
X154565214Y-60033910D01*
X154325616Y-60111760D01*
X154101151Y-60226132D01*
X153897350Y-60374201D01*
X153897345Y-60374205D01*
X153719205Y-60552345D01*
X153719201Y-60552350D01*
X153571132Y-60756151D01*
X153456760Y-60980616D01*
X153378910Y-61220214D01*
X153339500Y-61469038D01*
X137490500Y-61469038D01*
X137451090Y-61220215D01*
X137373241Y-60980621D01*
X137373239Y-60980618D01*
X137373239Y-60980616D01*
X137331747Y-60899184D01*
X137258870Y-60756155D01*
X137208093Y-60686266D01*
X137110798Y-60552350D01*
X137110794Y-60552345D01*
X136932654Y-60374205D01*
X136932649Y-60374201D01*
X136728848Y-60226132D01*
X136728847Y-60226131D01*
X136728845Y-60226130D01*
X136653699Y-60187841D01*
X136504383Y-60111760D01*
X136264785Y-60033910D01*
X136015962Y-59994500D01*
X135764038Y-59994500D01*
X135639626Y-60014205D01*
X135515214Y-60033910D01*
X135275616Y-60111760D01*
X135051151Y-60226132D01*
X134847350Y-60374201D01*
X134847345Y-60374205D01*
X134669205Y-60552345D01*
X134669201Y-60552350D01*
X134521132Y-60756151D01*
X134406760Y-60980616D01*
X134328910Y-61220214D01*
X134289500Y-61469038D01*
X118281750Y-61469038D01*
X118242340Y-61220215D01*
X118164491Y-60980621D01*
X118164489Y-60980618D01*
X118164489Y-60980616D01*
X118122997Y-60899184D01*
X118050120Y-60756155D01*
X117999343Y-60686266D01*
X117902048Y-60552350D01*
X117902044Y-60552345D01*
X117723904Y-60374205D01*
X117723899Y-60374201D01*
X117520098Y-60226132D01*
X117520097Y-60226131D01*
X117520095Y-60226130D01*
X117444949Y-60187841D01*
X117295633Y-60111760D01*
X117056035Y-60033910D01*
X116807212Y-59994500D01*
X116555288Y-59994500D01*
X116430876Y-60014205D01*
X116306464Y-60033910D01*
X116066866Y-60111760D01*
X115842401Y-60226132D01*
X115638600Y-60374201D01*
X115638595Y-60374205D01*
X115460455Y-60552345D01*
X115460451Y-60552350D01*
X115312382Y-60756151D01*
X115198010Y-60980616D01*
X115120160Y-61220214D01*
X115080750Y-61469038D01*
X102894250Y-61469038D01*
X102894250Y-57645885D01*
X214593250Y-57645885D01*
X214593250Y-59741620D01*
X214593251Y-59741626D01*
X214599658Y-59801233D01*
X214649952Y-59936078D01*
X214649956Y-59936085D01*
X214736202Y-60051294D01*
X214736205Y-60051297D01*
X214851414Y-60137543D01*
X214851421Y-60137547D01*
X214986267Y-60187841D01*
X214986266Y-60187841D01*
X214993194Y-60188585D01*
X215045877Y-60194250D01*
X218341622Y-60194249D01*
X218401233Y-60187841D01*
X218536081Y-60137546D01*
X218651296Y-60051296D01*
X218737546Y-59936081D01*
X218787841Y-59801233D01*
X218794250Y-59741623D01*
X218794249Y-57645878D01*
X218787841Y-57586267D01*
X218737546Y-57451419D01*
X218737545Y-57451418D01*
X218737543Y-57451414D01*
X218651297Y-57336205D01*
X218651294Y-57336202D01*
X218536085Y-57249956D01*
X218536078Y-57249952D01*
X218401232Y-57199658D01*
X218401233Y-57199658D01*
X218341633Y-57193251D01*
X218341631Y-57193250D01*
X218341623Y-57193250D01*
X218341614Y-57193250D01*
X215045879Y-57193250D01*
X215045873Y-57193251D01*
X214986266Y-57199658D01*
X214851421Y-57249952D01*
X214851414Y-57249956D01*
X214736205Y-57336202D01*
X214736202Y-57336205D01*
X214649956Y-57451414D01*
X214649952Y-57451421D01*
X214599658Y-57586267D01*
X214593251Y-57645866D01*
X214593251Y-57645873D01*
X214593250Y-57645885D01*
X102894250Y-57645885D01*
X102894250Y-53012000D01*
X102913935Y-52944961D01*
X102966739Y-52899206D01*
X103018250Y-52888000D01*
X227975500Y-52888000D01*
X228042539Y-52907685D01*
G37*
G04 #@! TD.AperFunction*
M02*
