M48
; DRILL file {KiCad 9.0.1} date 2025-06-11T13:57:42-0400
; FORMAT={-:-/ absolute / metric / decimal}
; #@! TF.CreationDate,2025-06-11T13:57:42-04:00
; #@! TF.GenerationSoftware,Kicad,Pcbnew,9.0.1
; #@! TF.FileFunction,Plated,1,2,PTH
FMAT,2
METRIC
; #@! TA.AperFunction,Plated,PTH,ViaDrill
T1C0.300
; #@! TA.AperFunction,Plated,PTH,ComponentDrill
T2C0.800
; #@! TA.AperFunction,Plated,PTH,ComponentDrill
T3C0.889
; #@! TA.AperFunction,Plated,PTH,ComponentDrill
T4C1.000
; #@! TA.AperFunction,Plated,PTH,ComponentDrill
T5C1.500
%
G90
G05
T1
X202.406Y-80.962
X204.787Y-95.25
T2
X123.825Y-69.056
X123.825Y-76.676
X123.825Y-85.725
X123.825Y-93.345
X142.875Y-69.056
X142.875Y-76.676
X142.875Y-85.725
X142.875Y-93.345
X161.925Y-69.056
X161.925Y-76.676
X161.925Y-85.725
X161.925Y-93.345
X180.975Y-69.056
X180.975Y-76.676
X180.975Y-85.725
X180.975Y-93.345
X200.025Y-69.056
X200.025Y-76.676
X200.025Y-85.725
X200.025Y-93.345
T3
X209.074Y-78.105
X209.074Y-93.345
X211.614Y-78.105
X211.614Y-93.345
X214.154Y-78.105
X214.154Y-93.345
X216.694Y-78.105
X216.694Y-93.345
X219.234Y-78.105
X219.234Y-93.345
X221.774Y-78.105
X221.774Y-93.345
X224.314Y-78.105
X224.314Y-93.345
T4
X209.194Y-61.794
X209.194Y-64.294
X209.194Y-66.794
X223.694Y-61.794
X223.694Y-66.794
T5
X110.331Y-64.135
X110.49Y-83.185
X116.681Y-61.595
X116.84Y-80.645
X129.54Y-64.135
X129.54Y-83.185
X135.89Y-61.595
X135.89Y-80.645
X148.59Y-64.135
X148.59Y-83.185
X154.94Y-61.595
X154.94Y-80.645
X167.64Y-64.135
X167.64Y-83.185
X173.99Y-61.595
X173.99Y-80.645
X186.69Y-64.135
X186.69Y-83.185
X193.04Y-61.595
X193.04Y-80.645
T5
G00X216.044Y-58.694
M15
G01X217.344Y-58.694
M16
G05
G00X216.044Y-69.894
M15
G01X217.344Y-69.894
M16
G05
M30
